<?xml version="1.0" encoding="UTF-8" standalone="no"?><svg xmlns="http://www.w3.org/2000/svg" xmlns:xlink="http://www.w3.org/1999/xlink" contentStyleType="text/css" height="706px" preserveAspectRatio="none" style="width:3114px;height:706px;background:#FFFFFF;" version="1.1" viewBox="0 0 3114 706" width="3114px" zoomAndPan="magnify"><defs/><g><!--MD5=[919386ce46a6a5a7c71af782f732246a]
class Mundo--><g id="elem_Mundo"><rect codeLine="1" fill="#F1F1F1" height="97.4648" id="Mundo" rx="2.5" ry="2.5" style="stroke:#181818;stroke-width:0.5;" width="310" x="869.5" y="437"/><ellipse cx="996.25" cy="453" fill="#ADD1B2" rx="11" ry="11" style="stroke:#181818;stroke-width:1.0;"/><path d="M998.7231,459.1431 Q998.1421,459.4419 997.5029,459.5913 Q996.8638,459.7407 996.1582,459.7407 Q993.6514,459.7407 992.3315,458.0889 Q991.0117,456.437 991.0117,453.3159 Q991.0117,450.1865 992.3315,448.5347 Q993.6514,446.8828 996.1582,446.8828 Q996.8638,446.8828 997.5112,447.0322 Q998.1587,447.1816 998.7231,447.4805 L998.7231,450.2031 Q998.0923,449.6221 997.4988,449.3523 Q996.9053,449.0825 996.2744,449.0825 Q994.9297,449.0825 994.2449,450.1492 Q993.5601,451.2158 993.5601,453.3159 Q993.5601,455.4077 994.2449,456.4744 Q994.9297,457.541 996.2744,457.541 Q996.9053,457.541 997.4988,457.2712 Q998.0923,457.0015 998.7231,456.4204 Z " fill="#000000"/><text fill="#000000" font-family="sans-serif" font-size="14" lengthAdjust="spacing" textLength="48" x="1016.75" y="458.291">Mundo</text><line style="stroke:#181818;stroke-width:0.5;" x1="870.5" x2="1178.5" y1="469" y2="469"/><text fill="#000000" font-family="sans-serif" font-size="14" lengthAdjust="spacing" textLength="85" x="875.5" y="486.5352">mouseX : int</text><text fill="#000000" font-family="sans-serif" font-size="14" lengthAdjust="spacing" textLength="85" x="875.5" y="503.0234">mouseY : int</text><line style="stroke:#181818;stroke-width:0.5;" x1="870.5" x2="1178.5" y1="509.9766" y2="509.9766"/><ellipse cx="880.5" cy="520.9766" fill="#84BE84" rx="3" ry="3" style="stroke:#038048;stroke-width:1.0;"/><text fill="#000000" font-family="sans-serif" font-size="14" lengthAdjust="spacing" text-decoration="underline" textLength="284" x="889.5" y="527.5117">GetInstance(width:int, height:int) : Mundo</text></g><!--MD5=[175f95e045c1a44aed0b30df3abe0e5c]
class Program--><g id="elem_Program"><rect codeLine="6" fill="#F1F1F1" height="64.4883" id="Program" rx="2.5" ry="2.5" style="stroke:#181818;stroke-width:0.5;" width="180" x="63.5" y="147.5"/><ellipse cx="119.75" cy="163.5" fill="#ADD1B2" rx="11" ry="11" style="stroke:#181818;stroke-width:1.0;"/><path d="M122.2231,169.6431 Q121.6421,169.9419 121.0029,170.0913 Q120.3638,170.2407 119.6582,170.2407 Q117.1514,170.2407 115.8315,168.5889 Q114.5117,166.937 114.5117,163.8159 Q114.5117,160.6865 115.8315,159.0347 Q117.1514,157.3828 119.6582,157.3828 Q120.3638,157.3828 121.0112,157.5322 Q121.6587,157.6816 122.2231,157.9805 L122.2231,160.7031 Q121.5923,160.1221 120.9988,159.8523 Q120.4053,159.5825 119.7744,159.5825 Q118.4297,159.5825 117.7449,160.6492 Q117.0601,161.7158 117.0601,163.8159 Q117.0601,165.9077 117.7449,166.9744 Q118.4297,168.041 119.7744,168.041 Q120.4053,168.041 120.9988,167.7712 Q121.5923,167.5015 122.2231,166.9204 Z " fill="#000000"/><text fill="#000000" font-family="sans-serif" font-size="14" lengthAdjust="spacing" textLength="59" x="140.25" y="168.791">Program</text><line style="stroke:#181818;stroke-width:0.5;" x1="64.5" x2="242.5" y1="179.5" y2="179.5"/><line style="stroke:#181818;stroke-width:0.5;" x1="64.5" x2="242.5" y1="187.5" y2="187.5"/><text fill="#000000" font-family="sans-serif" font-size="14" lengthAdjust="spacing" text-decoration="underline" textLength="168" x="69.5" y="205.0352">Main(args:string[]) : void</text></g><!--MD5=[d0074d293e9645ff4ed5f25f47c5773b]
class GameWindow--><g id="elem_GameWindow"><rect fill="#F1F1F1" height="48" id="GameWindow" rx="2.5" ry="2.5" style="stroke:#181818;stroke-width:0.5;" width="125" x="962" y="155.5"/><ellipse cx="977" cy="171.5" fill="#ADD1B2" rx="11" ry="11" style="stroke:#181818;stroke-width:1.0;"/><path d="M979.4731,177.6431 Q978.8921,177.9419 978.2529,178.0913 Q977.6138,178.2407 976.9082,178.2407 Q974.4014,178.2407 973.0815,176.5889 Q971.7617,174.937 971.7617,171.8159 Q971.7617,168.6865 973.0815,167.0347 Q974.4014,165.3828 976.9082,165.3828 Q977.6138,165.3828 978.2612,165.5322 Q978.9087,165.6816 979.4731,165.9805 L979.4731,168.7031 Q978.8423,168.1221 978.2488,167.8523 Q977.6553,167.5825 977.0244,167.5825 Q975.6797,167.5825 974.9949,168.6492 Q974.3101,169.7158 974.3101,171.8159 Q974.3101,173.9077 974.9949,174.9744 Q975.6797,176.041 977.0244,176.041 Q977.6553,176.041 978.2488,175.7712 Q978.8423,175.5015 979.4731,174.9204 Z " fill="#000000"/><text fill="#000000" font-family="sans-serif" font-size="14" lengthAdjust="spacing" textLength="93" x="991" y="176.791">GameWindow</text><line style="stroke:#181818;stroke-width:0.5;" x1="963" x2="1086" y1="187.5" y2="187.5"/><line style="stroke:#181818;stroke-width:0.5;" x1="963" x2="1086" y1="195.5" y2="195.5"/></g><!--MD5=[3051a6a8f877a755a60c7cfd1e6f410a]
class Objeto--><g id="elem_Objeto"><rect codeLine="1" fill="#F1F1F1" height="344.7891" id="Objeto" rx="2.5" ry="2.5" style="stroke:#181818;stroke-width:0.5;" width="399" x="1300" y="7"/><ellipse cx="1472.25" cy="23" fill="#A9DCDF" rx="11" ry="11" style="stroke:#181818;stroke-width:1.0;"/><path d="M1472.1133,18.3481 L1470.9595,23.4199 L1473.2754,23.4199 Z M1470.6191,16.1069 L1473.6157,16.1069 L1476.9609,28.5 L1474.5122,28.5 L1473.7485,25.437 L1470.4697,25.437 L1469.7227,28.5 L1467.2739,28.5 Z " fill="#000000"/><text fill="#000000" font-family="sans-serif" font-size="14" font-style="italic" lengthAdjust="spacing" textLength="46" x="1492.75" y="28.291">Objeto</text><line style="stroke:#181818;stroke-width:0.5;" x1="1301" x2="1698" y1="39" y2="39"/><ellipse cx="1311" cy="50" fill="none" rx="3" ry="3" style="stroke:#038048;stroke-width:1.0;"/><text fill="#000000" font-family="sans-serif" font-size="14" lengthAdjust="spacing" textLength="245" x="1320" y="56.5352">PrimitivaTamanho : float «get» «set»</text><line style="stroke:#181818;stroke-width:0.5;" x1="1301" x2="1698" y1="63.4883" y2="63.4883"/><ellipse cx="1311" cy="74.4883" fill="#84BE84" rx="3" ry="3" style="stroke:#038048;stroke-width:1.0;"/><text fill="#000000" font-family="sans-serif" font-size="14" lengthAdjust="spacing" textLength="239" x="1320" y="81.0234">TrocaEixoRotacao(eixo:char) : void</text><ellipse cx="1311" cy="90.9766" fill="#84BE84" rx="3" ry="3" style="stroke:#038048;stroke-width:1.0;"/><text fill="#000000" font-family="sans-serif" font-size="14" lengthAdjust="spacing" textLength="233" x="1320" y="97.5117">Objeto(rotulo:char, paiRef:Objeto)</text><ellipse cx="1311" cy="107.4648" fill="#84BE84" rx="3" ry="3" style="stroke:#038048;stroke-width:1.0;"/><text fill="#000000" font-family="sans-serif" font-size="14" lengthAdjust="spacing" textLength="116" x="1320" y="114">Desenhar() : void</text><ellipse cx="1311" cy="123.9531" fill="#84BE84" rx="3" ry="3" style="stroke:#038048;stroke-width:1.0;"/><text fill="#000000" font-family="sans-serif" font-size="14" lengthAdjust="spacing" textLength="232" x="1320" y="130.4883">FilhoAdicionar(filho:Objeto) : void</text><ellipse cx="1311" cy="140.4414" fill="#84BE84" rx="3" ry="3" style="stroke:#038048;stroke-width:1.0;"/><text fill="#000000" font-family="sans-serif" font-size="14" lengthAdjust="spacing" textLength="226" x="1320" y="146.9766">FilhoRemover(filho:Objeto) : void</text><ellipse cx="1311" cy="156.9297" fill="#84BE84" rx="3" ry="3" style="stroke:#038048;stroke-width:1.0;"/><text fill="#000000" font-family="sans-serif" font-size="14" lengthAdjust="spacing" textLength="308" x="1320" y="163.4648">GrafocenaBusca(mousePto:Ponto4D) : Objeto</text><ellipse cx="1311" cy="173.418" fill="#84BE84" rx="3" ry="3" style="stroke:#038048;stroke-width:1.0;"/><text fill="#000000" font-family="sans-serif" font-size="14" lengthAdjust="spacing" textLength="181" x="1320" y="179.9531">GrafocenaRemover() : void</text><ellipse cx="1311" cy="189.9063" fill="#84BE84" rx="3" ry="3" style="stroke:#038048;stroke-width:1.0;"/><text fill="#000000" font-family="sans-serif" font-size="14" lengthAdjust="spacing" textLength="180" x="1320" y="196.4414">GrafocenaToString() : void</text><ellipse cx="1311" cy="206.3945" fill="#84BE84" rx="3" ry="3" style="stroke:#038048;stroke-width:1.0;"/><text fill="#000000" font-family="sans-serif" font-size="14" lengthAdjust="spacing" textLength="282" x="1320" y="212.9297">GrafocenaRemoverPoligonoVazio() : bool</text><ellipse cx="1311" cy="222.8828" fill="#84BE84" rx="3" ry="3" style="stroke:#038048;stroke-width:1.0;"/><text fill="#000000" font-family="sans-serif" font-size="14" lengthAdjust="spacing" textLength="180" x="1320" y="229.418">PrimitivaTipoTroca() : void</text><ellipse cx="1311" cy="239.3711" fill="#84BE84" rx="3" ry="3" style="stroke:#038048;stroke-width:1.0;"/><text fill="#000000" font-family="sans-serif" font-size="14" lengthAdjust="spacing" textLength="177" x="1320" y="245.9063">AtribuirIdentidade() : void</text><ellipse cx="1311" cy="255.8594" fill="#84BE84" rx="3" ry="3" style="stroke:#038048;stroke-width:1.0;"/><text fill="#000000" font-family="sans-serif" font-size="14" lengthAdjust="spacing" textLength="363" x="1320" y="262.3945">TranslacaoXYZ(tx:double, ty:double, tz:double) : void</text><ellipse cx="1311" cy="272.3477" fill="#84BE84" rx="3" ry="3" style="stroke:#038048;stroke-width:1.0;"/><text fill="#000000" font-family="sans-serif" font-size="14" lengthAdjust="spacing" textLength="339" x="1320" y="278.8828">EscalaXYZ(Sx:double, Sy:double, Sz:double) : void</text><ellipse cx="1311" cy="288.8359" fill="#84BE84" rx="3" ry="3" style="stroke:#038048;stroke-width:1.0;"/><text fill="#000000" font-family="sans-serif" font-size="14" lengthAdjust="spacing" textLength="373" x="1320" y="295.3711">EscalaXYZBBox(Sx:double, Sy:double, Sz:double) : void</text><ellipse cx="1311" cy="305.3242" fill="#84BE84" rx="3" ry="3" style="stroke:#038048;stroke-width:1.0;"/><text fill="#000000" font-family="sans-serif" font-size="14" lengthAdjust="spacing" textLength="236" x="1320" y="311.8594">RotacaoEixo(angulo:double) : void</text><ellipse cx="1311" cy="321.8125" fill="#84BE84" rx="3" ry="3" style="stroke:#038048;stroke-width:1.0;"/><text fill="#000000" font-family="sans-serif" font-size="14" lengthAdjust="spacing" textLength="206" x="1320" y="328.3477">Rotacao(angulo:double) : void</text><ellipse cx="1311" cy="338.3008" fill="#84BE84" rx="3" ry="3" style="stroke:#038048;stroke-width:1.0;"/><text fill="#000000" font-family="sans-serif" font-size="14" lengthAdjust="spacing" textLength="248" x="1320" y="344.8359">RotacaoZBBox(angulo:double) : void</text></g><!--MD5=[9ac43fafcd0ede942dc8e681a30a1b52]
class Cor--><g id="elem_Cor"><rect fill="#F1F1F1" height="48" id="Cor" rx="2.5" ry="2.5" style="stroke:#181818;stroke-width:0.5;" width="57" x="1215" y="461.5"/><ellipse cx="1230" cy="477.5" fill="#ADD1B2" rx="11" ry="11" style="stroke:#181818;stroke-width:1.0;"/><path d="M1232.4731,483.6431 Q1231.8921,483.9419 1231.2529,484.0913 Q1230.6138,484.2407 1229.9082,484.2407 Q1227.4014,484.2407 1226.0815,482.5889 Q1224.7617,480.937 1224.7617,477.8159 Q1224.7617,474.6865 1226.0815,473.0347 Q1227.4014,471.3828 1229.9082,471.3828 Q1230.6138,471.3828 1231.2612,471.5322 Q1231.9087,471.6816 1232.4731,471.9805 L1232.4731,474.7031 Q1231.8423,474.1221 1231.2488,473.8523 Q1230.6553,473.5825 1230.0244,473.5825 Q1228.6797,473.5825 1227.9949,474.6492 Q1227.3101,475.7158 1227.3101,477.8159 Q1227.3101,479.9077 1227.9949,480.9744 Q1228.6797,482.041 1230.0244,482.041 Q1230.6553,482.041 1231.2488,481.7712 Q1231.8423,481.5015 1232.4731,480.9204 Z " fill="#000000"/><text fill="#000000" font-family="sans-serif" font-size="14" lengthAdjust="spacing" textLength="25" x="1244" y="482.791">Cor</text><line style="stroke:#181818;stroke-width:0.5;" x1="1216" x2="1271" y1="493.5" y2="493.5"/><line style="stroke:#181818;stroke-width:0.5;" x1="1216" x2="1271" y1="501.5" y2="501.5"/></g><!--MD5=[38e8fced9e943fac45fdba9ac5db991f]
class PrimitiveType--><g id="elem_PrimitiveType"><rect fill="#F1F1F1" height="48" id="PrimitiveType" rx="2.5" ry="2.5" style="stroke:#181818;stroke-width:0.5;" width="124" x="1307.5" y="461.5"/><ellipse cx="1322.5" cy="477.5" fill="#ADD1B2" rx="11" ry="11" style="stroke:#181818;stroke-width:1.0;"/><path d="M1324.9731,483.6431 Q1324.3921,483.9419 1323.7529,484.0913 Q1323.1138,484.2407 1322.4082,484.2407 Q1319.9014,484.2407 1318.5815,482.5889 Q1317.2617,480.937 1317.2617,477.8159 Q1317.2617,474.6865 1318.5815,473.0347 Q1319.9014,471.3828 1322.4082,471.3828 Q1323.1138,471.3828 1323.7612,471.5322 Q1324.4087,471.6816 1324.9731,471.9805 L1324.9731,474.7031 Q1324.3423,474.1221 1323.7488,473.8523 Q1323.1553,473.5825 1322.5244,473.5825 Q1321.1797,473.5825 1320.4949,474.6492 Q1319.8101,475.7158 1319.8101,477.8159 Q1319.8101,479.9077 1320.4949,480.9744 Q1321.1797,482.041 1322.5244,482.041 Q1323.1553,482.041 1323.7488,481.7712 Q1324.3423,481.5015 1324.9731,480.9204 Z " fill="#000000"/><text fill="#000000" font-family="sans-serif" font-size="14" lengthAdjust="spacing" textLength="92" x="1336.5" y="482.791">PrimitiveType</text><line style="stroke:#181818;stroke-width:0.5;" x1="1308.5" x2="1430.5" y1="493.5" y2="493.5"/><line style="stroke:#181818;stroke-width:0.5;" x1="1308.5" x2="1430.5" y1="501.5" y2="501.5"/></g><!--MD5=[ea10f8dc465baf5e542f54928f2443c8]
class BBox--><g id="elem_BBox"><rect fill="#F1F1F1" height="48" id="BBox" rx="2.5" ry="2.5" style="stroke:#181818;stroke-width:0.5;" width="66" x="1466.5" y="461.5"/><ellipse cx="1481.5" cy="477.5" fill="#ADD1B2" rx="11" ry="11" style="stroke:#181818;stroke-width:1.0;"/><path d="M1483.9731,483.6431 Q1483.3921,483.9419 1482.7529,484.0913 Q1482.1138,484.2407 1481.4082,484.2407 Q1478.9014,484.2407 1477.5815,482.5889 Q1476.2617,480.937 1476.2617,477.8159 Q1476.2617,474.6865 1477.5815,473.0347 Q1478.9014,471.3828 1481.4082,471.3828 Q1482.1138,471.3828 1482.7612,471.5322 Q1483.4087,471.6816 1483.9731,471.9805 L1483.9731,474.7031 Q1483.3423,474.1221 1482.7488,473.8523 Q1482.1553,473.5825 1481.5244,473.5825 Q1480.1797,473.5825 1479.4949,474.6492 Q1478.8101,475.7158 1478.8101,477.8159 Q1478.8101,479.9077 1479.4949,480.9744 Q1480.1797,482.041 1481.5244,482.041 Q1482.1553,482.041 1482.7488,481.7712 Q1483.3423,481.5015 1483.9731,480.9204 Z " fill="#000000"/><text fill="#000000" font-family="sans-serif" font-size="14" lengthAdjust="spacing" textLength="34" x="1495.5" y="482.791">BBox</text><line style="stroke:#181818;stroke-width:0.5;" x1="1467.5" x2="1531.5" y1="493.5" y2="493.5"/><line style="stroke:#181818;stroke-width:0.5;" x1="1467.5" x2="1531.5" y1="501.5" y2="501.5"/></g><!--MD5=[6746db26fbf3328699b5b65a634cc0f3]
class Transformacao4D--><g id="elem_Transformacao4D"><rect fill="#F1F1F1" height="48" id="Transformacao4D" rx="2.5" ry="2.5" style="stroke:#181818;stroke-width:0.5;" width="155" x="1568" y="461.5"/><ellipse cx="1583" cy="477.5" fill="#ADD1B2" rx="11" ry="11" style="stroke:#181818;stroke-width:1.0;"/><path d="M1585.4731,483.6431 Q1584.8921,483.9419 1584.2529,484.0913 Q1583.6138,484.2407 1582.9082,484.2407 Q1580.4014,484.2407 1579.0815,482.5889 Q1577.7617,480.937 1577.7617,477.8159 Q1577.7617,474.6865 1579.0815,473.0347 Q1580.4014,471.3828 1582.9082,471.3828 Q1583.6138,471.3828 1584.2612,471.5322 Q1584.9087,471.6816 1585.4731,471.9805 L1585.4731,474.7031 Q1584.8423,474.1221 1584.2488,473.8523 Q1583.6553,473.5825 1583.0244,473.5825 Q1581.6797,473.5825 1580.9949,474.6492 Q1580.3101,475.7158 1580.3101,477.8159 Q1580.3101,479.9077 1580.9949,480.9744 Q1581.6797,482.041 1583.0244,482.041 Q1583.6553,482.041 1584.2488,481.7712 Q1584.8423,481.5015 1585.4731,480.9204 Z " fill="#000000"/><text fill="#000000" font-family="sans-serif" font-size="14" lengthAdjust="spacing" textLength="123" x="1597" y="482.791">Transformacao4D</text><line style="stroke:#181818;stroke-width:0.5;" x1="1569" x2="1722" y1="493.5" y2="493.5"/><line style="stroke:#181818;stroke-width:0.5;" x1="1569" x2="1722" y1="501.5" y2="501.5"/></g><!--MD5=[8b9e0d00865063ef789ad294aa32e6ea]
class ObjetoGeometria--><g id="elem_ObjetoGeometria"><rect codeLine="1" fill="#F1F1F1" height="146.9297" id="ObjetoGeometria" rx="2.5" ry="2.5" style="stroke:#181818;stroke-width:0.5;" width="340" x="1758.5" y="412"/><ellipse cx="1865.75" cy="428" fill="#A9DCDF" rx="11" ry="11" style="stroke:#181818;stroke-width:1.0;"/><path d="M1865.6133,423.3481 L1864.4595,428.4199 L1866.7754,428.4199 Z M1864.1191,421.1069 L1867.1157,421.1069 L1870.4609,433.5 L1868.0122,433.5 L1867.2485,430.437 L1863.9697,430.437 L1863.2227,433.5 L1860.7739,433.5 Z " fill="#000000"/><text fill="#000000" font-family="sans-serif" font-size="14" font-style="italic" lengthAdjust="spacing" textLength="117" x="1886.25" y="433.291">ObjetoGeometria</text><line style="stroke:#181818;stroke-width:0.5;" x1="1759.5" x2="2097.5" y1="444" y2="444"/><line style="stroke:#181818;stroke-width:0.5;" x1="1759.5" x2="2097.5" y1="452" y2="452"/><ellipse cx="1769.5" cy="463" fill="#84BE84" rx="3" ry="3" style="stroke:#038048;stroke-width:1.0;"/><text fill="#000000" font-family="sans-serif" font-size="14" lengthAdjust="spacing" textLength="314" x="1778.5" y="469.5352">ObjetoGeometria(rotulo:string, paiRef:Objeto)</text><ellipse cx="1769.5" cy="479.4883" fill="#84BE84" rx="3" ry="3" style="stroke:#038048;stroke-width:1.0;"/><text fill="#000000" font-family="sans-serif" font-size="14" lengthAdjust="spacing" textLength="250" x="1778.5" y="486.0234">PontosAdicionar(pto:Ponto4D) : void</text><ellipse cx="1769.5" cy="495.9766" fill="#84BE84" rx="3" ry="3" style="stroke:#038048;stroke-width:1.0;"/><text fill="#000000" font-family="sans-serif" font-size="14" lengthAdjust="spacing" textLength="203" x="1778.5" y="502.5117">PontosRemoverUltimo() : void</text><ellipse cx="1769.5" cy="512.4648" fill="#84BE84" rx="3" ry="3" style="stroke:#038048;stroke-width:1.0;"/><text fill="#000000" font-family="sans-serif" font-size="14" lengthAdjust="spacing" textLength="173" x="1778.5" y="519">PontosUltimo() : Ponto4D</text><ellipse cx="1769.5" cy="528.9531" fill="#84BE84" rx="3" ry="3" style="stroke:#038048;stroke-width:1.0;"/><text fill="#000000" font-family="sans-serif" font-size="14" lengthAdjust="spacing" textLength="314" x="1778.5" y="535.4883">PontosAlterar(pto:Ponto4D, posicao:int) : void</text><ellipse cx="1769.5" cy="545.4414" fill="#84BE84" rx="3" ry="3" style="stroke:#038048;stroke-width:1.0;"/><text fill="#000000" font-family="sans-serif" font-size="14" lengthAdjust="spacing" textLength="196" x="1778.5" y="551.9766">«override» ToString() : string</text></g><!--MD5=[14270d418d81d90ef0399f0e3d0d5129]
class Poligono--><g id="elem_Poligono"><rect codeLine="1" fill="#F1F1F1" height="80.9766" id="Poligono" rx="2.5" ry="2.5" style="stroke:#181818;stroke-width:0.5;" width="274" x="1034.5" y="619"/><ellipse cx="1136.75" cy="635" fill="#ADD1B2" rx="11" ry="11" style="stroke:#181818;stroke-width:1.0;"/><path d="M1139.2231,641.1431 Q1138.6421,641.4419 1138.0029,641.5913 Q1137.3638,641.7407 1136.6582,641.7407 Q1134.1514,641.7407 1132.8315,640.0889 Q1131.5117,638.437 1131.5117,635.3159 Q1131.5117,632.1865 1132.8315,630.5347 Q1134.1514,628.8828 1136.6582,628.8828 Q1137.3638,628.8828 1138.0112,629.0322 Q1138.6587,629.1816 1139.2231,629.4805 L1139.2231,632.2031 Q1138.5923,631.6221 1137.9988,631.3523 Q1137.4053,631.0825 1136.7744,631.0825 Q1135.4297,631.0825 1134.7449,632.1492 Q1134.0601,633.2158 1134.0601,635.3159 Q1134.0601,637.4077 1134.7449,638.4744 Q1135.4297,639.541 1136.7744,639.541 Q1137.4053,639.541 1137.9988,639.2712 Q1138.5923,639.0015 1139.2231,638.4204 Z " fill="#000000"/><text fill="#000000" font-family="sans-serif" font-size="14" lengthAdjust="spacing" textLength="61" x="1157.25" y="640.291">Poligono</text><line style="stroke:#181818;stroke-width:0.5;" x1="1035.5" x2="1307.5" y1="651" y2="651"/><line style="stroke:#181818;stroke-width:0.5;" x1="1035.5" x2="1307.5" y1="659" y2="659"/><ellipse cx="1045.5" cy="670" fill="#84BE84" rx="3" ry="3" style="stroke:#038048;stroke-width:1.0;"/><text fill="#000000" font-family="sans-serif" font-size="14" lengthAdjust="spacing" textLength="248" x="1054.5" y="676.5352">Poligono(rotulo:char, paiRef:Objeto)</text><ellipse cx="1045.5" cy="686.4883" fill="#84BE84" rx="3" ry="3" style="stroke:#038048;stroke-width:1.0;"/><text fill="#000000" font-family="sans-serif" font-size="14" lengthAdjust="spacing" textLength="196" x="1054.5" y="693.0234">«override» ToString() : string</text></g><!--MD5=[b6968d6f0311dc2ba07018bef6e7bfd3]
class Retangulo--><g id="elem_Retangulo"><rect codeLine="1" fill="#F1F1F1" height="80.9766" id="Retangulo" rx="2.5" ry="2.5" style="stroke:#181818;stroke-width:0.5;" width="569" x="1344" y="619"/><ellipse cx="1589.25" cy="635" fill="#ADD1B2" rx="11" ry="11" style="stroke:#181818;stroke-width:1.0;"/><path d="M1591.7231,641.1431 Q1591.1421,641.4419 1590.5029,641.5913 Q1589.8638,641.7407 1589.1582,641.7407 Q1586.6514,641.7407 1585.3315,640.0889 Q1584.0117,638.437 1584.0117,635.3159 Q1584.0117,632.1865 1585.3315,630.5347 Q1586.6514,628.8828 1589.1582,628.8828 Q1589.8638,628.8828 1590.5112,629.0322 Q1591.1587,629.1816 1591.7231,629.4805 L1591.7231,632.2031 Q1591.0923,631.6221 1590.4988,631.3523 Q1589.9053,631.0825 1589.2744,631.0825 Q1587.9297,631.0825 1587.2449,632.1492 Q1586.5601,633.2158 1586.5601,635.3159 Q1586.5601,637.4077 1587.2449,638.4744 Q1587.9297,639.541 1589.2744,639.541 Q1589.9053,639.541 1590.4988,639.2712 Q1591.0923,639.0015 1591.7231,638.4204 Z " fill="#000000"/><text fill="#000000" font-family="sans-serif" font-size="14" lengthAdjust="spacing" textLength="70" x="1609.75" y="640.291">Retangulo</text><line style="stroke:#181818;stroke-width:0.5;" x1="1345" x2="1912" y1="651" y2="651"/><line style="stroke:#181818;stroke-width:0.5;" x1="1345" x2="1912" y1="659" y2="659"/><ellipse cx="1355" cy="670" fill="#84BE84" rx="3" ry="3" style="stroke:#038048;stroke-width:1.0;"/><text fill="#000000" font-family="sans-serif" font-size="14" lengthAdjust="spacing" textLength="543" x="1364" y="676.5352">Retangulo(rotulo:string, paiRef:Objeto, ptoInfEsq:Ponto4D, ptoSupDir:Ponto4D)</text><ellipse cx="1355" cy="686.4883" fill="#84BE84" rx="3" ry="3" style="stroke:#038048;stroke-width:1.0;"/><text fill="#000000" font-family="sans-serif" font-size="14" lengthAdjust="spacing" textLength="196" x="1364" y="693.0234">«override» ToString() : string</text></g><!--MD5=[7285b5824e67b16848be7ff6288389e6]
class Utilitario--><g id="elem_Utilitario"><rect codeLine="1" fill="#F1F1F1" height="80.9766" id="Utilitario" rx="2.5" ry="2.5" style="stroke:#181818;stroke-width:0.5;" width="234" x="278.5" y="139"/><ellipse cx="361.75" cy="155" fill="#A9DCDF" rx="11" ry="11" style="stroke:#181818;stroke-width:1.0;"/><path d="M361.6133,150.3481 L360.4595,155.4199 L362.7754,155.4199 Z M360.1191,148.1069 L363.1157,148.1069 L366.4609,160.5 L364.0122,160.5 L363.2485,157.437 L359.9697,157.437 L359.2227,160.5 L356.7739,160.5 Z " fill="#000000"/><text fill="#000000" font-family="sans-serif" font-size="14" font-style="italic" lengthAdjust="spacing" textLength="59" x="382.25" y="160.291">Utilitario</text><line style="stroke:#181818;stroke-width:0.5;" x1="279.5" x2="511.5" y1="171" y2="171"/><line style="stroke:#181818;stroke-width:0.5;" x1="279.5" x2="511.5" y1="179" y2="179"/><ellipse cx="289.5" cy="190" fill="#84BE84" rx="3" ry="3" style="stroke:#038048;stroke-width:1.0;"/><text fill="#000000" font-family="sans-serif" font-size="14" lengthAdjust="spacing" text-decoration="underline" textLength="208" x="298.5" y="196.5352">charProximo(atual:char) : char</text><ellipse cx="289.5" cy="206.4883" fill="#84BE84" rx="3" ry="3" style="stroke:#038048;stroke-width:1.0;"/><text fill="#000000" font-family="sans-serif" font-size="14" lengthAdjust="spacing" text-decoration="underline" textLength="145" x="298.5" y="213.0234">AjudaTeclado() : void</text></g><!--MD5=[5650d724fe4a8bb070f5bb710507d40c]
class Privado_BBox--><g id="elem_Privado_BBox"><rect codeLine="1" fill="#F1F1F1" height="64.4883" id="Privado_BBox" rx="2.5" ry="2.5" style="stroke:#181818;stroke-width:0.5;" width="293" x="7" y="453.5"/><ellipse cx="103.25" cy="469.5" fill="#A9DCDF" rx="11" ry="11" style="stroke:#181818;stroke-width:1.0;"/><path d="M103.1133,464.8481 L101.9595,469.9199 L104.2754,469.9199 Z M101.6191,462.6069 L104.6157,462.6069 L107.9609,475 L105.5122,475 L104.7485,471.937 L101.4697,471.937 L100.7227,475 L98.2739,475 Z " fill="#000000"/><text fill="#000000" font-family="sans-serif" font-size="14" font-style="italic" lengthAdjust="spacing" textLength="92" x="123.75" y="474.791">Privado_BBox</text><line style="stroke:#181818;stroke-width:0.5;" x1="8" x2="299" y1="485.5" y2="485.5"/><line style="stroke:#181818;stroke-width:0.5;" x1="8" x2="299" y1="493.5" y2="493.5"/><ellipse cx="18" cy="504.5" fill="#84BE84" rx="3" ry="3" style="stroke:#038048;stroke-width:1.0;"/><text fill="#000000" font-family="sans-serif" font-size="14" lengthAdjust="spacing" text-decoration="underline" textLength="267" x="27" y="511.0352">Dentro(bBox:BBox, pto:Ponto4D) : bool</text></g><!--MD5=[c3c34a12a27bba7e909822120bf61f6f]
class Privado_Circulo--><g id="elem_Privado_Circulo"><rect codeLine="1" fill="#F1F1F1" height="80.9766" id="Privado_Circulo" rx="2.5" ry="2.5" style="stroke:#181818;stroke-width:0.5;" width="558" x="1948.5" y="619"/><ellipse cx="2169.75" cy="635" fill="#ADD1B2" rx="11" ry="11" style="stroke:#181818;stroke-width:1.0;"/><path d="M2172.2231,641.1431 Q2171.6421,641.4419 2171.0029,641.5913 Q2170.3638,641.7407 2169.6582,641.7407 Q2167.1514,641.7407 2165.8315,640.0889 Q2164.5117,638.437 2164.5117,635.3159 Q2164.5117,632.1865 2165.8315,630.5347 Q2167.1514,628.8828 2169.6582,628.8828 Q2170.3638,628.8828 2171.0112,629.0322 Q2171.6587,629.1816 2172.2231,629.4805 L2172.2231,632.2031 Q2171.5923,631.6221 2170.9988,631.3523 Q2170.4053,631.0825 2169.7744,631.0825 Q2168.4297,631.0825 2167.7449,632.1492 Q2167.0601,633.2158 2167.0601,635.3159 Q2167.0601,637.4077 2167.7449,638.4744 Q2168.4297,639.541 2169.7744,639.541 Q2170.4053,639.541 2170.9988,639.2712 Q2171.5923,639.0015 2172.2231,638.4204 Z " fill="#000000"/><text fill="#000000" font-family="sans-serif" font-size="14" lengthAdjust="spacing" textLength="107" x="2190.25" y="640.291">Privado_Circulo</text><line style="stroke:#181818;stroke-width:0.5;" x1="1949.5" x2="2505.5" y1="651" y2="651"/><line style="stroke:#181818;stroke-width:0.5;" x1="1949.5" x2="2505.5" y1="659" y2="659"/><ellipse cx="1959.5" cy="670" fill="#84BE84" rx="3" ry="3" style="stroke:#038048;stroke-width:1.0;"/><text fill="#000000" font-family="sans-serif" font-size="14" lengthAdjust="spacing" textLength="532" x="1968.5" y="676.5352">Privado_Circulo(rotulo:string, paiRef:Objeto, ptoCentro:Ponto4D, raio:double)</text><ellipse cx="1959.5" cy="686.4883" fill="#84BE84" rx="3" ry="3" style="stroke:#038048;stroke-width:1.0;"/><text fill="#000000" font-family="sans-serif" font-size="14" lengthAdjust="spacing" textLength="196" x="1968.5" y="693.0234">«override» ToString() : string</text></g><!--MD5=[00d138ea5291476c72e7cf5c7f606832]
class Privado_Matematica--><g id="elem_Privado_Matematica"><rect codeLine="1" fill="#F1F1F1" height="130.4414" id="Privado_Matematica" rx="2.5" ry="2.5" style="stroke:#181818;stroke-width:0.5;" width="499" x="335" y="420.5"/><ellipse cx="512.25" cy="436.5" fill="#A9DCDF" rx="11" ry="11" style="stroke:#181818;stroke-width:1.0;"/><path d="M512.1133,431.8481 L510.9595,436.9199 L513.2754,436.9199 Z M510.6191,429.6069 L513.6157,429.6069 L516.9609,442 L514.5122,442 L513.7485,438.937 L510.4697,438.937 L509.7227,442 L507.2739,442 Z " fill="#000000"/><text fill="#000000" font-family="sans-serif" font-size="14" font-style="italic" lengthAdjust="spacing" textLength="136" x="532.75" y="441.791">Privado_Matematica</text><line style="stroke:#181818;stroke-width:0.5;" x1="336" x2="833" y1="452.5" y2="452.5"/><line style="stroke:#181818;stroke-width:0.5;" x1="336" x2="833" y1="460.5" y2="460.5"/><ellipse cx="346" cy="471.5" fill="#84BE84" rx="3" ry="3" style="stroke:#038048;stroke-width:1.0;"/><text fill="#000000" font-family="sans-serif" font-size="14" lengthAdjust="spacing" text-decoration="underline" textLength="400" x="355" y="478.0352">DistanciaEuclidiana(pto1:Ponto4D, pto2:Ponto4D) : double</text><ellipse cx="346" cy="487.9883" fill="#84BE84" rx="3" ry="3" style="stroke:#038048;stroke-width:1.0;"/><text fill="#000000" font-family="sans-serif" font-size="14" lengthAdjust="spacing" text-decoration="underline" textLength="458" x="355" y="494.5234">DistanciaEuclidianaSemRaiz(pto1:Ponto4D, pto2:Ponto4D) : double</text><ellipse cx="346" cy="504.4766" fill="#84BE84" rx="3" ry="3" style="stroke:#038048;stroke-width:1.0;"/><text fill="#000000" font-family="sans-serif" font-size="14" lengthAdjust="spacing" text-decoration="underline" textLength="423" x="355" y="511.0117">ScanLineInterseccao(yi:double, y1:double, y2:double) : double</text><ellipse cx="346" cy="520.9648" fill="#84BE84" rx="3" ry="3" style="stroke:#038048;stroke-width:1.0;"/><text fill="#000000" font-family="sans-serif" font-size="14" lengthAdjust="spacing" text-decoration="underline" textLength="410" x="355" y="527.5">ScanLineCalculaXi(x1:double, x2:double, ti:double) : double</text><ellipse cx="346" cy="537.4531" fill="#84BE84" rx="3" ry="3" style="stroke:#038048;stroke-width:1.0;"/><text fill="#000000" font-family="sans-serif" font-size="14" lengthAdjust="spacing" text-decoration="underline" textLength="473" x="355" y="543.9883">ScanLine(ptoClique:Ponto4D, ptoIni:Ponto4D, ptoFim:Ponto4D) : bool</text></g><!--MD5=[48de76ac9e45cd2dd14a095e4e7d40a3]
class Privado_SegReta--><g id="elem_Privado_SegReta"><rect codeLine="1" fill="#F1F1F1" height="80.9766" id="Privado_SegReta" rx="2.5" ry="2.5" style="stroke:#181818;stroke-width:0.5;" width="566" x="2541.5" y="619"/><ellipse cx="2763.75" cy="635" fill="#ADD1B2" rx="11" ry="11" style="stroke:#181818;stroke-width:1.0;"/><path d="M2766.2231,641.1431 Q2765.6421,641.4419 2765.0029,641.5913 Q2764.3638,641.7407 2763.6582,641.7407 Q2761.1514,641.7407 2759.8315,640.0889 Q2758.5117,638.437 2758.5117,635.3159 Q2758.5117,632.1865 2759.8315,630.5347 Q2761.1514,628.8828 2763.6582,628.8828 Q2764.3638,628.8828 2765.0112,629.0322 Q2765.6587,629.1816 2766.2231,629.4805 L2766.2231,632.2031 Q2765.5923,631.6221 2764.9988,631.3523 Q2764.4053,631.0825 2763.7744,631.0825 Q2762.4297,631.0825 2761.7449,632.1492 Q2761.0601,633.2158 2761.0601,635.3159 Q2761.0601,637.4077 2761.7449,638.4744 Q2762.4297,639.541 2763.7744,639.541 Q2764.4053,639.541 2764.9988,639.2712 Q2765.5923,639.0015 2766.2231,638.4204 Z " fill="#000000"/><text fill="#000000" font-family="sans-serif" font-size="14" lengthAdjust="spacing" textLength="113" x="2784.25" y="640.291">Privado_SegReta</text><line style="stroke:#181818;stroke-width:0.5;" x1="2542.5" x2="3106.5" y1="651" y2="651"/><line style="stroke:#181818;stroke-width:0.5;" x1="2542.5" x2="3106.5" y1="659" y2="659"/><ellipse cx="2552.5" cy="670" fill="#84BE84" rx="3" ry="3" style="stroke:#038048;stroke-width:1.0;"/><text fill="#000000" font-family="sans-serif" font-size="14" lengthAdjust="spacing" textLength="540" x="2561.5" y="676.5352">Privado_SegReta(rotulo:string, paiRef:Objeto, ptoIni:Ponto4D, ptoFim:Ponto4D)</text><ellipse cx="2552.5" cy="686.4883" fill="#84BE84" rx="3" ry="3" style="stroke:#038048;stroke-width:1.0;"/><text fill="#000000" font-family="sans-serif" font-size="14" lengthAdjust="spacing" textLength="196" x="2561.5" y="693.0234">«override» ToString() : string</text></g><!--MD5=[3c0e7ba23ee97378347dee0d1da8e8b4]
reverse link GameWindow to Mundo--><g id="link_GameWindow_Mundo"><path codeLine="9" d="M1024.5,223.6998 C1024.5,280.339 1024.5,378.1968 1024.5,436.8866 " fill="none" id="GameWindow-backto-Mundo" style="stroke:#181818;stroke-width:1.0;"/><polygon fill="none" points="1017.5001,223.5113,1024.5,203.5113,1031.5001,223.5113,1017.5001,223.5113" style="stroke:#181818;stroke-width:1.0;"/></g><!--MD5=[1c7d6ac9039cf66b294ef15b9efc1e1d]
link Objeto to Objeto--><g id="link_Objeto_Objeto"><path codeLine="21" d="M1699.2223,131.7771 C1720.4023,141.0308 1734,156.9385 1734,179.5 C1734,200.2989 1722.4439,215.443 1704.0446,224.9322 " fill="none" id="Objeto-to-Objeto" style="stroke:#181818;stroke-width:1.0;"/><polygon fill="#181818" points="1699.2223,227.2229,1709.068,226.9745,1703.7387,225.0776,1705.6356,219.7483,1699.2223,227.2229" style="stroke:#181818;stroke-width:1.0;"/><text fill="#000000" font-family="sans-serif" font-size="13" lengthAdjust="spacing" textLength="38" x="1707.0826" y="226.2461">PaiRef</text></g><!--MD5=[abb974133f481326665ca9332982bcdd]
link Objeto to Cor--><g id="link_Objeto_Cor"><path codeLine="22" d="M1337.5732,352.1967 C1320.8427,371.9584 1304.4983,392.1434 1289.5,412 C1278.8215,426.1375 1268.2389,442.8112 1259.9212,456.7008 " fill="none" id="Objeto-to-Cor" style="stroke:#181818;stroke-width:1.0;"/><polygon fill="#181818" points="1257.1903,461.2968,1265.2265,455.603,1259.7444,456.9984,1258.349,451.5163,1257.1903,461.2968" style="stroke:#181818;stroke-width:1.0;"/><text fill="#000000" font-family="sans-serif" font-size="13" lengthAdjust="spacing" textLength="64" x="1188.4984" y="450.781">ObjetoCor</text></g><!--MD5=[7e8630a5cd5ea67eab064634d547f460]
link Objeto to PrimitiveType--><g id="link_Objeto_PrimitiveType"><path codeLine="23" d="M1426.1417,352.1741 C1408.9718,392.5895 1392.593,431.1425 1381.9055,456.2994 " fill="none" id="Objeto-to-PrimitiveType" style="stroke:#181818;stroke-width:1.0;"/><polygon fill="#181818" points="1379.8453,461.1487,1387.0461,454.4294,1381.8005,456.5468,1379.6831,451.3012,1379.8453,461.1487" style="stroke:#181818;stroke-width:1.0;"/><text fill="#000000" font-family="sans-serif" font-size="13" lengthAdjust="spacing" textLength="83" x="1288.8619" y="450.595">PrimitivaTipo</text></g><!--MD5=[ff34dbfed28166dc938de446fd84e6c0]
link Objeto to BBox--><g id="link_Objeto_BBox"><path codeLine="24" d="M1499.5,352.1741 C1499.5,392.4211 1499.5,430.8212 1499.5,455.9842 " fill="none" id="Objeto-to-BBox" style="stroke:#181818;stroke-width:1.0;"/><polygon fill="#181818" points="1499.5,461.1487,1503.5,452.1487,1499.5,456.1487,1495.5,452.1487,1499.5,461.1487" style="stroke:#181818;stroke-width:1.0;"/><text fill="#000000" font-family="sans-serif" font-size="13" lengthAdjust="spacing" textLength="30" x="1465.6563" y="450.595">BBox</text></g><!--MD5=[eb8e112c2c51e54a0d2cd39412942130]
link Objeto to Transformacao4D--><g id="link_Objeto_Transformacao4D"><path codeLine="25" d="M1581.887,352.1741 C1601.2505,392.7579 1619.718,431.4638 1631.7174,456.6132 " fill="none" id="Objeto-to-Transformacao4D" style="stroke:#181818;stroke-width:1.0;"/><polygon fill="#181818" points="1633.8814,461.1487,1633.6159,451.3034,1631.7283,456.636,1626.3957,454.7484,1633.8814,461.1487" style="stroke:#181818;stroke-width:1.0;"/><text fill="#000000" font-family="sans-serif" font-size="13" lengthAdjust="spacing" textLength="39" x="1586.9073" y="450.595">Matriz</text></g><!--MD5=[a03c7e7dbc7aa919221c9dfab59c60ca]
reverse link Objeto to ObjetoGeometria--><g id="link_Objeto_ObjetoGeometria"><path codeLine="9" d="M1715.6226,333.6574 C1753.866,360.9359 1792.0407,388.1654 1825.2835,411.877 " fill="none" id="Objeto-backto-ObjetoGeometria" style="stroke:#181818;stroke-width:1.0;"/><polygon fill="none" points="1711.46,339.2866,1699.2425,321.9737,1719.5898,327.8889,1711.46,339.2866" style="stroke:#181818;stroke-width:1.0;"/></g><!--MD5=[003750561b878f79e99cad8c4ca21fdc]
reverse link ObjetoGeometria to Poligono--><g id="link_ObjetoGeometria_Poligono"><path codeLine="5" d="M1738.957,558.9926 C1557.0927,604.9191 1502.586,583.3513 1326.5,619 C1320.6391,620.1865 1314.6693,621.4595 1308.6504,622.7958 " fill="none" id="ObjetoGeometria-backto-Poligono" style="stroke:#181818;stroke-width:1.0;"/><polygon fill="none" points="1737.3379,552.181,1758.4547,553.9374,1740.8517,565.7329,1737.3379,552.181" style="stroke:#181818;stroke-width:1.0;"/></g><!--MD5=[26236c37487edb4672de193cef5bd1db]
reverse link ObjetoGeometria to Retangulo--><g id="link_ObjetoGeometria_Retangulo"><path codeLine="5" d="M1784.2068,569.1901 C1754.3629,586.4995 1724.2173,603.984 1698.5046,618.8973 " fill="none" id="ObjetoGeometria-backto-Retangulo" style="stroke:#181818;stroke-width:1.0;"/><polygon fill="none" points="1780.8951,563.0187,1801.7078,559.0395,1787.9192,575.1291,1780.8951,563.0187" style="stroke:#181818;stroke-width:1.0;"/></g><!--MD5=[17d508597094ccb24ae336549ba236e1]
reverse link ObjetoGeometria to Privado_Circulo--><g id="link_ObjetoGeometria_Privado_Circulo"><path codeLine="5" d="M2072.3122,569.1901 C2102.0567,586.4995 2132.1018,603.984 2157.7287,618.8973 " fill="none" id="ObjetoGeometria-backto-Privado_Circulo" style="stroke:#181818;stroke-width:1.0;"/><polygon fill="none" points="2068.6348,575.1491,2054.8695,559.0395,2075.6764,563.0488,2068.6348,575.1491" style="stroke:#181818;stroke-width:1.0;"/></g><!--MD5=[fba79b035eb861c3c10e58ba51297e23]
reverse link ObjetoGeometria to Privado_SegReta--><g id="link_ObjetoGeometria_Privado_SegReta"><path codeLine="5" d="M2118.3545,522.3691 C2264.146,550.6813 2465.3029,589.7452 2615.6375,618.9396 " fill="none" id="ObjetoGeometria-backto-Privado_SegReta" style="stroke:#181818;stroke-width:1.0;"/><polygon fill="none" points="2116.9104,529.2195,2098.6116,518.5351,2119.5793,515.4762,2116.9104,529.2195" style="stroke:#181818;stroke-width:1.0;"/></g><!--MD5=[048fa5313efe286793146f1afc8c15e5]
@startuml include
!include ./Mundo.puml
!include ./Objeto.puml
!include ./ObjetoGeometria.puml
!include ./Poligono.puml
!include ./Retangulo.puml
!include ./Utilitario.puml
!include ./CG_Privado/Privado_BBox.puml
!include ./CG_Privado/Privado_Circulo.puml
!include ./CG_Privado/Privado_Matematica.puml
!include ./CG_Privado/Privado_SegReta.puml
@enduml

@startuml include
class Mundo {
    + {static} GetInstance(width:int, height:int) : Mundo
    mouseX : int
    mouseY : int
}
class Program {
    {static} Main(args:string[]) : void
}
GameWindow <|- - Mundo
abstract class Objeto {
    + PrimitivaTamanho : float <<get>> <<set>>
    + TrocaEixoRotacao(eixo:char) : void
    + Objeto(rotulo:char, paiRef:Objeto)
    + Desenhar() : void
    + FilhoAdicionar(filho:Objeto) : void
    + FilhoRemover(filho:Objeto) : void
    + GrafocenaBusca(mousePto:Ponto4D) : Objeto
    + GrafocenaRemover() : void
    + GrafocenaToString() : void
    + GrafocenaRemoverPoligonoVazio() : bool
    + PrimitivaTipoTroca() : void
    + AtribuirIdentidade() : void
    + TranslacaoXYZ(tx:double, ty:double, tz:double) : void
    + EscalaXYZ(Sx:double, Sy:double, Sz:double) : void
    + EscalaXYZBBox(Sx:double, Sy:double, Sz:double) : void
    + RotacaoEixo(angulo:double) : void
    + Rotacao(angulo:double) : void
    + RotacaoZBBox(angulo:double) : void
}
Objeto - -> "PaiRef" Objeto
Objeto - -> "ObjetoCor" Cor
Objeto - -> "PrimitivaTipo" PrimitiveType
Objeto - -> "BBox" BBox
Objeto - -> "Matriz" Transformacao4D
abstract class ObjetoGeometria {
    + ObjetoGeometria(rotulo:string, paiRef:Objeto)
    + PontosAdicionar(pto:Ponto4D) : void
    + PontosRemoverUltimo() : void
    + PontosUltimo() : Ponto4D
    + PontosAlterar(pto:Ponto4D, posicao:int) : void
    + <<override>> ToString() : string
}
Objeto <|- - ObjetoGeometria
class Poligono {
    + Poligono(rotulo:char, paiRef:Objeto)
    + <<override>> ToString() : string
}
ObjetoGeometria <|- - Poligono
class Retangulo {
    + Retangulo(rotulo:string, paiRef:Objeto, ptoInfEsq:Ponto4D, ptoSupDir:Ponto4D)
    + <<override>> ToString() : string
}
ObjetoGeometria <|- - Retangulo
abstract class Utilitario {
    + {static} charProximo(atual:char) : char
    + {static} AjudaTeclado() : void
}
abstract class Privado_BBox {
    + {static} Dentro(bBox:BBox, pto:Ponto4D) : bool
}
class Privado_Circulo {
    + Privado_Circulo(rotulo:string, paiRef:Objeto, ptoCentro:Ponto4D, raio:double)
    + <<override>> ToString() : string
}
ObjetoGeometria <|- - Privado_Circulo
abstract class Privado_Matematica {
    + {static} DistanciaEuclidiana(pto1:Ponto4D, pto2:Ponto4D) : double
    + {static} DistanciaEuclidianaSemRaiz(pto1:Ponto4D, pto2:Ponto4D) : double
    + {static} ScanLineInterseccao(yi:double, y1:double, y2:double) : double
    + {static} ScanLineCalculaXi(x1:double, x2:double, ti:double) : double
    + {static} ScanLine(ptoClique:Ponto4D, ptoIni:Ponto4D, ptoFim:Ponto4D) : bool
}
class Privado_SegReta {
    + Privado_SegReta(rotulo:string, paiRef:Objeto, ptoIni:Ponto4D, ptoFim:Ponto4D)
    + <<override>> ToString() : string
}
ObjetoGeometria <|- - Privado_SegReta
@enduml

PlantUML version 1.2022.5(Sat Apr 30 07:55:52 BRT 2022)
(GPL source distribution)
Java Runtime: OpenJDK Runtime Environment
JVM: OpenJDK 64-Bit Server VM
Default Encoding: UTF-8
Language: en
Country: BR
--></g></svg>