<?xml version="1.0" encoding="UTF-8" standalone="no"?><svg xmlns="http://www.w3.org/2000/svg" xmlns:xlink="http://www.w3.org/1999/xlink" contentStyleType="text/css" height="235px" preserveAspectRatio="none" style="width:447px;height:235px;background:#FFFFFF;" version="1.1" viewBox="0 0 447 235" width="447px" zoomAndPan="magnify"><defs/><g><!--MD5=[919386ce46a6a5a7c71af782f732246a]
class Mundo--><g id="elem_Mundo"><rect codeLine="1" fill="#F1F1F1" height="97.4648" id="Mundo" rx="2.5" ry="2.5" style="stroke:#181818;stroke-width:0.5;" width="310" x="7" y="131"/><ellipse cx="133.75" cy="147" fill="#ADD1B2" rx="11" ry="11" style="stroke:#181818;stroke-width:1.0;"/><path d="M136.2231,153.1431 Q135.6421,153.4419 135.0029,153.5913 Q134.3638,153.7407 133.6582,153.7407 Q131.1514,153.7407 129.8315,152.0889 Q128.5117,150.437 128.5117,147.3159 Q128.5117,144.1865 129.8315,142.5347 Q131.1514,140.8828 133.6582,140.8828 Q134.3638,140.8828 135.0112,141.0322 Q135.6587,141.1816 136.2231,141.4805 L136.2231,144.2031 Q135.5923,143.6221 134.9988,143.3523 Q134.4053,143.0825 133.7744,143.0825 Q132.4297,143.0825 131.7449,144.1492 Q131.0601,145.2158 131.0601,147.3159 Q131.0601,149.4077 131.7449,150.4744 Q132.4297,151.541 133.7744,151.541 Q134.4053,151.541 134.9988,151.2712 Q135.5923,151.0015 136.2231,150.4204 Z " fill="#000000"/><text fill="#000000" font-family="sans-serif" font-size="14" lengthAdjust="spacing" textLength="48" x="154.25" y="152.291">Mundo</text><line style="stroke:#181818;stroke-width:0.5;" x1="8" x2="316" y1="163" y2="163"/><text fill="#000000" font-family="sans-serif" font-size="14" lengthAdjust="spacing" textLength="85" x="13" y="180.5352">mouseX : int</text><text fill="#000000" font-family="sans-serif" font-size="14" lengthAdjust="spacing" textLength="85" x="13" y="197.0234">mouseY : int</text><line style="stroke:#181818;stroke-width:0.5;" x1="8" x2="316" y1="203.9766" y2="203.9766"/><ellipse cx="18" cy="214.9766" fill="#84BE84" rx="3" ry="3" style="stroke:#038048;stroke-width:1.0;"/><text fill="#000000" font-family="sans-serif" font-size="14" lengthAdjust="spacing" text-decoration="underline" textLength="284" x="27" y="221.5117">GetInstance(width:int, height:int) : Mundo</text></g><!--MD5=[175f95e045c1a44aed0b30df3abe0e5c]
class Program--><g id="elem_Program"><rect codeLine="6" fill="#F1F1F1" height="64.4883" id="Program" rx="2.5" ry="2.5" style="stroke:#181818;stroke-width:0.5;" width="180" x="260" y="7"/><ellipse cx="316.25" cy="23" fill="#ADD1B2" rx="11" ry="11" style="stroke:#181818;stroke-width:1.0;"/><path d="M318.7231,29.1431 Q318.1421,29.4419 317.5029,29.5913 Q316.8638,29.7407 316.1582,29.7407 Q313.6514,29.7407 312.3315,28.0889 Q311.0117,26.437 311.0117,23.3159 Q311.0117,20.1865 312.3315,18.5347 Q313.6514,16.8828 316.1582,16.8828 Q316.8638,16.8828 317.5112,17.0322 Q318.1587,17.1816 318.7231,17.4805 L318.7231,20.2031 Q318.0923,19.6221 317.4988,19.3523 Q316.9053,19.0825 316.2744,19.0825 Q314.9297,19.0825 314.2449,20.1492 Q313.5601,21.2158 313.5601,23.3159 Q313.5601,25.4077 314.2449,26.4744 Q314.9297,27.541 316.2744,27.541 Q316.9053,27.541 317.4988,27.2712 Q318.0923,27.0015 318.7231,26.4204 Z " fill="#000000"/><text fill="#000000" font-family="sans-serif" font-size="14" lengthAdjust="spacing" textLength="59" x="336.75" y="28.291">Program</text><line style="stroke:#181818;stroke-width:0.5;" x1="261" x2="439" y1="39" y2="39"/><line style="stroke:#181818;stroke-width:0.5;" x1="261" x2="439" y1="47" y2="47"/><text fill="#000000" font-family="sans-serif" font-size="14" lengthAdjust="spacing" text-decoration="underline" textLength="168" x="266" y="64.5352">Main(args:string[]) : void</text></g><!--MD5=[d0074d293e9645ff4ed5f25f47c5773b]
class GameWindow--><g id="elem_GameWindow"><rect fill="#F1F1F1" height="48" id="GameWindow" rx="2.5" ry="2.5" style="stroke:#181818;stroke-width:0.5;" width="125" x="99.5" y="15"/><ellipse cx="114.5" cy="31" fill="#ADD1B2" rx="11" ry="11" style="stroke:#181818;stroke-width:1.0;"/><path d="M116.9731,37.1431 Q116.3921,37.4419 115.7529,37.5913 Q115.1138,37.7407 114.4082,37.7407 Q111.9014,37.7407 110.5815,36.0889 Q109.2617,34.437 109.2617,31.3159 Q109.2617,28.1865 110.5815,26.5347 Q111.9014,24.8828 114.4082,24.8828 Q115.1138,24.8828 115.7612,25.0322 Q116.4087,25.1816 116.9731,25.4805 L116.9731,28.2031 Q116.3423,27.6221 115.7488,27.3523 Q115.1553,27.0825 114.5244,27.0825 Q113.1797,27.0825 112.4949,28.1492 Q111.8101,29.2158 111.8101,31.3159 Q111.8101,33.4077 112.4949,34.4744 Q113.1797,35.541 114.5244,35.541 Q115.1553,35.541 115.7488,35.2712 Q116.3423,35.0015 116.9731,34.4204 Z " fill="#000000"/><text fill="#000000" font-family="sans-serif" font-size="14" lengthAdjust="spacing" textLength="93" x="128.5" y="36.291">GameWindow</text><line style="stroke:#181818;stroke-width:0.5;" x1="100.5" x2="223.5" y1="47" y2="47"/><line style="stroke:#181818;stroke-width:0.5;" x1="100.5" x2="223.5" y1="55" y2="55"/></g><!--MD5=[3c0e7ba23ee97378347dee0d1da8e8b4]
reverse link GameWindow to Mundo--><g id="link_GameWindow_Mundo"><path codeLine="9" d="M162,83.2928 C162,98.4491 162,115.481 162,130.955 " fill="none" id="GameWindow-backto-Mundo" style="stroke:#181818;stroke-width:1.0;"/><polygon fill="none" points="155.0001,83.1528,162,63.1528,169.0001,83.1528,155.0001,83.1528" style="stroke:#181818;stroke-width:1.0;"/></g><!--MD5=[bc0887fd1a0cf1b0be7771a5cf9ad324]
@startuml Mundo
class Mundo {
    + {static} GetInstance(width:int, height:int) : Mundo
    mouseX : int
    mouseY : int
}
class Program {
    {static} Main(args:string[]) : void
}
GameWindow <|- - Mundo
@enduml

PlantUML version 1.2022.5(Sat Apr 30 07:55:52 BRT 2022)
(GPL source distribution)
Java Runtime: OpenJDK Runtime Environment
JVM: OpenJDK 64-Bit Server VM
Default Encoding: UTF-8
Language: en
Country: BR
--></g></svg>