<?xml version="1.0" encoding="UTF-8" standalone="no"?><svg xmlns="http://www.w3.org/2000/svg" xmlns:xlink="http://www.w3.org/1999/xlink" contentStyleType="text/css" height="467px" preserveAspectRatio="none" style="width:542px;height:467px;background:#FFFFFF;" version="1.1" viewBox="0 0 542 467" width="542px" zoomAndPan="magnify"><defs/><g><!--MD5=[3051a6a8f877a755a60c7cfd1e6f410a]
class Objeto--><g id="elem_Objeto"><rect codeLine="1" fill="#F1F1F1" height="344.7891" id="Objeto" rx="2.5" ry="2.5" style="stroke:#181818;stroke-width:0.5;" width="399" x="47.0254" y="7"/><ellipse cx="219.2754" cy="23" fill="#A9DCDF" rx="11" ry="11" style="stroke:#181818;stroke-width:1.0;"/><path d="M219.1387,18.3481 L217.9849,23.4199 L220.3008,23.4199 Z M217.6446,16.1069 L220.6412,16.1069 L223.9864,28.5 L221.5376,28.5 L220.774,25.437 L217.4952,25.437 L216.7481,28.5 L214.2994,28.5 Z " fill="#000000"/><text fill="#000000" font-family="sans-serif" font-size="14" font-style="italic" lengthAdjust="spacing" textLength="46" x="239.7754" y="28.291">Objeto</text><line style="stroke:#181818;stroke-width:0.5;" x1="48.0254" x2="445.0254" y1="39" y2="39"/><ellipse cx="58.0254" cy="50" fill="none" rx="3" ry="3" style="stroke:#038048;stroke-width:1.0;"/><text fill="#000000" font-family="sans-serif" font-size="14" lengthAdjust="spacing" textLength="245" x="67.0254" y="56.5352">PrimitivaTamanho : float «get» «set»</text><line style="stroke:#181818;stroke-width:0.5;" x1="48.0254" x2="445.0254" y1="63.4883" y2="63.4883"/><ellipse cx="58.0254" cy="74.4883" fill="#84BE84" rx="3" ry="3" style="stroke:#038048;stroke-width:1.0;"/><text fill="#000000" font-family="sans-serif" font-size="14" lengthAdjust="spacing" textLength="239" x="67.0254" y="81.0234">TrocaEixoRotacao(eixo:char) : void</text><ellipse cx="58.0254" cy="90.9766" fill="#84BE84" rx="3" ry="3" style="stroke:#038048;stroke-width:1.0;"/><text fill="#000000" font-family="sans-serif" font-size="14" lengthAdjust="spacing" textLength="233" x="67.0254" y="97.5117">Objeto(rotulo:char, paiRef:Objeto)</text><ellipse cx="58.0254" cy="107.4648" fill="#84BE84" rx="3" ry="3" style="stroke:#038048;stroke-width:1.0;"/><text fill="#000000" font-family="sans-serif" font-size="14" lengthAdjust="spacing" textLength="116" x="67.0254" y="114">Desenhar() : void</text><ellipse cx="58.0254" cy="123.9531" fill="#84BE84" rx="3" ry="3" style="stroke:#038048;stroke-width:1.0;"/><text fill="#000000" font-family="sans-serif" font-size="14" lengthAdjust="spacing" textLength="232" x="67.0254" y="130.4883">FilhoAdicionar(filho:Objeto) : void</text><ellipse cx="58.0254" cy="140.4414" fill="#84BE84" rx="3" ry="3" style="stroke:#038048;stroke-width:1.0;"/><text fill="#000000" font-family="sans-serif" font-size="14" lengthAdjust="spacing" textLength="226" x="67.0254" y="146.9766">FilhoRemover(filho:Objeto) : void</text><ellipse cx="58.0254" cy="156.9297" fill="#84BE84" rx="3" ry="3" style="stroke:#038048;stroke-width:1.0;"/><text fill="#000000" font-family="sans-serif" font-size="14" lengthAdjust="spacing" textLength="308" x="67.0254" y="163.4648">GrafocenaBusca(mousePto:Ponto4D) : Objeto</text><ellipse cx="58.0254" cy="173.418" fill="#84BE84" rx="3" ry="3" style="stroke:#038048;stroke-width:1.0;"/><text fill="#000000" font-family="sans-serif" font-size="14" lengthAdjust="spacing" textLength="181" x="67.0254" y="179.9531">GrafocenaRemover() : void</text><ellipse cx="58.0254" cy="189.9063" fill="#84BE84" rx="3" ry="3" style="stroke:#038048;stroke-width:1.0;"/><text fill="#000000" font-family="sans-serif" font-size="14" lengthAdjust="spacing" textLength="180" x="67.0254" y="196.4414">GrafocenaToString() : void</text><ellipse cx="58.0254" cy="206.3945" fill="#84BE84" rx="3" ry="3" style="stroke:#038048;stroke-width:1.0;"/><text fill="#000000" font-family="sans-serif" font-size="14" lengthAdjust="spacing" textLength="282" x="67.0254" y="212.9297">GrafocenaRemoverPoligonoVazio() : bool</text><ellipse cx="58.0254" cy="222.8828" fill="#84BE84" rx="3" ry="3" style="stroke:#038048;stroke-width:1.0;"/><text fill="#000000" font-family="sans-serif" font-size="14" lengthAdjust="spacing" textLength="180" x="67.0254" y="229.418">PrimitivaTipoTroca() : void</text><ellipse cx="58.0254" cy="239.3711" fill="#84BE84" rx="3" ry="3" style="stroke:#038048;stroke-width:1.0;"/><text fill="#000000" font-family="sans-serif" font-size="14" lengthAdjust="spacing" textLength="177" x="67.0254" y="245.9063">AtribuirIdentidade() : void</text><ellipse cx="58.0254" cy="255.8594" fill="#84BE84" rx="3" ry="3" style="stroke:#038048;stroke-width:1.0;"/><text fill="#000000" font-family="sans-serif" font-size="14" lengthAdjust="spacing" textLength="363" x="67.0254" y="262.3945">TranslacaoXYZ(tx:double, ty:double, tz:double) : void</text><ellipse cx="58.0254" cy="272.3477" fill="#84BE84" rx="3" ry="3" style="stroke:#038048;stroke-width:1.0;"/><text fill="#000000" font-family="sans-serif" font-size="14" lengthAdjust="spacing" textLength="339" x="67.0254" y="278.8828">EscalaXYZ(Sx:double, Sy:double, Sz:double) : void</text><ellipse cx="58.0254" cy="288.8359" fill="#84BE84" rx="3" ry="3" style="stroke:#038048;stroke-width:1.0;"/><text fill="#000000" font-family="sans-serif" font-size="14" lengthAdjust="spacing" textLength="373" x="67.0254" y="295.3711">EscalaXYZBBox(Sx:double, Sy:double, Sz:double) : void</text><ellipse cx="58.0254" cy="305.3242" fill="#84BE84" rx="3" ry="3" style="stroke:#038048;stroke-width:1.0;"/><text fill="#000000" font-family="sans-serif" font-size="14" lengthAdjust="spacing" textLength="236" x="67.0254" y="311.8594">RotacaoEixo(angulo:double) : void</text><ellipse cx="58.0254" cy="321.8125" fill="#84BE84" rx="3" ry="3" style="stroke:#038048;stroke-width:1.0;"/><text fill="#000000" font-family="sans-serif" font-size="14" lengthAdjust="spacing" textLength="206" x="67.0254" y="328.3477">Rotacao(angulo:double) : void</text><ellipse cx="58.0254" cy="338.3008" fill="#84BE84" rx="3" ry="3" style="stroke:#038048;stroke-width:1.0;"/><text fill="#000000" font-family="sans-serif" font-size="14" lengthAdjust="spacing" textLength="248" x="67.0254" y="344.8359">RotacaoZBBox(angulo:double) : void</text></g><!--MD5=[9ac43fafcd0ede942dc8e681a30a1b52]
class Cor--><g id="elem_Cor"><rect fill="#F1F1F1" height="48" id="Cor" rx="2.5" ry="2.5" style="stroke:#181818;stroke-width:0.5;" width="57" x="27.0254" y="412"/><ellipse cx="42.0254" cy="428" fill="#ADD1B2" rx="11" ry="11" style="stroke:#181818;stroke-width:1.0;"/><path d="M44.4986,434.1431 Q43.9175,434.4419 43.2784,434.5913 Q42.6392,434.7407 41.9336,434.7407 Q39.4268,434.7407 38.107,433.0889 Q36.7872,431.437 36.7872,428.3159 Q36.7872,425.1865 38.107,423.5347 Q39.4268,421.8828 41.9336,421.8828 Q42.6392,421.8828 43.2867,422.0322 Q43.9341,422.1816 44.4986,422.4805 L44.4986,425.2031 Q43.8677,424.6221 43.2742,424.3523 Q42.6807,424.0825 42.0499,424.0825 Q40.7051,424.0825 40.0203,425.1492 Q39.3355,426.2158 39.3355,428.3159 Q39.3355,430.4077 40.0203,431.4744 Q40.7051,432.541 42.0499,432.541 Q42.6807,432.541 43.2742,432.2712 Q43.8677,432.0015 44.4986,431.4204 Z " fill="#000000"/><text fill="#000000" font-family="sans-serif" font-size="14" lengthAdjust="spacing" textLength="25" x="56.0254" y="433.291">Cor</text><line style="stroke:#181818;stroke-width:0.5;" x1="28.0254" x2="83.0254" y1="444" y2="444"/><line style="stroke:#181818;stroke-width:0.5;" x1="28.0254" x2="83.0254" y1="452" y2="452"/></g><!--MD5=[38e8fced9e943fac45fdba9ac5db991f]
class PrimitiveType--><g id="elem_PrimitiveType"><rect fill="#F1F1F1" height="48" id="PrimitiveType" rx="2.5" ry="2.5" style="stroke:#181818;stroke-width:0.5;" width="124" x="119.5254" y="412"/><ellipse cx="134.5254" cy="428" fill="#ADD1B2" rx="11" ry="11" style="stroke:#181818;stroke-width:1.0;"/><path d="M136.9986,434.1431 Q136.4175,434.4419 135.7784,434.5913 Q135.1392,434.7407 134.4336,434.7407 Q131.9268,434.7407 130.607,433.0889 Q129.2872,431.437 129.2872,428.3159 Q129.2872,425.1865 130.607,423.5347 Q131.9268,421.8828 134.4336,421.8828 Q135.1392,421.8828 135.7867,422.0322 Q136.4341,422.1816 136.9986,422.4805 L136.9986,425.2031 Q136.3677,424.6221 135.7742,424.3523 Q135.1807,424.0825 134.5499,424.0825 Q133.2051,424.0825 132.5203,425.1492 Q131.8355,426.2158 131.8355,428.3159 Q131.8355,430.4077 132.5203,431.4744 Q133.2051,432.541 134.5499,432.541 Q135.1807,432.541 135.7742,432.2712 Q136.3677,432.0015 136.9986,431.4204 Z " fill="#000000"/><text fill="#000000" font-family="sans-serif" font-size="14" lengthAdjust="spacing" textLength="92" x="148.5254" y="433.291">PrimitiveType</text><line style="stroke:#181818;stroke-width:0.5;" x1="120.5254" x2="242.5254" y1="444" y2="444"/><line style="stroke:#181818;stroke-width:0.5;" x1="120.5254" x2="242.5254" y1="452" y2="452"/></g><!--MD5=[ea10f8dc465baf5e542f54928f2443c8]
class BBox--><g id="elem_BBox"><rect fill="#F1F1F1" height="48" id="BBox" rx="2.5" ry="2.5" style="stroke:#181818;stroke-width:0.5;" width="66" x="278.5254" y="412"/><ellipse cx="293.5254" cy="428" fill="#ADD1B2" rx="11" ry="11" style="stroke:#181818;stroke-width:1.0;"/><path d="M295.9986,434.1431 Q295.4175,434.4419 294.7784,434.5913 Q294.1392,434.7407 293.4336,434.7407 Q290.9268,434.7407 289.607,433.0889 Q288.2872,431.437 288.2872,428.3159 Q288.2872,425.1865 289.607,423.5347 Q290.9268,421.8828 293.4336,421.8828 Q294.1392,421.8828 294.7867,422.0322 Q295.4341,422.1816 295.9986,422.4805 L295.9986,425.2031 Q295.3677,424.6221 294.7742,424.3523 Q294.1807,424.0825 293.5499,424.0825 Q292.2051,424.0825 291.5203,425.1492 Q290.8355,426.2158 290.8355,428.3159 Q290.8355,430.4077 291.5203,431.4744 Q292.2051,432.541 293.5499,432.541 Q294.1807,432.541 294.7742,432.2712 Q295.3677,432.0015 295.9986,431.4204 Z " fill="#000000"/><text fill="#000000" font-family="sans-serif" font-size="14" lengthAdjust="spacing" textLength="34" x="307.5254" y="433.291">BBox</text><line style="stroke:#181818;stroke-width:0.5;" x1="279.5254" x2="343.5254" y1="444" y2="444"/><line style="stroke:#181818;stroke-width:0.5;" x1="279.5254" x2="343.5254" y1="452" y2="452"/></g><!--MD5=[6746db26fbf3328699b5b65a634cc0f3]
class Transformacao4D--><g id="elem_Transformacao4D"><rect fill="#F1F1F1" height="48" id="Transformacao4D" rx="2.5" ry="2.5" style="stroke:#181818;stroke-width:0.5;" width="155" x="380.0254" y="412"/><ellipse cx="395.0254" cy="428" fill="#ADD1B2" rx="11" ry="11" style="stroke:#181818;stroke-width:1.0;"/><path d="M397.4986,434.1431 Q396.9175,434.4419 396.2784,434.5913 Q395.6392,434.7407 394.9336,434.7407 Q392.4268,434.7407 391.107,433.0889 Q389.7872,431.437 389.7872,428.3159 Q389.7872,425.1865 391.107,423.5347 Q392.4268,421.8828 394.9336,421.8828 Q395.6392,421.8828 396.2867,422.0322 Q396.9341,422.1816 397.4986,422.4805 L397.4986,425.2031 Q396.8677,424.6221 396.2742,424.3523 Q395.6807,424.0825 395.0499,424.0825 Q393.7051,424.0825 393.0203,425.1492 Q392.3355,426.2158 392.3355,428.3159 Q392.3355,430.4077 393.0203,431.4744 Q393.7051,432.541 395.0499,432.541 Q395.6807,432.541 396.2742,432.2712 Q396.8677,432.0015 397.4986,431.4204 Z " fill="#000000"/><text fill="#000000" font-family="sans-serif" font-size="14" lengthAdjust="spacing" textLength="123" x="409.0254" y="433.291">Transformacao4D</text><line style="stroke:#181818;stroke-width:0.5;" x1="381.0254" x2="534.0254" y1="444" y2="444"/><line style="stroke:#181818;stroke-width:0.5;" x1="381.0254" x2="534.0254" y1="452" y2="452"/></g><!--MD5=[1c7d6ac9039cf66b294ef15b9efc1e1d]
link Objeto to Objeto--><g id="link_Objeto_Objeto"><path codeLine="21" d="M446.2476,139.575 C467.4276,147.3167 481.0254,160.625 481.0254,179.5 C481.0254,196.9004 469.4693,209.5699 451.07,217.5087 " fill="none" id="Objeto-to-Objeto" style="stroke:#181818;stroke-width:1.0;"/><polygon fill="#181818" points="446.2476,219.425,456.0886,219.8184,450.8942,217.5784,453.1342,212.384,446.2476,219.425" style="stroke:#181818;stroke-width:1.0;"/><text fill="#000000" font-family="sans-serif" font-size="13" lengthAdjust="spacing" textLength="38" x="454.108" y="218.168">PaiRef</text></g><!--MD5=[abb974133f481326665ca9332982bcdd]
link Objeto to Cor--><g id="link_Objeto_Cor"><path codeLine="22" d="M118.0659,352.0123 C102.1519,373.3837 87.6297,392.886 76.5934,407.707 " fill="none" id="Objeto-to-Cor" style="stroke:#181818;stroke-width:1.0;"/><polygon fill="#181818" points="73.5748,411.7608,82.1583,406.9313,76.5611,407.7505,75.7419,402.1533,73.5748,411.7608" style="stroke:#181818;stroke-width:1.0;"/><text fill="#000000" font-family="sans-serif" font-size="13" lengthAdjust="spacing" textLength="64" x="6" y="401.2358">ObjetoCor</text></g><!--MD5=[7e8630a5cd5ea67eab064634d547f460]
link Objeto to PrimitiveType--><g id="link_Objeto_PrimitiveType"><path codeLine="23" d="M202.8088,352.0123 C197.5319,372.8357 192.7047,391.8846 188.9864,406.5577 " fill="none" id="Objeto-to-PrimitiveType" style="stroke:#181818;stroke-width:1.0;"/><polygon fill="#181818" points="187.6678,411.7608,193.7562,404.0192,188.8961,406.914,186.0014,402.054,187.6678,411.7608" style="stroke:#181818;stroke-width:1.0;"/><text fill="#000000" font-family="sans-serif" font-size="13" lengthAdjust="spacing" textLength="83" x="95.6075" y="401.2358">PrimitivaTipo</text></g><!--MD5=[ff34dbfed28166dc938de446fd84e6c0]
link Objeto to BBox--><g id="link_Objeto_BBox"><path codeLine="24" d="M290.2419,352.0123 C295.5188,372.8357 300.346,391.8846 304.0644,406.5577 " fill="none" id="Objeto-to-BBox" style="stroke:#181818;stroke-width:1.0;"/><polygon fill="#181818" points="305.3829,411.7608,307.0494,402.054,304.1546,406.914,299.2946,404.0192,305.3829,411.7608" style="stroke:#181818;stroke-width:1.0;"/><text fill="#000000" font-family="sans-serif" font-size="13" lengthAdjust="spacing" textLength="30" x="269.9652" y="401.2358">BBox</text></g><!--MD5=[eb8e112c2c51e54a0d2cd39412942130]
link Objeto to Transformacao4D--><g id="link_Objeto_Transformacao4D"><path codeLine="25" d="M388.4361,352.0123 C406.0164,373.3837 422.0592,392.886 434.2512,407.707 " fill="none" id="Objeto-to-Transformacao4D" style="stroke:#181818;stroke-width:1.0;"/><polygon fill="#181818" points="437.5859,411.7608,434.9571,402.2693,434.4094,407.8995,428.7791,407.3518,437.5859,411.7608" style="stroke:#181818;stroke-width:1.0;"/><text fill="#000000" font-family="sans-serif" font-size="13" lengthAdjust="spacing" textLength="39" x="388.4796" y="401.2358">Matriz</text></g><!--MD5=[7165a1ca84de24bf369d6bb13319b46b]
@startuml Objeto
abstract class Objeto {
    + PrimitivaTamanho : float <<get>> <<set>>
    + TrocaEixoRotacao(eixo:char) : void
    + Objeto(rotulo:char, paiRef:Objeto)
    + Desenhar() : void
    + FilhoAdicionar(filho:Objeto) : void
    + FilhoRemover(filho:Objeto) : void
    + GrafocenaBusca(mousePto:Ponto4D) : Objeto
    + GrafocenaRemover() : void
    + GrafocenaToString() : void
    + GrafocenaRemoverPoligonoVazio() : bool
    + PrimitivaTipoTroca() : void
    + AtribuirIdentidade() : void
    + TranslacaoXYZ(tx:double, ty:double, tz:double) : void
    + EscalaXYZ(Sx:double, Sy:double, Sz:double) : void
    + EscalaXYZBBox(Sx:double, Sy:double, Sz:double) : void
    + RotacaoEixo(angulo:double) : void
    + Rotacao(angulo:double) : void
    + RotacaoZBBox(angulo:double) : void
}
Objeto - -> "PaiRef" Objeto
Objeto - -> "ObjetoCor" Cor
Objeto - -> "PrimitivaTipo" PrimitiveType
Objeto - -> "BBox" BBox
Objeto - -> "Matriz" Transformacao4D
@enduml

PlantUML version 1.2022.5(Sat Apr 30 07:55:52 BRT 2022)
(GPL source distribution)
Java Runtime: OpenJDK Runtime Environment
JVM: OpenJDK 64-Bit Server VM
Default Encoding: UTF-8
Language: en
Country: BR
--></g></svg>