<?xml version="1.0" encoding="UTF-8" standalone="no"?><svg xmlns="http://www.w3.org/2000/svg" xmlns:xlink="http://www.w3.org/1999/xlink" contentStyleType="text/css" height="268px" preserveAspectRatio="none" style="width:354px;height:268px;background:#FFFFFF;" version="1.1" viewBox="0 0 354 268" width="354px" zoomAndPan="magnify"><defs/><g><!--MD5=[8b9e0d00865063ef789ad294aa32e6ea]
class ObjetoGeometria--><g id="elem_ObjetoGeometria"><rect codeLine="1" fill="#F1F1F1" height="146.9297" id="ObjetoGeometria" rx="2.5" ry="2.5" style="stroke:#181818;stroke-width:0.5;" width="340" x="7" y="115"/><ellipse cx="114.25" cy="131" fill="#A9DCDF" rx="11" ry="11" style="stroke:#181818;stroke-width:1.0;"/><path d="M114.1133,126.3481 L112.9595,131.4199 L115.2754,131.4199 Z M112.6191,124.1069 L115.6157,124.1069 L118.9609,136.5 L116.5122,136.5 L115.7485,133.437 L112.4697,133.437 L111.7227,136.5 L109.2739,136.5 Z " fill="#000000"/><text fill="#000000" font-family="sans-serif" font-size="14" font-style="italic" lengthAdjust="spacing" textLength="117" x="134.75" y="136.291">ObjetoGeometria</text><line style="stroke:#181818;stroke-width:0.5;" x1="8" x2="346" y1="147" y2="147"/><line style="stroke:#181818;stroke-width:0.5;" x1="8" x2="346" y1="155" y2="155"/><ellipse cx="18" cy="166" fill="#84BE84" rx="3" ry="3" style="stroke:#038048;stroke-width:1.0;"/><text fill="#000000" font-family="sans-serif" font-size="14" lengthAdjust="spacing" textLength="314" x="27" y="172.5352">ObjetoGeometria(rotulo:string, paiRef:Objeto)</text><ellipse cx="18" cy="182.4883" fill="#84BE84" rx="3" ry="3" style="stroke:#038048;stroke-width:1.0;"/><text fill="#000000" font-family="sans-serif" font-size="14" lengthAdjust="spacing" textLength="250" x="27" y="189.0234">PontosAdicionar(pto:Ponto4D) : void</text><ellipse cx="18" cy="198.9766" fill="#84BE84" rx="3" ry="3" style="stroke:#038048;stroke-width:1.0;"/><text fill="#000000" font-family="sans-serif" font-size="14" lengthAdjust="spacing" textLength="203" x="27" y="205.5117">PontosRemoverUltimo() : void</text><ellipse cx="18" cy="215.4648" fill="#84BE84" rx="3" ry="3" style="stroke:#038048;stroke-width:1.0;"/><text fill="#000000" font-family="sans-serif" font-size="14" lengthAdjust="spacing" textLength="173" x="27" y="222">PontosUltimo() : Ponto4D</text><ellipse cx="18" cy="231.9531" fill="#84BE84" rx="3" ry="3" style="stroke:#038048;stroke-width:1.0;"/><text fill="#000000" font-family="sans-serif" font-size="14" lengthAdjust="spacing" textLength="314" x="27" y="238.4883">PontosAlterar(pto:Ponto4D, posicao:int) : void</text><ellipse cx="18" cy="248.4414" fill="#84BE84" rx="3" ry="3" style="stroke:#038048;stroke-width:1.0;"/><text fill="#000000" font-family="sans-serif" font-size="14" lengthAdjust="spacing" textLength="196" x="27" y="254.9766">«override» ToString() : string</text></g><!--MD5=[3051a6a8f877a755a60c7cfd1e6f410a]
class Objeto--><g id="elem_Objeto"><rect fill="#F1F1F1" height="48" id="Objeto" rx="2.5" ry="2.5" style="stroke:#181818;stroke-width:0.5;" width="78" x="138" y="7"/><ellipse cx="153" cy="23" fill="#ADD1B2" rx="11" ry="11" style="stroke:#181818;stroke-width:1.0;"/><path d="M155.4731,29.1431 Q154.8921,29.4419 154.2529,29.5913 Q153.6138,29.7407 152.9082,29.7407 Q150.4014,29.7407 149.0815,28.0889 Q147.7617,26.437 147.7617,23.3159 Q147.7617,20.1865 149.0815,18.5347 Q150.4014,16.8828 152.9082,16.8828 Q153.6138,16.8828 154.2612,17.0322 Q154.9087,17.1816 155.4731,17.4805 L155.4731,20.2031 Q154.8423,19.6221 154.2488,19.3523 Q153.6553,19.0825 153.0244,19.0825 Q151.6797,19.0825 150.9949,20.1492 Q150.3101,21.2158 150.3101,23.3159 Q150.3101,25.4077 150.9949,26.4744 Q151.6797,27.541 153.0244,27.541 Q153.6553,27.541 154.2488,27.2712 Q154.8423,27.0015 155.4731,26.4204 Z " fill="#000000"/><text fill="#000000" font-family="sans-serif" font-size="14" lengthAdjust="spacing" textLength="46" x="167" y="28.291">Objeto</text><line style="stroke:#181818;stroke-width:0.5;" x1="139" x2="215" y1="39" y2="39"/><line style="stroke:#181818;stroke-width:0.5;" x1="139" x2="215" y1="47" y2="47"/></g><!--MD5=[a03c7e7dbc7aa919221c9dfab59c60ca]
reverse link Objeto to ObjetoGeometria--><g id="link_Objeto_ObjetoGeometria"><path codeLine="9" d="M177,75.4801 C177,87.723 177,101.3387 177,114.7596 " fill="none" id="Objeto-backto-ObjetoGeometria" style="stroke:#181818;stroke-width:1.0;"/><polygon fill="none" points="170.0001,75.2642,177,55.2642,184.0001,75.2642,170.0001,75.2642" style="stroke:#181818;stroke-width:1.0;"/></g><!--MD5=[600e233533a07754ce7e8418b89f1a69]
@startuml ObjetoGeometria
abstract class ObjetoGeometria {
    + ObjetoGeometria(rotulo:string, paiRef:Objeto)
    + PontosAdicionar(pto:Ponto4D) : void
    + PontosRemoverUltimo() : void
    + PontosUltimo() : Ponto4D
    + PontosAlterar(pto:Ponto4D, posicao:int) : void
    + <<override>> ToString() : string
}
Objeto <|- - ObjetoGeometria
@enduml

PlantUML version 1.2022.5(Sat Apr 30 07:55:52 BRT 2022)
(GPL source distribution)
Java Runtime: OpenJDK Runtime Environment
JVM: OpenJDK 64-Bit Server VM
Default Encoding: UTF-8
Language: en
Country: BR
--></g></svg>