<?xml version="1.0" encoding="UTF-8" standalone="no"?><svg xmlns="http://www.w3.org/2000/svg" xmlns:xlink="http://www.w3.org/1999/xlink" contentStyleType="text/css" height="202px" preserveAspectRatio="none" style="width:288px;height:202px;background:#FFFFFF;" version="1.1" viewBox="0 0 288 202" width="288px" zoomAndPan="magnify"><defs/><g><!--MD5=[14270d418d81d90ef0399f0e3d0d5129]
class Poligono--><g id="elem_Poligono"><rect codeLine="1" fill="#F1F1F1" height="80.9766" id="Poligono" rx="2.5" ry="2.5" style="stroke:#181818;stroke-width:0.5;" width="274" x="7" y="115"/><ellipse cx="109.25" cy="131" fill="#ADD1B2" rx="11" ry="11" style="stroke:#181818;stroke-width:1.0;"/><path d="M111.7231,137.1431 Q111.1421,137.4419 110.5029,137.5913 Q109.8638,137.7407 109.1582,137.7407 Q106.6514,137.7407 105.3315,136.0889 Q104.0117,134.437 104.0117,131.3159 Q104.0117,128.1865 105.3315,126.5347 Q106.6514,124.8828 109.1582,124.8828 Q109.8638,124.8828 110.5112,125.0322 Q111.1587,125.1816 111.7231,125.4805 L111.7231,128.2031 Q111.0923,127.6221 110.4988,127.3523 Q109.9053,127.0825 109.2744,127.0825 Q107.9297,127.0825 107.2449,128.1492 Q106.5601,129.2158 106.5601,131.3159 Q106.5601,133.4077 107.2449,134.4744 Q107.9297,135.541 109.2744,135.541 Q109.9053,135.541 110.4988,135.2712 Q111.0923,135.0015 111.7231,134.4204 Z " fill="#000000"/><text fill="#000000" font-family="sans-serif" font-size="14" lengthAdjust="spacing" textLength="61" x="129.75" y="136.291">Poligono</text><line style="stroke:#181818;stroke-width:0.5;" x1="8" x2="280" y1="147" y2="147"/><line style="stroke:#181818;stroke-width:0.5;" x1="8" x2="280" y1="155" y2="155"/><ellipse cx="18" cy="166" fill="#84BE84" rx="3" ry="3" style="stroke:#038048;stroke-width:1.0;"/><text fill="#000000" font-family="sans-serif" font-size="14" lengthAdjust="spacing" textLength="248" x="27" y="172.5352">Poligono(rotulo:char, paiRef:Objeto)</text><ellipse cx="18" cy="182.4883" fill="#84BE84" rx="3" ry="3" style="stroke:#038048;stroke-width:1.0;"/><text fill="#000000" font-family="sans-serif" font-size="14" lengthAdjust="spacing" textLength="196" x="27" y="189.0234">«override» ToString() : string</text></g><!--MD5=[8b9e0d00865063ef789ad294aa32e6ea]
class ObjetoGeometria--><g id="elem_ObjetoGeometria"><rect fill="#F1F1F1" height="48" id="ObjetoGeometria" rx="2.5" ry="2.5" style="stroke:#181818;stroke-width:0.5;" width="149" x="69.5" y="7"/><ellipse cx="84.5" cy="23" fill="#ADD1B2" rx="11" ry="11" style="stroke:#181818;stroke-width:1.0;"/><path d="M86.9731,29.1431 Q86.3921,29.4419 85.7529,29.5913 Q85.1138,29.7407 84.4082,29.7407 Q81.9014,29.7407 80.5815,28.0889 Q79.2617,26.437 79.2617,23.3159 Q79.2617,20.1865 80.5815,18.5347 Q81.9014,16.8828 84.4082,16.8828 Q85.1138,16.8828 85.7612,17.0322 Q86.4087,17.1816 86.9731,17.4805 L86.9731,20.2031 Q86.3423,19.6221 85.7488,19.3523 Q85.1553,19.0825 84.5244,19.0825 Q83.1797,19.0825 82.4949,20.1492 Q81.8101,21.2158 81.8101,23.3159 Q81.8101,25.4077 82.4949,26.4744 Q83.1797,27.541 84.5244,27.541 Q85.1553,27.541 85.7488,27.2712 Q86.3423,27.0015 86.9731,26.4204 Z " fill="#000000"/><text fill="#000000" font-family="sans-serif" font-size="14" lengthAdjust="spacing" textLength="117" x="98.5" y="28.291">ObjetoGeometria</text><line style="stroke:#181818;stroke-width:0.5;" x1="70.5" x2="217.5" y1="39" y2="39"/><line style="stroke:#181818;stroke-width:0.5;" x1="70.5" x2="217.5" y1="47" y2="47"/></g><!--MD5=[003750561b878f79e99cad8c4ca21fdc]
reverse link ObjetoGeometria to Poligono--><g id="link_ObjetoGeometria_Poligono"><path codeLine="5" d="M144,75.2419 C144,88.1649 144,102.221 144,114.9063 " fill="none" id="ObjetoGeometria-backto-Poligono" style="stroke:#181818;stroke-width:1.0;"/><polygon fill="none" points="137.0001,75.0049,144,55.0049,151.0001,75.0048,137.0001,75.0049" style="stroke:#181818;stroke-width:1.0;"/></g><!--MD5=[10839164856fd75141633922f1d3bfd6]
@startuml Poligono
class Poligono {
    + Poligono(rotulo:char, paiRef:Objeto)
    + <<override>> ToString() : string
}
ObjetoGeometria <|- - Poligono
@enduml

PlantUML version 1.2022.5(Sat Apr 30 07:55:52 BRT 2022)
(GPL source distribution)
Java Runtime: OpenJDK Runtime Environment
JVM: OpenJDK 64-Bit Server VM
Default Encoding: UTF-8
Language: en
Country: BR
--></g></svg>