<?xml version="1.0" encoding="UTF-8" standalone="no"?><svg xmlns="http://www.w3.org/2000/svg" xmlns:xlink="http://www.w3.org/1999/xlink" contentStyleType="text/css" height="202px" preserveAspectRatio="none" style="width:583px;height:202px;background:#FFFFFF;" version="1.1" viewBox="0 0 583 202" width="583px" zoomAndPan="magnify"><defs/><g><!--MD5=[b6968d6f0311dc2ba07018bef6e7bfd3]
class Retangulo--><g id="elem_Retangulo"><rect codeLine="1" fill="#F1F1F1" height="80.9766" id="Retangulo" rx="2.5" ry="2.5" style="stroke:#181818;stroke-width:0.5;" width="569" x="7" y="115"/><ellipse cx="252.25" cy="131" fill="#ADD1B2" rx="11" ry="11" style="stroke:#181818;stroke-width:1.0;"/><path d="M254.7231,137.1431 Q254.1421,137.4419 253.5029,137.5913 Q252.8638,137.7407 252.1582,137.7407 Q249.6514,137.7407 248.3315,136.0889 Q247.0117,134.437 247.0117,131.3159 Q247.0117,128.1865 248.3315,126.5347 Q249.6514,124.8828 252.1582,124.8828 Q252.8638,124.8828 253.5112,125.0322 Q254.1587,125.1816 254.7231,125.4805 L254.7231,128.2031 Q254.0923,127.6221 253.4988,127.3523 Q252.9053,127.0825 252.2744,127.0825 Q250.9297,127.0825 250.2449,128.1492 Q249.5601,129.2158 249.5601,131.3159 Q249.5601,133.4077 250.2449,134.4744 Q250.9297,135.541 252.2744,135.541 Q252.9053,135.541 253.4988,135.2712 Q254.0923,135.0015 254.7231,134.4204 Z " fill="#000000"/><text fill="#000000" font-family="sans-serif" font-size="14" lengthAdjust="spacing" textLength="70" x="272.75" y="136.291">Retangulo</text><line style="stroke:#181818;stroke-width:0.5;" x1="8" x2="575" y1="147" y2="147"/><line style="stroke:#181818;stroke-width:0.5;" x1="8" x2="575" y1="155" y2="155"/><ellipse cx="18" cy="166" fill="#84BE84" rx="3" ry="3" style="stroke:#038048;stroke-width:1.0;"/><text fill="#000000" font-family="sans-serif" font-size="14" lengthAdjust="spacing" textLength="543" x="27" y="172.5352">Retangulo(rotulo:string, paiRef:Objeto, ptoInfEsq:Ponto4D, ptoSupDir:Ponto4D)</text><ellipse cx="18" cy="182.4883" fill="#84BE84" rx="3" ry="3" style="stroke:#038048;stroke-width:1.0;"/><text fill="#000000" font-family="sans-serif" font-size="14" lengthAdjust="spacing" textLength="196" x="27" y="189.0234">«override» ToString() : string</text></g><!--MD5=[8b9e0d00865063ef789ad294aa32e6ea]
class ObjetoGeometria--><g id="elem_ObjetoGeometria"><rect fill="#F1F1F1" height="48" id="ObjetoGeometria" rx="2.5" ry="2.5" style="stroke:#181818;stroke-width:0.5;" width="149" x="217" y="7"/><ellipse cx="232" cy="23" fill="#ADD1B2" rx="11" ry="11" style="stroke:#181818;stroke-width:1.0;"/><path d="M234.4731,29.1431 Q233.8921,29.4419 233.2529,29.5913 Q232.6138,29.7407 231.9082,29.7407 Q229.4014,29.7407 228.0815,28.0889 Q226.7617,26.437 226.7617,23.3159 Q226.7617,20.1865 228.0815,18.5347 Q229.4014,16.8828 231.9082,16.8828 Q232.6138,16.8828 233.2612,17.0322 Q233.9087,17.1816 234.4731,17.4805 L234.4731,20.2031 Q233.8423,19.6221 233.2488,19.3523 Q232.6553,19.0825 232.0244,19.0825 Q230.6797,19.0825 229.9949,20.1492 Q229.3101,21.2158 229.3101,23.3159 Q229.3101,25.4077 229.9949,26.4744 Q230.6797,27.541 232.0244,27.541 Q232.6553,27.541 233.2488,27.2712 Q233.8423,27.0015 234.4731,26.4204 Z " fill="#000000"/><text fill="#000000" font-family="sans-serif" font-size="14" lengthAdjust="spacing" textLength="117" x="246" y="28.291">ObjetoGeometria</text><line style="stroke:#181818;stroke-width:0.5;" x1="218" x2="365" y1="39" y2="39"/><line style="stroke:#181818;stroke-width:0.5;" x1="218" x2="365" y1="47" y2="47"/></g><!--MD5=[26236c37487edb4672de193cef5bd1db]
reverse link ObjetoGeometria to Retangulo--><g id="link_ObjetoGeometria_Retangulo"><path codeLine="5" d="M291.5,75.2419 C291.5,88.1649 291.5,102.221 291.5,114.9063 " fill="none" id="ObjetoGeometria-backto-Retangulo" style="stroke:#181818;stroke-width:1.0;"/><polygon fill="none" points="284.5001,75.0049,291.5,55.0049,298.5001,75.0048,284.5001,75.0049" style="stroke:#181818;stroke-width:1.0;"/></g><!--MD5=[875c51f3a6cdbf047b0b40d3ea38773e]
@startuml Retangulo
class Retangulo {
    + Retangulo(rotulo:string, paiRef:Objeto, ptoInfEsq:Ponto4D, ptoSupDir:Ponto4D)
    + <<override>> ToString() : string
}
ObjetoGeometria <|- - Retangulo
@enduml

PlantUML version 1.2022.5(Sat Apr 30 07:55:52 BRT 2022)
(GPL source distribution)
Java Runtime: OpenJDK Runtime Environment
JVM: OpenJDK 64-Bit Server VM
Default Encoding: UTF-8
Language: en
Country: BR
--></g></svg>