<?xml version="1.0" encoding="UTF-8" standalone="no"?><svg xmlns="http://www.w3.org/2000/svg" xmlns:xlink="http://www.w3.org/1999/xlink" contentStyleType="text/css" height="704px" preserveAspectRatio="none" style="width:2334px;height:704px;background:#FFFFFF;" version="1.1" viewBox="0 0 2334 704" width="2334px" zoomAndPan="magnify"><defs/><g><rect height="26.4883" style="stroke:#00000000;stroke-width:1.0;fill:none;" width="353" x="983.75" y="5"/><text fill="#000000" font-family="sans-serif" font-size="14" font-weight="bold" lengthAdjust="spacing" textLength="343" x="988.75" y="23.5352">Diagrama de Classes - CG_Biblioteca Completo</text><!--MD5=[ea10f8dc465baf5e542f54928f2443c8]
class BBox--><g id="elem_BBox"><rect codeLine="1" fill="#F1F1F1" height="262.3477" id="BBox" rx="2.5" ry="2.5" style="stroke:#181818;stroke-width:0.5;" width="729" x="1111" y="52.9883"/><ellipse cx="1454.25" cy="68.9883" fill="#ADD1B2" rx="11" ry="11" style="stroke:#181818;stroke-width:1.0;"/><path d="M1456.7231,75.1313 Q1456.1421,75.4302 1455.5029,75.5796 Q1454.8638,75.729 1454.1582,75.729 Q1451.6514,75.729 1450.3315,74.0771 Q1449.0117,72.4253 1449.0117,69.3042 Q1449.0117,66.1748 1450.3315,64.5229 Q1451.6514,62.8711 1454.1582,62.8711 Q1454.8638,62.8711 1455.5112,63.0205 Q1456.1587,63.1699 1456.7231,63.4688 L1456.7231,66.1914 Q1456.0923,65.6104 1455.4988,65.3406 Q1454.9053,65.0708 1454.2744,65.0708 Q1452.9297,65.0708 1452.2449,66.1375 Q1451.5601,67.2041 1451.5601,69.3042 Q1451.5601,71.396 1452.2449,72.4626 Q1452.9297,73.5293 1454.2744,73.5293 Q1454.9053,73.5293 1455.4988,73.2595 Q1456.0923,72.9897 1456.7231,72.4087 Z " fill="#000000"/><text fill="#000000" font-family="sans-serif" font-size="14" lengthAdjust="spacing" textLength="34" x="1474.75" y="74.2793">BBox</text><line style="stroke:#181818;stroke-width:0.5;" x1="1112" x2="1839" y1="84.9883" y2="84.9883"/><ellipse cx="1122" cy="95.9883" fill="none" rx="3" ry="3" style="stroke:#038048;stroke-width:1.0;"/><text fill="#000000" font-family="sans-serif" font-size="14" lengthAdjust="spacing" textLength="190" x="1131" y="102.5234">obterMenorX : double «get»</text><ellipse cx="1122" cy="112.4766" fill="none" rx="3" ry="3" style="stroke:#038048;stroke-width:1.0;"/><text fill="#000000" font-family="sans-serif" font-size="14" lengthAdjust="spacing" textLength="190" x="1131" y="119.0117">obterMenorY : double «get»</text><ellipse cx="1122" cy="128.9648" fill="none" rx="3" ry="3" style="stroke:#038048;stroke-width:1.0;"/><text fill="#000000" font-family="sans-serif" font-size="14" lengthAdjust="spacing" textLength="189" x="1131" y="135.5">obterMenorZ : double «get»</text><ellipse cx="1122" cy="145.4531" fill="none" rx="3" ry="3" style="stroke:#038048;stroke-width:1.0;"/><text fill="#000000" font-family="sans-serif" font-size="14" lengthAdjust="spacing" textLength="185" x="1131" y="151.9883">obterMaiorX : double «get»</text><ellipse cx="1122" cy="161.9414" fill="none" rx="3" ry="3" style="stroke:#038048;stroke-width:1.0;"/><text fill="#000000" font-family="sans-serif" font-size="14" lengthAdjust="spacing" textLength="185" x="1131" y="168.4766">obterMaiorY : double «get»</text><ellipse cx="1122" cy="178.4297" fill="none" rx="3" ry="3" style="stroke:#038048;stroke-width:1.0;"/><text fill="#000000" font-family="sans-serif" font-size="14" lengthAdjust="spacing" textLength="184" x="1131" y="184.9648">obterMaiorZ : double «get»</text><line style="stroke:#181818;stroke-width:0.5;" x1="1112" x2="1839" y1="191.918" y2="191.918"/><ellipse cx="1122" cy="202.918" fill="#84BE84" rx="3" ry="3" style="stroke:#038048;stroke-width:1.0;"/><text fill="#000000" font-family="sans-serif" font-size="14" lengthAdjust="spacing" textLength="703" x="1131" y="209.4531">BBox(menorX:double, menorY:double, menorZ:double, maiorX:double, maiorY:double, maiorZ:double)</text><ellipse cx="1122" cy="219.4063" fill="#84BE84" rx="3" ry="3" style="stroke:#038048;stroke-width:1.0;"/><text fill="#000000" font-family="sans-serif" font-size="14" lengthAdjust="spacing" textLength="190" x="1131" y="225.9414">Atribuir(pto:Ponto4D) : void</text><ellipse cx="1122" cy="235.8945" fill="#84BE84" rx="3" ry="3" style="stroke:#038048;stroke-width:1.0;"/><text fill="#000000" font-family="sans-serif" font-size="14" lengthAdjust="spacing" textLength="199" x="1131" y="242.4297">Atualizar(pto:Ponto4D) : void</text><ellipse cx="1122" cy="252.3828" fill="#84BE84" rx="3" ry="3" style="stroke:#038048;stroke-width:1.0;"/><text fill="#000000" font-family="sans-serif" font-size="14" lengthAdjust="spacing" textLength="309" x="1131" y="258.918">Atualizar(x:double, y:double, z:double) : void</text><ellipse cx="1122" cy="268.8711" fill="#84BE84" rx="3" ry="3" style="stroke:#038048;stroke-width:1.0;"/><text fill="#000000" font-family="sans-serif" font-size="14" lengthAdjust="spacing" textLength="164" x="1131" y="275.4063">ProcessarCentro() : void</text><ellipse cx="1122" cy="285.3594" fill="#84BE84" rx="3" ry="3" style="stroke:#038048;stroke-width:1.0;"/><text fill="#000000" font-family="sans-serif" font-size="14" lengthAdjust="spacing" textLength="116" x="1131" y="291.8945">Desenhar() : void</text><ellipse cx="1122" cy="301.8477" fill="#84BE84" rx="3" ry="3" style="stroke:#038048;stroke-width:1.0;"/><text fill="#000000" font-family="sans-serif" font-size="14" lengthAdjust="spacing" textLength="196" x="1131" y="308.3828">«override» ToString() : string</text></g><!--MD5=[ef5ff341dffd6737742a54781c8b5648]
class Ponto4D--><g id="elem_Ponto4D"><rect codeLine="1" fill="#F1F1F1" height="163.418" id="Ponto4D" rx="2.5" ry="2.5" style="stroke:#181818;stroke-width:0.5;" width="362" x="1294.5" y="449.4883"/><ellipse cx="1441.75" cy="465.4883" fill="#ADD1B2" rx="11" ry="11" style="stroke:#181818;stroke-width:1.0;"/><path d="M1444.2231,471.6313 Q1443.6421,471.9302 1443.0029,472.0796 Q1442.3638,472.229 1441.6582,472.229 Q1439.1514,472.229 1437.8315,470.5771 Q1436.5117,468.9253 1436.5117,465.8042 Q1436.5117,462.6748 1437.8315,461.0229 Q1439.1514,459.3711 1441.6582,459.3711 Q1442.3638,459.3711 1443.0112,459.5205 Q1443.6587,459.6699 1444.2231,459.9688 L1444.2231,462.6914 Q1443.5923,462.1104 1442.9988,461.8406 Q1442.4053,461.5708 1441.7744,461.5708 Q1440.4297,461.5708 1439.7449,462.6375 Q1439.0601,463.7041 1439.0601,465.8042 Q1439.0601,467.896 1439.7449,468.9626 Q1440.4297,470.0293 1441.7744,470.0293 Q1442.4053,470.0293 1442.9988,469.7595 Q1443.5923,469.4897 1444.2231,468.9087 Z " fill="#000000"/><text fill="#000000" font-family="sans-serif" font-size="14" lengthAdjust="spacing" textLength="59" x="1462.25" y="470.7793">Ponto4D</text><line style="stroke:#181818;stroke-width:0.5;" x1="1295.5" x2="1655.5" y1="481.4883" y2="481.4883"/><ellipse cx="1305.5" cy="492.4883" fill="none" rx="3" ry="3" style="stroke:#038048;stroke-width:1.0;"/><text fill="#000000" font-family="sans-serif" font-size="14" lengthAdjust="spacing" textLength="147" x="1314.5" y="499.0234">X : double «get» «set»</text><ellipse cx="1305.5" cy="508.9766" fill="none" rx="3" ry="3" style="stroke:#038048;stroke-width:1.0;"/><text fill="#000000" font-family="sans-serif" font-size="14" lengthAdjust="spacing" textLength="147" x="1314.5" y="515.5117">Y : double «get» «set»</text><ellipse cx="1305.5" cy="525.4648" fill="none" rx="3" ry="3" style="stroke:#038048;stroke-width:1.0;"/><text fill="#000000" font-family="sans-serif" font-size="14" lengthAdjust="spacing" textLength="146" x="1314.5" y="532">Z : double «get» «set»</text><ellipse cx="1305.5" cy="541.9531" fill="none" rx="3" ry="3" style="stroke:#038048;stroke-width:1.0;"/><text fill="#000000" font-family="sans-serif" font-size="14" lengthAdjust="spacing" textLength="112" x="1314.5" y="548.4883">W : double «get»</text><line style="stroke:#181818;stroke-width:0.5;" x1="1295.5" x2="1655.5" y1="555.4414" y2="555.4414"/><ellipse cx="1305.5" cy="566.4414" fill="#84BE84" rx="3" ry="3" style="stroke:#038048;stroke-width:1.0;"/><text fill="#000000" font-family="sans-serif" font-size="14" lengthAdjust="spacing" textLength="336" x="1314.5" y="572.9766">Ponto4D(x:double, y:double, z:double, w:double)</text><ellipse cx="1305.5" cy="582.9297" fill="#84BE84" rx="3" ry="3" style="stroke:#038048;stroke-width:1.0;"/><text fill="#000000" font-family="sans-serif" font-size="14" lengthAdjust="spacing" textLength="155" x="1314.5" y="589.4648">Ponto4D(pto:Ponto4D)</text><ellipse cx="1305.5" cy="599.418" fill="#84BE84" rx="3" ry="3" style="stroke:#038048;stroke-width:1.0;"/><text fill="#000000" font-family="sans-serif" font-size="14" lengthAdjust="spacing" textLength="196" x="1314.5" y="605.9531">«override» ToString() : string</text></g><!--MD5=[a7a8f22eafb289696c295eb36d2b4bda]
class CameraOrtho--><g id="elem_CameraOrtho"><rect codeLine="1" fill="#F1F1F1" height="278.8359" id="CameraOrtho" rx="2.5" ry="2.5" style="stroke:#181818;stroke-width:0.5;" width="691" x="7" y="44.4883"/><ellipse cx="301.75" cy="60.4883" fill="#ADD1B2" rx="11" ry="11" style="stroke:#181818;stroke-width:1.0;"/><path d="M304.2231,66.6313 Q303.6421,66.9302 303.0029,67.0796 Q302.3638,67.229 301.6582,67.229 Q299.1514,67.229 297.8315,65.5771 Q296.5117,63.9253 296.5117,60.8042 Q296.5117,57.6748 297.8315,56.0229 Q299.1514,54.3711 301.6582,54.3711 Q302.3638,54.3711 303.0112,54.5205 Q303.6587,54.6699 304.2231,54.9688 L304.2231,57.6914 Q303.5923,57.1104 302.9988,56.8406 Q302.4053,56.5708 301.7744,56.5708 Q300.4297,56.5708 299.7449,57.6375 Q299.0601,58.7041 299.0601,60.8042 Q299.0601,62.896 299.7449,63.9626 Q300.4297,65.0293 301.7744,65.0293 Q302.4053,65.0293 302.9988,64.7595 Q303.5923,64.4897 304.2231,63.9087 Z " fill="#000000"/><text fill="#000000" font-family="sans-serif" font-size="14" lengthAdjust="spacing" textLength="93" x="322.25" y="65.7793">CameraOrtho</text><line style="stroke:#181818;stroke-width:0.5;" x1="8" x2="697" y1="76.4883" y2="76.4883"/><ellipse cx="18" cy="87.4883" fill="none" rx="3" ry="3" style="stroke:#038048;stroke-width:1.0;"/><text fill="#000000" font-family="sans-serif" font-size="14" lengthAdjust="spacing" textLength="173" x="27" y="94.0234">xmin : double «get» «set»</text><ellipse cx="18" cy="103.9766" fill="none" rx="3" ry="3" style="stroke:#038048;stroke-width:1.0;"/><text fill="#000000" font-family="sans-serif" font-size="14" lengthAdjust="spacing" textLength="177" x="27" y="110.5117">xmax : double «get» «set»</text><ellipse cx="18" cy="120.4648" fill="none" rx="3" ry="3" style="stroke:#038048;stroke-width:1.0;"/><text fill="#000000" font-family="sans-serif" font-size="14" lengthAdjust="spacing" textLength="171" x="27" y="127">ymin : double «get» «set»</text><ellipse cx="18" cy="136.9531" fill="none" rx="3" ry="3" style="stroke:#038048;stroke-width:1.0;"/><text fill="#000000" font-family="sans-serif" font-size="14" lengthAdjust="spacing" textLength="175" x="27" y="143.4883">ymax : double «get» «set»</text><ellipse cx="18" cy="153.4414" fill="none" rx="3" ry="3" style="stroke:#038048;stroke-width:1.0;"/><text fill="#000000" font-family="sans-serif" font-size="14" lengthAdjust="spacing" textLength="172" x="27" y="159.9766">zmin : double «get» «set»</text><ellipse cx="18" cy="169.9297" fill="none" rx="3" ry="3" style="stroke:#038048;stroke-width:1.0;"/><text fill="#000000" font-family="sans-serif" font-size="14" lengthAdjust="spacing" textLength="176" x="27" y="176.4648">zmax : double «get» «set»</text><line style="stroke:#181818;stroke-width:0.5;" x1="8" x2="697" y1="183.418" y2="183.418"/><ellipse cx="18" cy="194.418" fill="#84BE84" rx="3" ry="3" style="stroke:#038048;stroke-width:1.0;"/><text fill="#000000" font-family="sans-serif" font-size="14" lengthAdjust="spacing" textLength="665" x="27" y="200.9531">CameraOrtho(xMin:double, xMax:double, yMin:double, yMax:double, zMin:double, zMax:double)</text><ellipse cx="18" cy="210.9063" fill="#84BE84" rx="3" ry="3" style="stroke:#038048;stroke-width:1.0;"/><text fill="#000000" font-family="sans-serif" font-size="14" lengthAdjust="spacing" textLength="140" x="27" y="217.4414">PanEsquerda() : void</text><ellipse cx="18" cy="227.3945" fill="#84BE84" rx="3" ry="3" style="stroke:#038048;stroke-width:1.0;"/><text fill="#000000" font-family="sans-serif" font-size="14" lengthAdjust="spacing" textLength="121" x="27" y="233.9297">PanDireita() : void</text><ellipse cx="18" cy="243.8828" fill="#84BE84" rx="3" ry="3" style="stroke:#038048;stroke-width:1.0;"/><text fill="#000000" font-family="sans-serif" font-size="14" lengthAdjust="spacing" textLength="111" x="27" y="250.418">PanCima() : void</text><ellipse cx="18" cy="260.3711" fill="#84BE84" rx="3" ry="3" style="stroke:#038048;stroke-width:1.0;"/><text fill="#000000" font-family="sans-serif" font-size="14" lengthAdjust="spacing" textLength="114" x="27" y="266.9063">PanBaixo() : void</text><ellipse cx="18" cy="276.8594" fill="#84BE84" rx="3" ry="3" style="stroke:#038048;stroke-width:1.0;"/><text fill="#000000" font-family="sans-serif" font-size="14" lengthAdjust="spacing" textLength="103" x="27" y="283.3945">ZoomIn() : void</text><ellipse cx="18" cy="293.3477" fill="#84BE84" rx="3" ry="3" style="stroke:#038048;stroke-width:1.0;"/><text fill="#000000" font-family="sans-serif" font-size="14" lengthAdjust="spacing" textLength="115" x="27" y="299.8828">ZoomOut() : void</text><ellipse cx="18" cy="309.8359" fill="#84BE84" rx="3" ry="3" style="stroke:#038048;stroke-width:1.0;"/><text fill="#000000" font-family="sans-serif" font-size="14" lengthAdjust="spacing" textLength="196" x="27" y="316.3711">«override» ToString() : string</text></g><!--MD5=[c3851e40b8ed2f68ee08d490e0f0cd81]
class CameraPerspective--><g id="elem_CameraPerspective"><rect codeLine="1" fill="#F1F1F1" height="146.9297" id="CameraPerspective" rx="2.5" ry="2.5" style="stroke:#181818;stroke-width:0.5;" width="452" x="1875.5" y="110.4883"/><ellipse cx="2032.25" cy="126.4883" fill="#ADD1B2" rx="11" ry="11" style="stroke:#181818;stroke-width:1.0;"/><path d="M2034.7231,132.6313 Q2034.1421,132.9302 2033.5029,133.0796 Q2032.8638,133.229 2032.1582,133.229 Q2029.6514,133.229 2028.3315,131.5771 Q2027.0117,129.9253 2027.0117,126.8042 Q2027.0117,123.6748 2028.3315,122.0229 Q2029.6514,120.3711 2032.1582,120.3711 Q2032.8638,120.3711 2033.5112,120.5205 Q2034.1587,120.6699 2034.7231,120.9688 L2034.7231,123.6914 Q2034.0923,123.1104 2033.4988,122.8406 Q2032.9053,122.5708 2032.2744,122.5708 Q2030.9297,122.5708 2030.2449,123.6375 Q2029.5601,124.7041 2029.5601,126.8042 Q2029.5601,128.896 2030.2449,129.9626 Q2030.9297,131.0293 2032.2744,131.0293 Q2032.9053,131.0293 2033.4988,130.7595 Q2034.0923,130.4897 2034.7231,129.9087 Z " fill="#000000"/><text fill="#000000" font-family="sans-serif" font-size="14" lengthAdjust="spacing" textLength="130" x="2052.75" y="131.7793">CameraPerspective</text><line style="stroke:#181818;stroke-width:0.5;" x1="1876.5" x2="2326.5" y1="142.4883" y2="142.4883"/><ellipse cx="1886.5" cy="153.4883" fill="none" rx="3" ry="3" style="stroke:#038048;stroke-width:1.0;"/><text fill="#000000" font-family="sans-serif" font-size="14" lengthAdjust="spacing" textLength="152" x="1895.5" y="160.0234">Fovy : float «get» «set»</text><ellipse cx="1886.5" cy="169.9766" fill="none" rx="3" ry="3" style="stroke:#038048;stroke-width:1.0;"/><text fill="#000000" font-family="sans-serif" font-size="14" lengthAdjust="spacing" textLength="167" x="1895.5" y="176.5117">Aspect : float «get» «set»</text><ellipse cx="1886.5" cy="186.4648" fill="none" rx="3" ry="3" style="stroke:#038048;stroke-width:1.0;"/><text fill="#000000" font-family="sans-serif" font-size="14" lengthAdjust="spacing" textLength="153" x="1895.5" y="193">Near : float «get» «set»</text><ellipse cx="1886.5" cy="202.9531" fill="none" rx="3" ry="3" style="stroke:#038048;stroke-width:1.0;"/><text fill="#000000" font-family="sans-serif" font-size="14" lengthAdjust="spacing" textLength="143" x="1895.5" y="209.4883">Far : float «get» «set»</text><line style="stroke:#181818;stroke-width:0.5;" x1="1876.5" x2="2326.5" y1="216.4414" y2="216.4414"/><ellipse cx="1886.5" cy="227.4414" fill="#84BE84" rx="3" ry="3" style="stroke:#038048;stroke-width:1.0;"/><text fill="#000000" font-family="sans-serif" font-size="14" lengthAdjust="spacing" textLength="426" x="1895.5" y="233.9766">CameraPerspective(fovy:float, aspect:float, near:float, far:float)</text><ellipse cx="1886.5" cy="243.9297" fill="#84BE84" rx="3" ry="3" style="stroke:#038048;stroke-width:1.0;"/><text fill="#000000" font-family="sans-serif" font-size="14" lengthAdjust="spacing" textLength="196" x="1895.5" y="250.4648">«override» ToString() : string</text></g><!--MD5=[65d619c042c23702cef2ca07d67b1cf6]
class Vector3--><g id="elem_Vector3"><rect fill="#F1F1F1" height="48" id="Vector3" rx="2.5" ry="2.5" style="stroke:#181818;stroke-width:0.5;" width="85" x="2059" y="506.9883"/><ellipse cx="2074" cy="522.9883" fill="#ADD1B2" rx="11" ry="11" style="stroke:#181818;stroke-width:1.0;"/><path d="M2076.4731,529.1313 Q2075.8921,529.4302 2075.2529,529.5796 Q2074.6138,529.729 2073.9082,529.729 Q2071.4014,529.729 2070.0815,528.0771 Q2068.7617,526.4253 2068.7617,523.3042 Q2068.7617,520.1748 2070.0815,518.5229 Q2071.4014,516.8711 2073.9082,516.8711 Q2074.6138,516.8711 2075.2612,517.0205 Q2075.9087,517.1699 2076.4731,517.4688 L2076.4731,520.1914 Q2075.8423,519.6104 2075.2488,519.3406 Q2074.6553,519.0708 2074.0244,519.0708 Q2072.6797,519.0708 2071.9949,520.1375 Q2071.3101,521.2041 2071.3101,523.3042 Q2071.3101,525.396 2071.9949,526.4626 Q2072.6797,527.5293 2074.0244,527.5293 Q2074.6553,527.5293 2075.2488,527.2595 Q2075.8423,526.9897 2076.4731,526.4087 Z " fill="#000000"/><text fill="#000000" font-family="sans-serif" font-size="14" lengthAdjust="spacing" textLength="53" x="2088" y="528.2793">Vector3</text><line style="stroke:#181818;stroke-width:0.5;" x1="2060" x2="2143" y1="538.9883" y2="538.9883"/><line style="stroke:#181818;stroke-width:0.5;" x1="2060" x2="2143" y1="546.9883" y2="546.9883"/></g><!--MD5=[9ac43fafcd0ede942dc8e681a30a1b52]
class Cor--><g id="elem_Cor"><rect codeLine="1" fill="#F1F1F1" height="146.9297" id="Cor" rx="2.5" ry="2.5" style="stroke:#181818;stroke-width:0.5;" width="342" x="733.5" y="110.4883"/><ellipse cx="887.75" cy="126.4883" fill="#ADD1B2" rx="11" ry="11" style="stroke:#181818;stroke-width:1.0;"/><path d="M890.2231,132.6313 Q889.6421,132.9302 889.0029,133.0796 Q888.3638,133.229 887.6582,133.229 Q885.1514,133.229 883.8315,131.5771 Q882.5117,129.9253 882.5117,126.8042 Q882.5117,123.6748 883.8315,122.0229 Q885.1514,120.3711 887.6582,120.3711 Q888.3638,120.3711 889.0112,120.5205 Q889.6587,120.6699 890.2231,120.9688 L890.2231,123.6914 Q889.5923,123.1104 888.9988,122.8406 Q888.4053,122.5708 887.7744,122.5708 Q886.4297,122.5708 885.7449,123.6375 Q885.0601,124.7041 885.0601,126.8042 Q885.0601,128.896 885.7449,129.9626 Q886.4297,131.0293 887.7744,131.0293 Q888.4053,131.0293 888.9988,130.7595 Q889.5923,130.4897 890.2231,129.9087 Z " fill="#000000"/><text fill="#000000" font-family="sans-serif" font-size="14" lengthAdjust="spacing" textLength="25" x="908.25" y="131.7793">Cor</text><line style="stroke:#181818;stroke-width:0.5;" x1="734.5" x2="1074.5" y1="142.4883" y2="142.4883"/><ellipse cx="744.5" cy="153.4883" fill="none" rx="3" ry="3" style="stroke:#038048;stroke-width:1.0;"/><text fill="#000000" font-family="sans-serif" font-size="14" lengthAdjust="spacing" textLength="153" x="753.5" y="160.0234">CorR : byte «get» «set»</text><ellipse cx="744.5" cy="169.9766" fill="none" rx="3" ry="3" style="stroke:#038048;stroke-width:1.0;"/><text fill="#000000" font-family="sans-serif" font-size="14" lengthAdjust="spacing" textLength="154" x="753.5" y="176.5117">CorG : byte «get» «set»</text><ellipse cx="744.5" cy="186.4648" fill="none" rx="3" ry="3" style="stroke:#038048;stroke-width:1.0;"/><text fill="#000000" font-family="sans-serif" font-size="14" lengthAdjust="spacing" textLength="152" x="753.5" y="193">CorB : byte «get» «set»</text><ellipse cx="744.5" cy="202.9531" fill="none" rx="3" ry="3" style="stroke:#038048;stroke-width:1.0;"/><text fill="#000000" font-family="sans-serif" font-size="14" lengthAdjust="spacing" textLength="154" x="753.5" y="209.4883">CorA : byte «get» «set»</text><line style="stroke:#181818;stroke-width:0.5;" x1="734.5" x2="1074.5" y1="216.4414" y2="216.4414"/><ellipse cx="744.5" cy="227.4414" fill="#84BE84" rx="3" ry="3" style="stroke:#038048;stroke-width:1.0;"/><text fill="#000000" font-family="sans-serif" font-size="14" lengthAdjust="spacing" textLength="316" x="753.5" y="233.9766">Cor(corR:byte, corG:byte, corB:byte, corA:byte)</text><ellipse cx="744.5" cy="243.9297" fill="#84BE84" rx="3" ry="3" style="stroke:#038048;stroke-width:1.0;"/><text fill="#000000" font-family="sans-serif" font-size="14" lengthAdjust="spacing" textLength="196" x="753.5" y="250.4648">«override» ToString() : string</text></g><!--MD5=[57370106b09f55ffa37deb7835ffe78b]
class Matematica--><g id="elem_Matematica"><rect codeLine="1" fill="#F1F1F1" height="80.9766" id="Matematica" rx="2.5" ry="2.5" style="stroke:#181818;stroke-width:0.5;" width="410" x="147.5" y="490.4883"/><ellipse cx="309.25" cy="506.4883" fill="#A9DCDF" rx="11" ry="11" style="stroke:#181818;stroke-width:1.0;"/><path d="M309.1133,501.8364 L307.9595,506.9082 L310.2754,506.9082 Z M307.6191,499.5952 L310.6157,499.5952 L313.9609,511.9883 L311.5122,511.9883 L310.7485,508.9253 L307.4697,508.9253 L306.7227,511.9883 L304.2739,511.9883 Z " fill="#000000"/><text fill="#000000" font-family="sans-serif" font-size="14" font-style="italic" lengthAdjust="spacing" textLength="78" x="329.75" y="511.7793">Matematica</text><line style="stroke:#181818;stroke-width:0.5;" x1="148.5" x2="556.5" y1="522.4883" y2="522.4883"/><line style="stroke:#181818;stroke-width:0.5;" x1="148.5" x2="556.5" y1="530.4883" y2="530.4883"/><ellipse cx="158.5" cy="541.4883" fill="#84BE84" rx="3" ry="3" style="stroke:#038048;stroke-width:1.0;"/><text fill="#000000" font-family="sans-serif" font-size="14" lengthAdjust="spacing" text-decoration="underline" textLength="384" x="167.5" y="548.0234">GerarPtosCirculo(angulo:double, raio:double) : Ponto4D</text><ellipse cx="158.5" cy="557.9766" fill="#84BE84" rx="3" ry="3" style="stroke:#038048;stroke-width:1.0;"/><text fill="#000000" font-family="sans-serif" font-size="14" lengthAdjust="spacing" text-decoration="underline" textLength="329" x="167.5" y="564.5117">GerarPtosCirculoSimétrico(raio:double) : double</text></g><!--MD5=[6746db26fbf3328699b5b65a634cc0f3]
class Transformacao4D--><g id="elem_Transformacao4D"><rect codeLine="1" fill="#F1F1F1" height="295.3242" id="Transformacao4D" rx="2.5" ry="2.5" style="stroke:#181818;stroke-width:0.5;" width="584" x="592.5" y="383.4883"/><ellipse cx="818.75" cy="399.4883" fill="#ADD1B2" rx="11" ry="11" style="stroke:#181818;stroke-width:1.0;"/><path d="M821.2231,405.6313 Q820.6421,405.9302 820.0029,406.0796 Q819.3638,406.229 818.6582,406.229 Q816.1514,406.229 814.8315,404.5771 Q813.5117,402.9253 813.5117,399.8042 Q813.5117,396.6748 814.8315,395.0229 Q816.1514,393.3711 818.6582,393.3711 Q819.3638,393.3711 820.0112,393.5205 Q820.6587,393.6699 821.2231,393.9688 L821.2231,396.6914 Q820.5923,396.1104 819.9988,395.8406 Q819.4053,395.5708 818.7744,395.5708 Q817.4297,395.5708 816.7449,396.6375 Q816.0601,397.7041 816.0601,399.8042 Q816.0601,401.896 816.7449,402.9626 Q817.4297,404.0293 818.7744,404.0293 Q819.4053,404.0293 819.9988,403.7595 Q820.5923,403.4897 821.2231,402.9087 Z " fill="#000000"/><text fill="#000000" font-family="sans-serif" font-size="14" lengthAdjust="spacing" textLength="123" x="839.25" y="404.7793">Transformacao4D</text><line style="stroke:#181818;stroke-width:0.5;" x1="593.5" x2="1175.5" y1="415.4883" y2="415.4883"/><ellipse cx="603.5" cy="426.4883" fill="none" rx="3" ry="3" style="stroke:#038048;stroke-width:1.0;"/><text fill="#000000" font-family="sans-serif" font-size="14" lengthAdjust="spacing" text-decoration="underline" textLength="558" x="612.5" y="433.0234">«readonly» DEG_TO_RAD : double = 0.017453292519943295769236907684886</text><line style="stroke:#181818;stroke-width:0.5;" x1="593.5" x2="1175.5" y1="439.9766" y2="439.9766"/><ellipse cx="603.5" cy="450.9766" fill="#84BE84" rx="3" ry="3" style="stroke:#038048;stroke-width:1.0;"/><text fill="#000000" font-family="sans-serif" font-size="14" lengthAdjust="spacing" textLength="133" x="612.5" y="457.5117">Transformacao4D()</text><ellipse cx="603.5" cy="467.4648" fill="#84BE84" rx="3" ry="3" style="stroke:#038048;stroke-width:1.0;"/><text fill="#000000" font-family="sans-serif" font-size="14" lengthAdjust="spacing" textLength="177" x="612.5" y="474">AtribuirIdentidade() : void</text><ellipse cx="603.5" cy="483.9531" fill="#84BE84" rx="3" ry="3" style="stroke:#038048;stroke-width:1.0;"/><text fill="#000000" font-family="sans-serif" font-size="14" lengthAdjust="spacing" textLength="390" x="612.5" y="490.4883">AtribuirTranslacao(tx:double, ty:double, tz:double) : void</text><ellipse cx="603.5" cy="500.4414" fill="#84BE84" rx="3" ry="3" style="stroke:#038048;stroke-width:1.0;"/><text fill="#000000" font-family="sans-serif" font-size="14" lengthAdjust="spacing" textLength="365" x="612.5" y="506.9766">AtribuirEscala(sX:double, sY:double, sZ:double) : void</text><ellipse cx="603.5" cy="516.9297" fill="#84BE84" rx="3" ry="3" style="stroke:#038048;stroke-width:1.0;"/><text fill="#000000" font-family="sans-serif" font-size="14" lengthAdjust="spacing" textLength="271" x="612.5" y="523.4648">AtribuirRotacaoX(radians:double) : void</text><ellipse cx="603.5" cy="533.418" fill="#84BE84" rx="3" ry="3" style="stroke:#038048;stroke-width:1.0;"/><text fill="#000000" font-family="sans-serif" font-size="14" lengthAdjust="spacing" textLength="271" x="612.5" y="539.9531">AtribuirRotacaoY(radians:double) : void</text><ellipse cx="603.5" cy="549.9063" fill="#84BE84" rx="3" ry="3" style="stroke:#038048;stroke-width:1.0;"/><text fill="#000000" font-family="sans-serif" font-size="14" lengthAdjust="spacing" textLength="270" x="612.5" y="556.4414">AtribuirRotacaoZ(radians:double) : void</text><ellipse cx="603.5" cy="566.3945" fill="#84BE84" rx="3" ry="3" style="stroke:#038048;stroke-width:1.0;"/><text fill="#000000" font-family="sans-serif" font-size="14" lengthAdjust="spacing" textLength="279" x="612.5" y="572.9297">MultiplicarPonto(pto:Ponto4D) : Ponto4D</text><ellipse cx="603.5" cy="582.8828" fill="#84BE84" rx="3" ry="3" style="stroke:#038048;stroke-width:1.0;"/><text fill="#000000" font-family="sans-serif" font-size="14" lengthAdjust="spacing" textLength="392" x="612.5" y="589.418">MultiplicarMatriz(t:Transformacao4D) : Transformacao4D</text><ellipse cx="603.5" cy="599.3711" fill="#84BE84" rx="3" ry="3" style="stroke:#038048;stroke-width:1.0;"/><text fill="#000000" font-family="sans-serif" font-size="14" lengthAdjust="spacing" textLength="234" x="612.5" y="605.9063">ObterElemento(index:int) : double</text><ellipse cx="603.5" cy="615.8594" fill="#84BE84" rx="3" ry="3" style="stroke:#038048;stroke-width:1.0;"/><text fill="#000000" font-family="sans-serif" font-size="14" lengthAdjust="spacing" textLength="325" x="612.5" y="622.3945">AtribuirElemento(index:int, value:double) : void</text><ellipse cx="603.5" cy="632.3477" fill="#84BE84" rx="3" ry="3" style="stroke:#038048;stroke-width:1.0;"/><text fill="#000000" font-family="sans-serif" font-size="14" lengthAdjust="spacing" textLength="162" x="612.5" y="638.8828">ObterDados() : double[]</text><ellipse cx="603.5" cy="648.8359" fill="#84BE84" rx="3" ry="3" style="stroke:#038048;stroke-width:1.0;"/><text fill="#000000" font-family="sans-serif" font-size="14" lengthAdjust="spacing" textLength="239" x="612.5" y="655.3711">AtribuirDados(data:double[]) : void</text><ellipse cx="603.5" cy="665.3242" fill="#84BE84" rx="3" ry="3" style="stroke:#038048;stroke-width:1.0;"/><text fill="#000000" font-family="sans-serif" font-size="14" lengthAdjust="spacing" textLength="196" x="612.5" y="671.8594">«override» ToString() : string</text></g><!--MD5=[21d10fafb72c8ad2b9cea5ee0b564837]
link BBox to Ponto4D--><g id="link_BBox_Ponto4D"><path codeLine="16" d="M1475.5,315.1741 C1475.5,358.3379 1475.5,405.2229 1475.5,444.2314 " fill="none" id="BBox-to-Ponto4D" style="stroke:#181818;stroke-width:1.0;"/><polygon fill="#181818" points="1475.5,449.437,1479.5,440.437,1475.5,444.437,1471.5,440.437,1475.5,449.437" style="stroke:#181818;stroke-width:1.0;"/><text fill="#000000" font-family="sans-serif" font-size="13" lengthAdjust="spacing" textLength="75" x="1397.043" y="438.791">obterCentro</text></g><!--MD5=[f94cdd04709e36a9b2c27ce98e350cf2]
link CameraPerspective to Vector3--><g id="link_CameraPerspective_Vector3"><path codeLine="9" d="M2079.5823,257.5781 C2072.1293,333.5121 2074.2926,448.1775 2086.0722,501.6271 " fill="none" id="CameraPerspective-to-Vector3" style="stroke:#181818;stroke-width:1.0;"/><polygon fill="#181818" points="2087.2422,506.6052,2089.0769,496.9287,2086.0982,501.7378,2081.2891,498.7591,2087.2422,506.6052" style="stroke:#181818;stroke-width:1.0;"/><text fill="#000000" font-family="sans-serif" font-size="13" lengthAdjust="spacing" textLength="21" x="2060.2075" y="496.4399">Eye</text></g><!--MD5=[f94cdd04709e36a9b2c27ce98e350cf2]
link CameraPerspective to Vector3--><g id="link_CameraPerspective_Vector3"><path codeLine="10" d="M2101.5,257.5781 C2101.5,333.359 2101.5,447.7153 2101.5,501.3031 " fill="none" id="CameraPerspective-to-Vector3-1" style="stroke:#181818;stroke-width:1.0;"/><polygon fill="#181818" points="2101.5,506.6052,2105.5,497.6052,2101.5,501.6052,2097.5,497.6052,2101.5,506.6052" style="stroke:#181818;stroke-width:1.0;"/><text fill="#000000" font-family="sans-serif" font-size="13" lengthAdjust="spacing" textLength="14" x="2085.7938" y="496.4399">At</text></g><!--MD5=[f94cdd04709e36a9b2c27ce98e350cf2]
link CameraPerspective to Vector3--><g id="link_CameraPerspective_Vector3"><path codeLine="11" d="M2123.4177,257.5781 C2130.8707,333.5121 2128.7074,448.1775 2116.9278,501.6271 " fill="none" id="CameraPerspective-to-Vector3-2" style="stroke:#181818;stroke-width:1.0;"/><polygon fill="#181818" points="2115.7578,506.6052,2121.7109,498.7591,2116.9018,501.7378,2113.9231,496.9287,2115.7578,506.6052" style="stroke:#181818;stroke-width:1.0;"/><text fill="#000000" font-family="sans-serif" font-size="13" lengthAdjust="spacing" textLength="17" x="2121.305" y="496.4399">Up</text></g><rect height="11.7773" style="stroke:#00000000;stroke-width:1.0;fill:none;" width="167" x="1076.75" y="684.8125"/><text fill="#888888" font-family="sans-serif" font-size="10" lengthAdjust="spacing" textLength="62" x="1076.75" y="694.4805">Grupo GCG -</text><a href="http://gcg.inf.furb.br" target="_top" title="http://gcg.inf.furb.br" xlink:actuate="onRequest" xlink:href="http://gcg.inf.furb.br" xlink:show="new" xlink:title="http://gcg.inf.furb.br" xlink:type="simple"><text fill="#0000FF" font-family="sans-serif" font-size="10" lengthAdjust="spacing" text-decoration="underline" textLength="102" x="1141.75" y="694.4805">http://gcg.inf.furb.br</text></a><!--MD5=[0eb3a9fb4b88b68df2ff819f5d0e23b8]
@startuml CG_Biblioteca_Completo

title Diagrama de Classes - CG_Biblioteca Completo
footer Grupo GCG - [[http://gcg.inf.furb.br]]

!include ../../PlantUML/CG_Biblioteca/BBox.puml
!include ../../PlantUML/CG_Biblioteca/CameraOrtho.puml
!include ../../PlantUML/CG_Biblioteca/CameraPerspective.puml
!include ../../PlantUML/CG_Biblioteca/Cor.puml
!include ../../PlantUML/CG_Biblioteca/Matematica.puml
!include ../../PlantUML/CG_Biblioteca/Ponto4D.puml
!include ../../PlantUML/CG_Biblioteca/Transformacao4D.puml
@enduml

@startuml CG_Biblioteca_Completo

title Diagrama de Classes - CG_Biblioteca Completo
footer Grupo GCG - [[http://gcg.inf.furb.br]]

class BBox {
    + BBox(menorX:double, menorY:double, menorZ:double, maiorX:double, maiorY:double, maiorZ:double)
    + Atribuir(pto:Ponto4D) : void
    + Atualizar(pto:Ponto4D) : void
    + Atualizar(x:double, y:double, z:double) : void
    + ProcessarCentro() : void
    + Desenhar() : void
    + obterMenorX : double <<get>>
    + obterMenorY : double <<get>>
    + obterMenorZ : double <<get>>
    + obterMaiorX : double <<get>>
    + obterMaiorY : double <<get>>
    + obterMaiorZ : double <<get>>
    + <<override>> ToString() : string
}
BBox - -> "obterCentro" Ponto4D
class CameraOrtho {
    + CameraOrtho(xMin:double, xMax:double, yMin:double, yMax:double, zMin:double, zMax:double)
    + xmin : double <<get>> <<set>>
    + xmax : double <<get>> <<set>>
    + ymin : double <<get>> <<set>>
    + ymax : double <<get>> <<set>>
    + zmin : double <<get>> <<set>>
    + zmax : double <<get>> <<set>>
    + PanEsquerda() : void
    + PanDireita() : void
    + PanCima() : void
    + PanBaixo() : void
    + ZoomIn() : void
    + ZoomOut() : void
    + <<override>> ToString() : string
}
class CameraPerspective {
    + CameraPerspective(fovy:float, aspect:float, near:float, far:float)
    + Fovy : float <<get>> <<set>>
    + Aspect : float <<get>> <<set>>
    + Near : float <<get>> <<set>>
    + Far : float <<get>> <<set>>
    + <<override>> ToString() : string
}
CameraPerspective - -> "Eye" Vector3
CameraPerspective - -> "At" Vector3
CameraPerspective - -> "Up" Vector3
class Cor {
    + Cor(corR:byte, corG:byte, corB:byte, corA:byte)
    + <<override>> ToString() : string
    + CorR : byte <<get>> <<set>>
    + CorG : byte <<get>> <<set>>
    + CorB : byte <<get>> <<set>>
    + CorA : byte <<get>> <<set>>
}
abstract class Matematica {
    + {static} GerarPtosCirculo(angulo:double, raio:double) : Ponto4D
    + {static} GerarPtosCirculoSimétrico(raio:double) : double
}
class Ponto4D {
    + Ponto4D(x:double, y:double, z:double, w:double)
    + Ponto4D(pto:Ponto4D)
    + X : double <<get>> <<set>>
    + Y : double <<get>> <<set>>
    + Z : double <<get>> <<set>>
    + W : double <<get>>
    + <<override>> ToString() : string
}
class Transformacao4D {
    {static} + <<readonly>> DEG_TO_RAD : double = 0.017453292519943295769236907684886
    + Transformacao4D()
    + AtribuirIdentidade() : void
    + AtribuirTranslacao(tx:double, ty:double, tz:double) : void
    + AtribuirEscala(sX:double, sY:double, sZ:double) : void
    + AtribuirRotacaoX(radians:double) : void
    + AtribuirRotacaoY(radians:double) : void
    + AtribuirRotacaoZ(radians:double) : void
    + MultiplicarPonto(pto:Ponto4D) : Ponto4D
    + MultiplicarMatriz(t:Transformacao4D) : Transformacao4D
    + ObterElemento(index:int) : double
    + AtribuirElemento(index:int, value:double) : void
    + ObterDados() : double[]
    + AtribuirDados(data:double[]) : void
    + <<override>> ToString() : string
}
@enduml

PlantUML version 1.2022.5(Sat Apr 30 07:55:52 BRT 2022)
(GPL source distribution)
Java Runtime: OpenJDK Runtime Environment
JVM: OpenJDK 64-Bit Server VM
Default Encoding: UTF-8
Language: en
Country: BR
--></g></svg>