<?xml version="1.0" encoding="UTF-8" standalone="no"?><svg xmlns="http://www.w3.org/2000/svg" xmlns:xlink="http://www.w3.org/1999/xlink" contentStyleType="text/css" height="202px" preserveAspectRatio="none" style="width:580px;height:202px;background:#FFFFFF;" version="1.1" viewBox="0 0 580 202" width="580px" zoomAndPan="magnify"><defs/><g><!--MD5=[48de76ac9e45cd2dd14a095e4e7d40a3]
class Privado_SegReta--><g id="elem_Privado_SegReta"><rect codeLine="1" fill="#F1F1F1" height="80.9766" id="Privado_SegReta" rx="2.5" ry="2.5" style="stroke:#181818;stroke-width:0.5;" width="566" x="7" y="115"/><ellipse cx="229.25" cy="131" fill="#ADD1B2" rx="11" ry="11" style="stroke:#181818;stroke-width:1.0;"/><path d="M231.7231,137.1431 Q231.1421,137.4419 230.5029,137.5913 Q229.8638,137.7407 229.1582,137.7407 Q226.6514,137.7407 225.3315,136.0889 Q224.0117,134.437 224.0117,131.3159 Q224.0117,128.1865 225.3315,126.5347 Q226.6514,124.8828 229.1582,124.8828 Q229.8638,124.8828 230.5112,125.0322 Q231.1587,125.1816 231.7231,125.4805 L231.7231,128.2031 Q231.0923,127.6221 230.4988,127.3523 Q229.9053,127.0825 229.2744,127.0825 Q227.9297,127.0825 227.2449,128.1492 Q226.5601,129.2158 226.5601,131.3159 Q226.5601,133.4077 227.2449,134.4744 Q227.9297,135.541 229.2744,135.541 Q229.9053,135.541 230.4988,135.2712 Q231.0923,135.0015 231.7231,134.4204 Z " fill="#000000"/><text fill="#000000" font-family="sans-serif" font-size="14" lengthAdjust="spacing" textLength="113" x="249.75" y="136.291">Privado_SegReta</text><line style="stroke:#181818;stroke-width:0.5;" x1="8" x2="572" y1="147" y2="147"/><line style="stroke:#181818;stroke-width:0.5;" x1="8" x2="572" y1="155" y2="155"/><ellipse cx="18" cy="166" fill="#84BE84" rx="3" ry="3" style="stroke:#038048;stroke-width:1.0;"/><text fill="#000000" font-family="sans-serif" font-size="14" lengthAdjust="spacing" textLength="540" x="27" y="172.5352">Privado_SegReta(rotulo:string, paiRef:Objeto, ptoIni:Ponto4D, ptoFim:Ponto4D)</text><ellipse cx="18" cy="182.4883" fill="#84BE84" rx="3" ry="3" style="stroke:#038048;stroke-width:1.0;"/><text fill="#000000" font-family="sans-serif" font-size="14" lengthAdjust="spacing" textLength="196" x="27" y="189.0234">«override» ToString() : string</text></g><!--MD5=[8b9e0d00865063ef789ad294aa32e6ea]
class ObjetoGeometria--><g id="elem_ObjetoGeometria"><rect fill="#F1F1F1" height="48" id="ObjetoGeometria" rx="2.5" ry="2.5" style="stroke:#181818;stroke-width:0.5;" width="149" x="215.5" y="7"/><ellipse cx="230.5" cy="23" fill="#ADD1B2" rx="11" ry="11" style="stroke:#181818;stroke-width:1.0;"/><path d="M232.9731,29.1431 Q232.3921,29.4419 231.7529,29.5913 Q231.1138,29.7407 230.4082,29.7407 Q227.9014,29.7407 226.5815,28.0889 Q225.2617,26.437 225.2617,23.3159 Q225.2617,20.1865 226.5815,18.5347 Q227.9014,16.8828 230.4082,16.8828 Q231.1138,16.8828 231.7612,17.0322 Q232.4087,17.1816 232.9731,17.4805 L232.9731,20.2031 Q232.3423,19.6221 231.7488,19.3523 Q231.1553,19.0825 230.5244,19.0825 Q229.1797,19.0825 228.4949,20.1492 Q227.8101,21.2158 227.8101,23.3159 Q227.8101,25.4077 228.4949,26.4744 Q229.1797,27.541 230.5244,27.541 Q231.1553,27.541 231.7488,27.2712 Q232.3423,27.0015 232.9731,26.4204 Z " fill="#000000"/><text fill="#000000" font-family="sans-serif" font-size="14" lengthAdjust="spacing" textLength="117" x="244.5" y="28.291">ObjetoGeometria</text><line style="stroke:#181818;stroke-width:0.5;" x1="216.5" x2="363.5" y1="39" y2="39"/><line style="stroke:#181818;stroke-width:0.5;" x1="216.5" x2="363.5" y1="47" y2="47"/></g><!--MD5=[fba79b035eb861c3c10e58ba51297e23]
reverse link ObjetoGeometria to Privado_SegReta--><g id="link_ObjetoGeometria_Privado_SegReta"><path codeLine="5" d="M290,75.2419 C290,88.1649 290,102.221 290,114.9063 " fill="none" id="ObjetoGeometria-backto-Privado_SegReta" style="stroke:#181818;stroke-width:1.0;"/><polygon fill="none" points="283.0001,75.0049,290,55.0049,297.0001,75.0048,283.0001,75.0049" style="stroke:#181818;stroke-width:1.0;"/></g><!--MD5=[d1d43a3de4249bc35550a007608ec87e]
@startuml Privado_SegReta
class Privado_SegReta {
    + Privado_SegReta(rotulo:string, paiRef:Objeto, ptoIni:Ponto4D, ptoFim:Ponto4D)
    + <<override>> ToString() : string
}
ObjetoGeometria <|- - Privado_SegReta
@enduml

PlantUML version 1.2022.5(Sat Apr 30 07:55:52 BRT 2022)
(GPL source distribution)
Java Runtime: OpenJDK Runtime Environment
JVM: OpenJDK 64-Bit Server VM
Default Encoding: UTF-8
Language: en
Country: BR
--></g></svg>