<?xml version="1.0" encoding="UTF-8" standalone="no"?><svg xmlns="http://www.w3.org/2000/svg" xmlns:xlink="http://www.w3.org/1999/xlink" contentStyleType="text/css" height="202px" preserveAspectRatio="none" style="width:572px;height:202px;background:#FFFFFF;" version="1.1" viewBox="0 0 572 202" width="572px" zoomAndPan="magnify"><defs/><g><!--MD5=[c3c34a12a27bba7e909822120bf61f6f]
class Privado_Circulo--><g id="elem_Privado_Circulo"><rect codeLine="1" fill="#F1F1F1" height="80.9766" id="Privado_Circulo" rx="2.5" ry="2.5" style="stroke:#181818;stroke-width:0.5;" width="558" x="7" y="115"/><ellipse cx="228.25" cy="131" fill="#ADD1B2" rx="11" ry="11" style="stroke:#181818;stroke-width:1.0;"/><path d="M230.7231,137.1431 Q230.1421,137.4419 229.5029,137.5913 Q228.8638,137.7407 228.1582,137.7407 Q225.6514,137.7407 224.3315,136.0889 Q223.0117,134.437 223.0117,131.3159 Q223.0117,128.1865 224.3315,126.5347 Q225.6514,124.8828 228.1582,124.8828 Q228.8638,124.8828 229.5112,125.0322 Q230.1587,125.1816 230.7231,125.4805 L230.7231,128.2031 Q230.0923,127.6221 229.4988,127.3523 Q228.9053,127.0825 228.2744,127.0825 Q226.9297,127.0825 226.2449,128.1492 Q225.5601,129.2158 225.5601,131.3159 Q225.5601,133.4077 226.2449,134.4744 Q226.9297,135.541 228.2744,135.541 Q228.9053,135.541 229.4988,135.2712 Q230.0923,135.0015 230.7231,134.4204 Z " fill="#000000"/><text fill="#000000" font-family="sans-serif" font-size="14" lengthAdjust="spacing" textLength="107" x="248.75" y="136.291">Privado_Circulo</text><line style="stroke:#181818;stroke-width:0.5;" x1="8" x2="564" y1="147" y2="147"/><line style="stroke:#181818;stroke-width:0.5;" x1="8" x2="564" y1="155" y2="155"/><ellipse cx="18" cy="166" fill="#84BE84" rx="3" ry="3" style="stroke:#038048;stroke-width:1.0;"/><text fill="#000000" font-family="sans-serif" font-size="14" lengthAdjust="spacing" textLength="532" x="27" y="172.5352">Privado_Circulo(rotulo:string, paiRef:Objeto, ptoCentro:Ponto4D, raio:double)</text><ellipse cx="18" cy="182.4883" fill="#84BE84" rx="3" ry="3" style="stroke:#038048;stroke-width:1.0;"/><text fill="#000000" font-family="sans-serif" font-size="14" lengthAdjust="spacing" textLength="196" x="27" y="189.0234">«override» ToString() : string</text></g><!--MD5=[8b9e0d00865063ef789ad294aa32e6ea]
class ObjetoGeometria--><g id="elem_ObjetoGeometria"><rect fill="#F1F1F1" height="48" id="ObjetoGeometria" rx="2.5" ry="2.5" style="stroke:#181818;stroke-width:0.5;" width="149" x="211.5" y="7"/><ellipse cx="226.5" cy="23" fill="#ADD1B2" rx="11" ry="11" style="stroke:#181818;stroke-width:1.0;"/><path d="M228.9731,29.1431 Q228.3921,29.4419 227.7529,29.5913 Q227.1138,29.7407 226.4082,29.7407 Q223.9014,29.7407 222.5815,28.0889 Q221.2617,26.437 221.2617,23.3159 Q221.2617,20.1865 222.5815,18.5347 Q223.9014,16.8828 226.4082,16.8828 Q227.1138,16.8828 227.7612,17.0322 Q228.4087,17.1816 228.9731,17.4805 L228.9731,20.2031 Q228.3423,19.6221 227.7488,19.3523 Q227.1553,19.0825 226.5244,19.0825 Q225.1797,19.0825 224.4949,20.1492 Q223.8101,21.2158 223.8101,23.3159 Q223.8101,25.4077 224.4949,26.4744 Q225.1797,27.541 226.5244,27.541 Q227.1553,27.541 227.7488,27.2712 Q228.3423,27.0015 228.9731,26.4204 Z " fill="#000000"/><text fill="#000000" font-family="sans-serif" font-size="14" lengthAdjust="spacing" textLength="117" x="240.5" y="28.291">ObjetoGeometria</text><line style="stroke:#181818;stroke-width:0.5;" x1="212.5" x2="359.5" y1="39" y2="39"/><line style="stroke:#181818;stroke-width:0.5;" x1="212.5" x2="359.5" y1="47" y2="47"/></g><!--MD5=[17d508597094ccb24ae336549ba236e1]
reverse link ObjetoGeometria to Privado_Circulo--><g id="link_ObjetoGeometria_Privado_Circulo"><path codeLine="5" d="M286,75.2419 C286,88.1649 286,102.221 286,114.9063 " fill="none" id="ObjetoGeometria-backto-Privado_Circulo" style="stroke:#181818;stroke-width:1.0;"/><polygon fill="none" points="279.0001,75.0049,286,55.0049,293.0001,75.0048,279.0001,75.0049" style="stroke:#181818;stroke-width:1.0;"/></g><!--MD5=[ed4d82712d6008785f6fcc0fa2ef2fbb]
@startuml Privado_Circulo
class Privado_Circulo {
    + Privado_Circulo(rotulo:string, paiRef:Objeto, ptoCentro:Ponto4D, raio:double)
    + <<override>> ToString() : string
}
ObjetoGeometria <|- - Privado_Circulo
@enduml

PlantUML version 1.2022.5(Sat Apr 30 07:55:52 BRT 2022)
(GPL source distribution)
Java Runtime: OpenJDK Runtime Environment
JVM: OpenJDK 64-Bit Server VM
Default Encoding: UTF-8
Language: en
Country: BR
--></g></svg>