<?xml version="1.0" encoding="UTF-8" standalone="no"?><svg xmlns="http://www.w3.org/2000/svg" xmlns:xlink="http://www.w3.org/1999/xlink" contentStyleType="text/css" height="491px" preserveAspectRatio="none" style="width:2624px;height:491px;background:#FFFFFF;" version="1.1" viewBox="0 0 2624 491" width="2624px" zoomAndPan="magnify"><defs/><g><!--MD5=[919386ce46a6a5a7c71af782f732246a]
class Mundo--><g id="elem_Mundo"><rect codeLine="1" fill="#F1F1F1" height="97.4648" id="Mundo" rx="2.5" ry="2.5" style="stroke:#181818;stroke-width:0.5;" width="310" x="869.5" y="222"/><ellipse cx="996.25" cy="238" fill="#ADD1B2" rx="11" ry="11" style="stroke:#181818;stroke-width:1.0;"/><path d="M998.7231,244.1431 Q998.1421,244.4419 997.5029,244.5913 Q996.8638,244.7407 996.1582,244.7407 Q993.6514,244.7407 992.3315,243.0889 Q991.0117,241.437 991.0117,238.3159 Q991.0117,235.1865 992.3315,233.5347 Q993.6514,231.8828 996.1582,231.8828 Q996.8638,231.8828 997.5112,232.0322 Q998.1587,232.1816 998.7231,232.4805 L998.7231,235.2031 Q998.0923,234.6221 997.4988,234.3523 Q996.9053,234.0825 996.2744,234.0825 Q994.9297,234.0825 994.2449,235.1492 Q993.5601,236.2158 993.5601,238.3159 Q993.5601,240.4077 994.2449,241.4744 Q994.9297,242.541 996.2744,242.541 Q996.9053,242.541 997.4988,242.2712 Q998.0923,242.0015 998.7231,241.4204 Z " fill="#000000"/><text fill="#000000" font-family="sans-serif" font-size="14" lengthAdjust="spacing" textLength="48" x="1016.75" y="243.291">Mundo</text><line style="stroke:#181818;stroke-width:0.5;" x1="870.5" x2="1178.5" y1="254" y2="254"/><text fill="#000000" font-family="sans-serif" font-size="14" lengthAdjust="spacing" textLength="85" x="875.5" y="271.5352">mouseX : int</text><text fill="#000000" font-family="sans-serif" font-size="14" lengthAdjust="spacing" textLength="85" x="875.5" y="288.0234">mouseY : int</text><line style="stroke:#181818;stroke-width:0.5;" x1="870.5" x2="1178.5" y1="294.9766" y2="294.9766"/><ellipse cx="880.5" cy="305.9766" fill="#84BE84" rx="3" ry="3" style="stroke:#038048;stroke-width:1.0;"/><text fill="#000000" font-family="sans-serif" font-size="14" lengthAdjust="spacing" text-decoration="underline" textLength="284" x="889.5" y="312.5117">GetInstance(width:int, height:int) : Mundo</text></g><!--MD5=[175f95e045c1a44aed0b30df3abe0e5c]
class Program--><g id="elem_Program"><rect codeLine="6" fill="#F1F1F1" height="64.4883" id="Program" rx="2.5" ry="2.5" style="stroke:#181818;stroke-width:0.5;" width="180" x="63.5" y="40"/><ellipse cx="119.75" cy="56" fill="#ADD1B2" rx="11" ry="11" style="stroke:#181818;stroke-width:1.0;"/><path d="M122.2231,62.1431 Q121.6421,62.4419 121.0029,62.5913 Q120.3638,62.7407 119.6582,62.7407 Q117.1514,62.7407 115.8315,61.0889 Q114.5117,59.437 114.5117,56.3159 Q114.5117,53.1865 115.8315,51.5347 Q117.1514,49.8828 119.6582,49.8828 Q120.3638,49.8828 121.0112,50.0322 Q121.6587,50.1816 122.2231,50.4805 L122.2231,53.2031 Q121.5923,52.6221 120.9988,52.3523 Q120.4053,52.0825 119.7744,52.0825 Q118.4297,52.0825 117.7449,53.1492 Q117.0601,54.2158 117.0601,56.3159 Q117.0601,58.4077 117.7449,59.4744 Q118.4297,60.541 119.7744,60.541 Q120.4053,60.541 120.9988,60.2712 Q121.5923,60.0015 122.2231,59.4204 Z " fill="#000000"/><text fill="#000000" font-family="sans-serif" font-size="14" lengthAdjust="spacing" textLength="59" x="140.25" y="61.291">Program</text><line style="stroke:#181818;stroke-width:0.5;" x1="64.5" x2="242.5" y1="72" y2="72"/><line style="stroke:#181818;stroke-width:0.5;" x1="64.5" x2="242.5" y1="80" y2="80"/><text fill="#000000" font-family="sans-serif" font-size="14" lengthAdjust="spacing" text-decoration="underline" textLength="168" x="69.5" y="97.5352">Main(args:string[]) : void</text></g><!--MD5=[d0074d293e9645ff4ed5f25f47c5773b]
class GameWindow--><g id="elem_GameWindow"><rect fill="#F1F1F1" height="48" id="GameWindow" rx="2.5" ry="2.5" style="stroke:#181818;stroke-width:0.5;" width="125" x="962" y="48"/><ellipse cx="977" cy="64" fill="#ADD1B2" rx="11" ry="11" style="stroke:#181818;stroke-width:1.0;"/><path d="M979.4731,70.1431 Q978.8921,70.4419 978.2529,70.5913 Q977.6138,70.7407 976.9082,70.7407 Q974.4014,70.7407 973.0815,69.0889 Q971.7617,67.437 971.7617,64.3159 Q971.7617,61.1865 973.0815,59.5347 Q974.4014,57.8828 976.9082,57.8828 Q977.6138,57.8828 978.2612,58.0322 Q978.9087,58.1816 979.4731,58.4805 L979.4731,61.2031 Q978.8423,60.6221 978.2488,60.3523 Q977.6553,60.0825 977.0244,60.0825 Q975.6797,60.0825 974.9949,61.1492 Q974.3101,62.2158 974.3101,64.3159 Q974.3101,66.4077 974.9949,67.4744 Q975.6797,68.541 977.0244,68.541 Q977.6553,68.541 978.2488,68.2712 Q978.8423,68.0015 979.4731,67.4204 Z " fill="#000000"/><text fill="#000000" font-family="sans-serif" font-size="14" lengthAdjust="spacing" textLength="93" x="991" y="69.291">GameWindow</text><line style="stroke:#181818;stroke-width:0.5;" x1="963" x2="1086" y1="80" y2="80"/><line style="stroke:#181818;stroke-width:0.5;" x1="963" x2="1086" y1="88" y2="88"/></g><!--MD5=[3051a6a8f877a755a60c7cfd1e6f410a]
class Objeto--><g id="elem_Objeto"><rect codeLine="10" fill="#F1F1F1" height="130.4414" id="Objeto" rx="2.5" ry="2.5" style="stroke:#181818;stroke-width:0.5;" width="271" x="1299" y="7"/><ellipse cx="1407.25" cy="23" fill="#A9DCDF" rx="11" ry="11" style="stroke:#181818;stroke-width:1.0;"/><path d="M1407.1133,18.3481 L1405.9595,23.4199 L1408.2754,23.4199 Z M1405.6191,16.1069 L1408.6157,16.1069 L1411.9609,28.5 L1409.5122,28.5 L1408.7485,25.437 L1405.4697,25.437 L1404.7227,28.5 L1402.2739,28.5 Z " fill="#000000"/><text fill="#000000" font-family="sans-serif" font-size="14" font-style="italic" lengthAdjust="spacing" textLength="46" x="1427.75" y="28.291">Objeto</text><line style="stroke:#181818;stroke-width:0.5;" x1="1300" x2="1569" y1="39" y2="39"/><ellipse cx="1310" cy="50" fill="none" rx="3" ry="3" style="stroke:#038048;stroke-width:1.0;"/><text fill="#000000" font-family="sans-serif" font-size="14" lengthAdjust="spacing" textLength="245" x="1319" y="56.5352">PrimitivaTamanho : float «get» «set»</text><line style="stroke:#181818;stroke-width:0.5;" x1="1300" x2="1569" y1="63.4883" y2="63.4883"/><ellipse cx="1310" cy="74.4883" fill="#84BE84" rx="3" ry="3" style="stroke:#038048;stroke-width:1.0;"/><text fill="#000000" font-family="sans-serif" font-size="14" lengthAdjust="spacing" textLength="243" x="1319" y="81.0234">Objeto(rotulo:string, paiRef:Objeto)</text><ellipse cx="1310" cy="90.9766" fill="#84BE84" rx="3" ry="3" style="stroke:#038048;stroke-width:1.0;"/><text fill="#000000" font-family="sans-serif" font-size="14" lengthAdjust="spacing" textLength="116" x="1319" y="97.5117">Desenhar() : void</text><ellipse cx="1310" cy="107.4648" fill="#84BE84" rx="3" ry="3" style="stroke:#038048;stroke-width:1.0;"/><text fill="#000000" font-family="sans-serif" font-size="14" lengthAdjust="spacing" textLength="232" x="1319" y="114">FilhoAdicionar(filho:Objeto) : void</text><ellipse cx="1310" cy="123.9531" fill="#84BE84" rx="3" ry="3" style="stroke:#038048;stroke-width:1.0;"/><text fill="#000000" font-family="sans-serif" font-size="14" lengthAdjust="spacing" textLength="226" x="1319" y="130.4883">FilhoRemover(filho:Objeto) : void</text></g><!--MD5=[9ac43fafcd0ede942dc8e681a30a1b52]
class Cor--><g id="elem_Cor"><rect fill="#F1F1F1" height="48" id="Cor" rx="2.5" ry="2.5" style="stroke:#181818;stroke-width:0.5;" width="57" x="1215" y="246.5"/><ellipse cx="1230" cy="262.5" fill="#ADD1B2" rx="11" ry="11" style="stroke:#181818;stroke-width:1.0;"/><path d="M1232.4731,268.6431 Q1231.8921,268.9419 1231.2529,269.0913 Q1230.6138,269.2407 1229.9082,269.2407 Q1227.4014,269.2407 1226.0815,267.5889 Q1224.7617,265.937 1224.7617,262.8159 Q1224.7617,259.6865 1226.0815,258.0347 Q1227.4014,256.3828 1229.9082,256.3828 Q1230.6138,256.3828 1231.2612,256.5322 Q1231.9087,256.6816 1232.4731,256.9805 L1232.4731,259.7031 Q1231.8423,259.1221 1231.2488,258.8523 Q1230.6553,258.5825 1230.0244,258.5825 Q1228.6797,258.5825 1227.9949,259.6492 Q1227.3101,260.7158 1227.3101,262.8159 Q1227.3101,264.9077 1227.9949,265.9744 Q1228.6797,267.041 1230.0244,267.041 Q1230.6553,267.041 1231.2488,266.7712 Q1231.8423,266.5015 1232.4731,265.9204 Z " fill="#000000"/><text fill="#000000" font-family="sans-serif" font-size="14" lengthAdjust="spacing" textLength="25" x="1244" y="267.791">Cor</text><line style="stroke:#181818;stroke-width:0.5;" x1="1216" x2="1271" y1="278.5" y2="278.5"/><line style="stroke:#181818;stroke-width:0.5;" x1="1216" x2="1271" y1="286.5" y2="286.5"/></g><!--MD5=[38e8fced9e943fac45fdba9ac5db991f]
class PrimitiveType--><g id="elem_PrimitiveType"><rect fill="#F1F1F1" height="48" id="PrimitiveType" rx="2.5" ry="2.5" style="stroke:#181818;stroke-width:0.5;" width="124" x="1307.5" y="246.5"/><ellipse cx="1322.5" cy="262.5" fill="#ADD1B2" rx="11" ry="11" style="stroke:#181818;stroke-width:1.0;"/><path d="M1324.9731,268.6431 Q1324.3921,268.9419 1323.7529,269.0913 Q1323.1138,269.2407 1322.4082,269.2407 Q1319.9014,269.2407 1318.5815,267.5889 Q1317.2617,265.937 1317.2617,262.8159 Q1317.2617,259.6865 1318.5815,258.0347 Q1319.9014,256.3828 1322.4082,256.3828 Q1323.1138,256.3828 1323.7612,256.5322 Q1324.4087,256.6816 1324.9731,256.9805 L1324.9731,259.7031 Q1324.3423,259.1221 1323.7488,258.8523 Q1323.1553,258.5825 1322.5244,258.5825 Q1321.1797,258.5825 1320.4949,259.6492 Q1319.8101,260.7158 1319.8101,262.8159 Q1319.8101,264.9077 1320.4949,265.9744 Q1321.1797,267.041 1322.5244,267.041 Q1323.1553,267.041 1323.7488,266.7712 Q1324.3423,266.5015 1324.9731,265.9204 Z " fill="#000000"/><text fill="#000000" font-family="sans-serif" font-size="14" lengthAdjust="spacing" textLength="92" x="1336.5" y="267.791">PrimitiveType</text><line style="stroke:#181818;stroke-width:0.5;" x1="1308.5" x2="1430.5" y1="278.5" y2="278.5"/><line style="stroke:#181818;stroke-width:0.5;" x1="1308.5" x2="1430.5" y1="286.5" y2="286.5"/></g><!--MD5=[ea10f8dc465baf5e542f54928f2443c8]
class BBox--><g id="elem_BBox"><rect fill="#F1F1F1" height="48" id="BBox" rx="2.5" ry="2.5" style="stroke:#181818;stroke-width:0.5;" width="66" x="1466.5" y="246.5"/><ellipse cx="1481.5" cy="262.5" fill="#ADD1B2" rx="11" ry="11" style="stroke:#181818;stroke-width:1.0;"/><path d="M1483.9731,268.6431 Q1483.3921,268.9419 1482.7529,269.0913 Q1482.1138,269.2407 1481.4082,269.2407 Q1478.9014,269.2407 1477.5815,267.5889 Q1476.2617,265.937 1476.2617,262.8159 Q1476.2617,259.6865 1477.5815,258.0347 Q1478.9014,256.3828 1481.4082,256.3828 Q1482.1138,256.3828 1482.7612,256.5322 Q1483.4087,256.6816 1483.9731,256.9805 L1483.9731,259.7031 Q1483.3423,259.1221 1482.7488,258.8523 Q1482.1553,258.5825 1481.5244,258.5825 Q1480.1797,258.5825 1479.4949,259.6492 Q1478.8101,260.7158 1478.8101,262.8159 Q1478.8101,264.9077 1479.4949,265.9744 Q1480.1797,267.041 1481.5244,267.041 Q1482.1553,267.041 1482.7488,266.7712 Q1483.3423,266.5015 1483.9731,265.9204 Z " fill="#000000"/><text fill="#000000" font-family="sans-serif" font-size="14" lengthAdjust="spacing" textLength="34" x="1495.5" y="267.791">BBox</text><line style="stroke:#181818;stroke-width:0.5;" x1="1467.5" x2="1531.5" y1="278.5" y2="278.5"/><line style="stroke:#181818;stroke-width:0.5;" x1="1467.5" x2="1531.5" y1="286.5" y2="286.5"/></g><!--MD5=[8b9e0d00865063ef789ad294aa32e6ea]
class ObjetoGeometria--><g id="elem_ObjetoGeometria"><rect codeLine="20" fill="#F1F1F1" height="146.9297" id="ObjetoGeometria" rx="2.5" ry="2.5" style="stroke:#181818;stroke-width:0.5;" width="340" x="1567.5" y="197"/><ellipse cx="1674.75" cy="213" fill="#A9DCDF" rx="11" ry="11" style="stroke:#181818;stroke-width:1.0;"/><path d="M1674.6133,208.3481 L1673.4595,213.4199 L1675.7754,213.4199 Z M1673.1191,206.1069 L1676.1157,206.1069 L1679.4609,218.5 L1677.0122,218.5 L1676.2485,215.437 L1672.9697,215.437 L1672.2227,218.5 L1669.7739,218.5 Z " fill="#000000"/><text fill="#000000" font-family="sans-serif" font-size="14" font-style="italic" lengthAdjust="spacing" textLength="117" x="1695.25" y="218.291">ObjetoGeometria</text><line style="stroke:#181818;stroke-width:0.5;" x1="1568.5" x2="1906.5" y1="229" y2="229"/><line style="stroke:#181818;stroke-width:0.5;" x1="1568.5" x2="1906.5" y1="237" y2="237"/><ellipse cx="1578.5" cy="248" fill="#84BE84" rx="3" ry="3" style="stroke:#038048;stroke-width:1.0;"/><text fill="#000000" font-family="sans-serif" font-size="14" lengthAdjust="spacing" textLength="314" x="1587.5" y="254.5352">ObjetoGeometria(rotulo:string, paiRef:Objeto)</text><ellipse cx="1578.5" cy="264.4883" fill="#84BE84" rx="3" ry="3" style="stroke:#038048;stroke-width:1.0;"/><text fill="#000000" font-family="sans-serif" font-size="14" lengthAdjust="spacing" textLength="250" x="1587.5" y="271.0234">PontosAdicionar(pto:Ponto4D) : void</text><ellipse cx="1578.5" cy="280.9766" fill="#84BE84" rx="3" ry="3" style="stroke:#038048;stroke-width:1.0;"/><text fill="#000000" font-family="sans-serif" font-size="14" lengthAdjust="spacing" textLength="203" x="1587.5" y="287.5117">PontosRemoverUltimo() : void</text><ellipse cx="1578.5" cy="297.4648" fill="#84BE84" rx="3" ry="3" style="stroke:#038048;stroke-width:1.0;"/><text fill="#000000" font-family="sans-serif" font-size="14" lengthAdjust="spacing" textLength="173" x="1587.5" y="304">PontosUltimo() : Ponto4D</text><ellipse cx="1578.5" cy="313.9531" fill="#84BE84" rx="3" ry="3" style="stroke:#038048;stroke-width:1.0;"/><text fill="#000000" font-family="sans-serif" font-size="14" lengthAdjust="spacing" textLength="314" x="1587.5" y="320.4883">PontosAlterar(pto:Ponto4D, posicao:int) : void</text><ellipse cx="1578.5" cy="330.4414" fill="#84BE84" rx="3" ry="3" style="stroke:#038048;stroke-width:1.0;"/><text fill="#000000" font-family="sans-serif" font-size="14" lengthAdjust="spacing" textLength="196" x="1587.5" y="336.9766">«override» ToString() : string</text></g><!--MD5=[b6968d6f0311dc2ba07018bef6e7bfd3]
class Retangulo--><g id="elem_Retangulo"><rect codeLine="29" fill="#F1F1F1" height="80.9766" id="Retangulo" rx="2.5" ry="2.5" style="stroke:#181818;stroke-width:0.5;" width="569" x="854" y="404"/><ellipse cx="1099.25" cy="420" fill="#ADD1B2" rx="11" ry="11" style="stroke:#181818;stroke-width:1.0;"/><path d="M1101.7231,426.1431 Q1101.1421,426.4419 1100.5029,426.5913 Q1099.8638,426.7407 1099.1582,426.7407 Q1096.6514,426.7407 1095.3315,425.0889 Q1094.0117,423.437 1094.0117,420.3159 Q1094.0117,417.1865 1095.3315,415.5347 Q1096.6514,413.8828 1099.1582,413.8828 Q1099.8638,413.8828 1100.5112,414.0322 Q1101.1587,414.1816 1101.7231,414.4805 L1101.7231,417.2031 Q1101.0923,416.6221 1100.4988,416.3523 Q1099.9053,416.0825 1099.2744,416.0825 Q1097.9297,416.0825 1097.2449,417.1492 Q1096.5601,418.2158 1096.5601,420.3159 Q1096.5601,422.4077 1097.2449,423.4744 Q1097.9297,424.541 1099.2744,424.541 Q1099.9053,424.541 1100.4988,424.2712 Q1101.0923,424.0015 1101.7231,423.4204 Z " fill="#000000"/><text fill="#000000" font-family="sans-serif" font-size="14" lengthAdjust="spacing" textLength="70" x="1119.75" y="425.291">Retangulo</text><line style="stroke:#181818;stroke-width:0.5;" x1="855" x2="1422" y1="436" y2="436"/><line style="stroke:#181818;stroke-width:0.5;" x1="855" x2="1422" y1="444" y2="444"/><ellipse cx="865" cy="455" fill="#84BE84" rx="3" ry="3" style="stroke:#038048;stroke-width:1.0;"/><text fill="#000000" font-family="sans-serif" font-size="14" lengthAdjust="spacing" textLength="543" x="874" y="461.5352">Retangulo(rotulo:string, paiRef:Objeto, ptoInfEsq:Ponto4D, ptoSupDir:Ponto4D)</text><ellipse cx="865" cy="471.4883" fill="#84BE84" rx="3" ry="3" style="stroke:#038048;stroke-width:1.0;"/><text fill="#000000" font-family="sans-serif" font-size="14" lengthAdjust="spacing" textLength="196" x="874" y="478.0234">«override» ToString() : string</text></g><!--MD5=[7285b5824e67b16848be7ff6288389e6]
class Utilitario--><g id="elem_Utilitario"><rect codeLine="34" fill="#F1F1F1" height="64.4883" id="Utilitario" rx="2.5" ry="2.5" style="stroke:#181818;stroke-width:0.5;" width="171" x="279" y="40"/><ellipse cx="330.75" cy="56" fill="#A9DCDF" rx="11" ry="11" style="stroke:#181818;stroke-width:1.0;"/><path d="M330.6133,51.3481 L329.4595,56.4199 L331.7754,56.4199 Z M329.1191,49.1069 L332.1157,49.1069 L335.4609,61.5 L333.0122,61.5 L332.2485,58.437 L328.9697,58.437 L328.2227,61.5 L325.7739,61.5 Z " fill="#000000"/><text fill="#000000" font-family="sans-serif" font-size="14" font-style="italic" lengthAdjust="spacing" textLength="59" x="351.25" y="61.291">Utilitario</text><line style="stroke:#181818;stroke-width:0.5;" x1="280" x2="449" y1="72" y2="72"/><line style="stroke:#181818;stroke-width:0.5;" x1="280" x2="449" y1="80" y2="80"/><ellipse cx="290" cy="91" fill="#84BE84" rx="3" ry="3" style="stroke:#038048;stroke-width:1.0;"/><text fill="#000000" font-family="sans-serif" font-size="14" lengthAdjust="spacing" text-decoration="underline" textLength="145" x="299" y="97.5352">AjudaTeclado() : void</text></g><!--MD5=[5650d724fe4a8bb070f5bb710507d40c]
class Privado_BBox--><g id="elem_Privado_BBox"><rect codeLine="37" fill="#F1F1F1" height="64.4883" id="Privado_BBox" rx="2.5" ry="2.5" style="stroke:#181818;stroke-width:0.5;" width="293" x="7" y="238.5"/><ellipse cx="103.25" cy="254.5" fill="#A9DCDF" rx="11" ry="11" style="stroke:#181818;stroke-width:1.0;"/><path d="M103.1133,249.8481 L101.9595,254.9199 L104.2754,254.9199 Z M101.6191,247.6069 L104.6157,247.6069 L107.9609,260 L105.5122,260 L104.7485,256.937 L101.4697,256.937 L100.7227,260 L98.2739,260 Z " fill="#000000"/><text fill="#000000" font-family="sans-serif" font-size="14" font-style="italic" lengthAdjust="spacing" textLength="92" x="123.75" y="259.791">Privado_BBox</text><line style="stroke:#181818;stroke-width:0.5;" x1="8" x2="299" y1="270.5" y2="270.5"/><line style="stroke:#181818;stroke-width:0.5;" x1="8" x2="299" y1="278.5" y2="278.5"/><ellipse cx="18" cy="289.5" fill="#84BE84" rx="3" ry="3" style="stroke:#038048;stroke-width:1.0;"/><text fill="#000000" font-family="sans-serif" font-size="14" lengthAdjust="spacing" text-decoration="underline" textLength="267" x="27" y="296.0352">Dentro(bBox:BBox, pto:Ponto4D) : bool</text></g><!--MD5=[c3c34a12a27bba7e909822120bf61f6f]
class Privado_Circulo--><g id="elem_Privado_Circulo"><rect codeLine="40" fill="#F1F1F1" height="80.9766" id="Privado_Circulo" rx="2.5" ry="2.5" style="stroke:#181818;stroke-width:0.5;" width="558" x="1458.5" y="404"/><ellipse cx="1679.75" cy="420" fill="#ADD1B2" rx="11" ry="11" style="stroke:#181818;stroke-width:1.0;"/><path d="M1682.2231,426.1431 Q1681.6421,426.4419 1681.0029,426.5913 Q1680.3638,426.7407 1679.6582,426.7407 Q1677.1514,426.7407 1675.8315,425.0889 Q1674.5117,423.437 1674.5117,420.3159 Q1674.5117,417.1865 1675.8315,415.5347 Q1677.1514,413.8828 1679.6582,413.8828 Q1680.3638,413.8828 1681.0112,414.0322 Q1681.6587,414.1816 1682.2231,414.4805 L1682.2231,417.2031 Q1681.5923,416.6221 1680.9988,416.3523 Q1680.4053,416.0825 1679.7744,416.0825 Q1678.4297,416.0825 1677.7449,417.1492 Q1677.0601,418.2158 1677.0601,420.3159 Q1677.0601,422.4077 1677.7449,423.4744 Q1678.4297,424.541 1679.7744,424.541 Q1680.4053,424.541 1680.9988,424.2712 Q1681.5923,424.0015 1682.2231,423.4204 Z " fill="#000000"/><text fill="#000000" font-family="sans-serif" font-size="14" lengthAdjust="spacing" textLength="107" x="1700.25" y="425.291">Privado_Circulo</text><line style="stroke:#181818;stroke-width:0.5;" x1="1459.5" x2="2015.5" y1="436" y2="436"/><line style="stroke:#181818;stroke-width:0.5;" x1="1459.5" x2="2015.5" y1="444" y2="444"/><ellipse cx="1469.5" cy="455" fill="#84BE84" rx="3" ry="3" style="stroke:#038048;stroke-width:1.0;"/><text fill="#000000" font-family="sans-serif" font-size="14" lengthAdjust="spacing" textLength="532" x="1478.5" y="461.5352">Privado_Circulo(rotulo:string, paiRef:Objeto, ptoCentro:Ponto4D, raio:double)</text><ellipse cx="1469.5" cy="471.4883" fill="#84BE84" rx="3" ry="3" style="stroke:#038048;stroke-width:1.0;"/><text fill="#000000" font-family="sans-serif" font-size="14" lengthAdjust="spacing" textLength="196" x="1478.5" y="478.0234">«override» ToString() : string</text></g><!--MD5=[00d138ea5291476c72e7cf5c7f606832]
class Privado_Matematica--><g id="elem_Privado_Matematica"><rect codeLine="45" fill="#F1F1F1" height="130.4414" id="Privado_Matematica" rx="2.5" ry="2.5" style="stroke:#181818;stroke-width:0.5;" width="499" x="335" y="205.5"/><ellipse cx="512.25" cy="221.5" fill="#A9DCDF" rx="11" ry="11" style="stroke:#181818;stroke-width:1.0;"/><path d="M512.1133,216.8481 L510.9595,221.9199 L513.2754,221.9199 Z M510.6191,214.6069 L513.6157,214.6069 L516.9609,227 L514.5122,227 L513.7485,223.937 L510.4697,223.937 L509.7227,227 L507.2739,227 Z " fill="#000000"/><text fill="#000000" font-family="sans-serif" font-size="14" font-style="italic" lengthAdjust="spacing" textLength="136" x="532.75" y="226.791">Privado_Matematica</text><line style="stroke:#181818;stroke-width:0.5;" x1="336" x2="833" y1="237.5" y2="237.5"/><line style="stroke:#181818;stroke-width:0.5;" x1="336" x2="833" y1="245.5" y2="245.5"/><ellipse cx="346" cy="256.5" fill="#84BE84" rx="3" ry="3" style="stroke:#038048;stroke-width:1.0;"/><text fill="#000000" font-family="sans-serif" font-size="14" lengthAdjust="spacing" text-decoration="underline" textLength="400" x="355" y="263.0352">DistanciaEuclidiana(pto1:Ponto4D, pto2:Ponto4D) : double</text><ellipse cx="346" cy="272.9883" fill="#84BE84" rx="3" ry="3" style="stroke:#038048;stroke-width:1.0;"/><text fill="#000000" font-family="sans-serif" font-size="14" lengthAdjust="spacing" text-decoration="underline" textLength="458" x="355" y="279.5234">DistanciaEuclidianaSemRaiz(pto1:Ponto4D, pto2:Ponto4D) : double</text><ellipse cx="346" cy="289.4766" fill="#84BE84" rx="3" ry="3" style="stroke:#038048;stroke-width:1.0;"/><text fill="#000000" font-family="sans-serif" font-size="14" lengthAdjust="spacing" text-decoration="underline" textLength="423" x="355" y="296.0117">ScanLineInterseccao(yi:double, y1:double, y2:double) : double</text><ellipse cx="346" cy="305.9648" fill="#84BE84" rx="3" ry="3" style="stroke:#038048;stroke-width:1.0;"/><text fill="#000000" font-family="sans-serif" font-size="14" lengthAdjust="spacing" text-decoration="underline" textLength="410" x="355" y="312.5">ScanLineCalculaXi(x1:double, x2:double, ti:double) : double</text><ellipse cx="346" cy="322.4531" fill="#84BE84" rx="3" ry="3" style="stroke:#038048;stroke-width:1.0;"/><text fill="#000000" font-family="sans-serif" font-size="14" lengthAdjust="spacing" text-decoration="underline" textLength="473" x="355" y="328.9883">ScanLine(ptoClique:Ponto4D, ptoIni:Ponto4D, ptoFim:Ponto4D) : bool</text></g><!--MD5=[48de76ac9e45cd2dd14a095e4e7d40a3]
class Privado_SegReta--><g id="elem_Privado_SegReta"><rect codeLine="52" fill="#F1F1F1" height="80.9766" id="Privado_SegReta" rx="2.5" ry="2.5" style="stroke:#181818;stroke-width:0.5;" width="566" x="2051.5" y="404"/><ellipse cx="2273.75" cy="420" fill="#ADD1B2" rx="11" ry="11" style="stroke:#181818;stroke-width:1.0;"/><path d="M2276.2231,426.1431 Q2275.6421,426.4419 2275.0029,426.5913 Q2274.3638,426.7407 2273.6582,426.7407 Q2271.1514,426.7407 2269.8315,425.0889 Q2268.5117,423.437 2268.5117,420.3159 Q2268.5117,417.1865 2269.8315,415.5347 Q2271.1514,413.8828 2273.6582,413.8828 Q2274.3638,413.8828 2275.0112,414.0322 Q2275.6587,414.1816 2276.2231,414.4805 L2276.2231,417.2031 Q2275.5923,416.6221 2274.9988,416.3523 Q2274.4053,416.0825 2273.7744,416.0825 Q2272.4297,416.0825 2271.7449,417.1492 Q2271.0601,418.2158 2271.0601,420.3159 Q2271.0601,422.4077 2271.7449,423.4744 Q2272.4297,424.541 2273.7744,424.541 Q2274.4053,424.541 2274.9988,424.2712 Q2275.5923,424.0015 2276.2231,423.4204 Z " fill="#000000"/><text fill="#000000" font-family="sans-serif" font-size="14" lengthAdjust="spacing" textLength="113" x="2294.25" y="425.291">Privado_SegReta</text><line style="stroke:#181818;stroke-width:0.5;" x1="2052.5" x2="2616.5" y1="436" y2="436"/><line style="stroke:#181818;stroke-width:0.5;" x1="2052.5" x2="2616.5" y1="444" y2="444"/><ellipse cx="2062.5" cy="455" fill="#84BE84" rx="3" ry="3" style="stroke:#038048;stroke-width:1.0;"/><text fill="#000000" font-family="sans-serif" font-size="14" lengthAdjust="spacing" textLength="540" x="2071.5" y="461.5352">Privado_SegReta(rotulo:string, paiRef:Objeto, ptoIni:Ponto4D, ptoFim:Ponto4D)</text><ellipse cx="2062.5" cy="471.4883" fill="#84BE84" rx="3" ry="3" style="stroke:#038048;stroke-width:1.0;"/><text fill="#000000" font-family="sans-serif" font-size="14" lengthAdjust="spacing" textLength="196" x="2071.5" y="478.0234">«override» ToString() : string</text></g><!--MD5=[3c0e7ba23ee97378347dee0d1da8e8b4]
reverse link GameWindow to Mundo--><g id="link_GameWindow_Mundo"><path codeLine="9" d="M1024.5,116.4785 C1024.5,147.7058 1024.5,189.4652 1024.5,221.6236 " fill="none" id="GameWindow-backto-Mundo" style="stroke:#181818;stroke-width:1.0;"/><polygon fill="none" points="1017.5001,116.34,1024.5,96.34,1031.5001,116.34,1017.5001,116.34" style="stroke:#181818;stroke-width:1.0;"/></g><!--MD5=[abb974133f481326665ca9332982bcdd]
link Objeto to Cor--><g id="link_Objeto_Cor"><path codeLine="17" d="M1351.0785,137.2844 C1330.1709,155.5091 1308.5692,176.0804 1290.5,197 C1278.5667,210.8158 1267.4516,227.9152 1259.0296,242.1435 " fill="none" id="Objeto-to-Cor" style="stroke:#181818;stroke-width:1.0;"/><polygon fill="#181818" points="1256.5044,246.4602,1264.5014,240.7115,1259.0291,242.1444,1257.5962,236.672,1256.5044,246.4602" style="stroke:#181818;stroke-width:1.0;"/><text fill="#000000" font-family="sans-serif" font-size="13" lengthAdjust="spacing" textLength="64" x="1187.3993" y="235.594">ObjetoCor</text></g><!--MD5=[7e8630a5cd5ea67eab064634d547f460]
link Objeto to PrimitiveType--><g id="link_Objeto_PrimitiveType"><path codeLine="18" d="M1413.1265,137.2713 C1401.6314,172.3758 1388.0242,213.93 1379.1001,241.1827 " fill="none" id="Objeto-to-PrimitiveType" style="stroke:#181818;stroke-width:1.0;"/><polygon fill="#181818" points="1377.4899,246.1002,1384.0923,238.7921,1379.046,241.3485,1376.4896,236.3023,1377.4899,246.1002" style="stroke:#181818;stroke-width:1.0;"/><text fill="#000000" font-family="sans-serif" font-size="13" lengthAdjust="spacing" textLength="83" x="1286.3218" y="235.9308">PrimitivaTipo</text></g><!--MD5=[ff34dbfed28166dc938de446fd84e6c0]
link Objeto to BBox--><g id="link_Objeto_BBox"><path codeLine="19" d="M1455.8735,137.2713 C1467.3686,172.3758 1480.9758,213.93 1489.8999,241.1827 " fill="none" id="Objeto-to-BBox" style="stroke:#181818;stroke-width:1.0;"/><polygon fill="#181818" points="1491.5101,246.1002,1492.5104,236.3023,1489.954,241.3485,1484.9077,238.7921,1491.5101,246.1002" style="stroke:#181818;stroke-width:1.0;"/><text fill="#000000" font-family="sans-serif" font-size="13" lengthAdjust="spacing" textLength="30" x="1455.9063" y="235.9308">BBox</text></g><!--MD5=[a03c7e7dbc7aa919221c9dfab59c60ca]
reverse link Objeto to ObjetoGeometria--><g id="link_Objeto_ObjetoGeometria"><path codeLine="28" d="M1551.1562,148.4233 C1575.4776,164.3566 1601.0658,181.1198 1625.2248,196.9468 " fill="none" id="Objeto-backto-ObjetoGeometria" style="stroke:#181818;stroke-width:1.0;"/><polygon fill="none" points="1547.0269,154.0865,1534.1332,137.2713,1554.6988,142.3758,1547.0269,154.0865" style="stroke:#181818;stroke-width:1.0;"/></g><!--MD5=[26236c37487edb4672de193cef5bd1db]
reverse link ObjetoGeometria to Retangulo--><g id="link_ObjetoGeometria_Retangulo"><path codeLine="33" d="M1548.2854,344.4882 C1467.0971,369.7298 1393.283,388.5965 1327.9082,403.9607 " fill="none" id="ObjetoGeometria-backto-Retangulo" style="stroke:#181818;stroke-width:1.0;"/><polygon fill="none" points="1546.2125,337.8022,1567.3916,338.4723,1550.4172,351.1559,1546.2125,337.8022" style="stroke:#181818;stroke-width:1.0;"/></g><!--MD5=[17d508597094ccb24ae336549ba236e1]
reverse link ObjetoGeometria to Privado_Circulo--><g id="link_ObjetoGeometria_Privado_Circulo"><path codeLine="44" d="M1737.5,364.289 C1737.5,378.1097 1737.5,391.7005 1737.5,403.6549 " fill="none" id="ObjetoGeometria-backto-Privado_Circulo" style="stroke:#181818;stroke-width:1.0;"/><polygon fill="none" points="1730.5001,364.0395,1737.5,344.0395,1744.5001,364.0394,1730.5001,364.0395" style="stroke:#181818;stroke-width:1.0;"/></g><!--MD5=[fba79b035eb861c3c10e58ba51297e23]
reverse link ObjetoGeometria to Privado_SegReta--><g id="link_ObjetoGeometria_Privado_SegReta"><path codeLine="56" d="M1927.2452,325.8026 C2014.1947,351.1447 2115.4052,380.6432 2195.1776,403.8935 " fill="none" id="ObjetoGeometria-backto-Privado_SegReta" style="stroke:#181818;stroke-width:1.0;"/><polygon fill="none" points="1925.0196,332.4453,1907.7773,320.1286,1928.9371,319.0045,1925.0196,332.4453" style="stroke:#181818;stroke-width:1.0;"/></g><!--MD5=[1fa264fedb7d6c5cea87a041676e956c]
@startuml CG_N2
class Mundo {
    + {static} GetInstance(width:int, height:int) : Mundo
    mouseX : int
    mouseY : int
}
class Program {
    {static} Main(args:string[]) : void
}
GameWindow <|- - Mundo
abstract class Objeto {
    + PrimitivaTamanho : float <<get>> <<set>>
    + Objeto(rotulo:string, paiRef:Objeto)
    + Desenhar() : void
    + FilhoAdicionar(filho:Objeto) : void
    + FilhoRemover(filho:Objeto) : void
}
Objeto - -> "ObjetoCor" Cor
Objeto - -> "PrimitivaTipo" PrimitiveType
Objeto - -> "BBox" BBox
abstract class ObjetoGeometria {
    + ObjetoGeometria(rotulo:string, paiRef:Objeto)
    + PontosAdicionar(pto:Ponto4D) : void
    + PontosRemoverUltimo() : void
    + PontosUltimo() : Ponto4D
    + PontosAlterar(pto:Ponto4D, posicao:int) : void
    + <<override>> ToString() : string
}
Objeto <|- - ObjetoGeometria
class Retangulo {
    + Retangulo(rotulo:string, paiRef:Objeto, ptoInfEsq:Ponto4D, ptoSupDir:Ponto4D)
    + <<override>> ToString() : string
}
ObjetoGeometria <|- - Retangulo
abstract class Utilitario {
    + {static} AjudaTeclado() : void
}
abstract class Privado_BBox {
    + {static} Dentro(bBox:BBox, pto:Ponto4D) : bool
}
class Privado_Circulo {
    + Privado_Circulo(rotulo:string, paiRef:Objeto, ptoCentro:Ponto4D, raio:double)
    + <<override>> ToString() : string
}
ObjetoGeometria <|- - Privado_Circulo
abstract class Privado_Matematica {
    + {static} DistanciaEuclidiana(pto1:Ponto4D, pto2:Ponto4D) : double
    + {static} DistanciaEuclidianaSemRaiz(pto1:Ponto4D, pto2:Ponto4D) : double
    + {static} ScanLineInterseccao(yi:double, y1:double, y2:double) : double
    + {static} ScanLineCalculaXi(x1:double, x2:double, ti:double) : double
    + {static} ScanLine(ptoClique:Ponto4D, ptoIni:Ponto4D, ptoFim:Ponto4D) : bool
}
class Privado_SegReta {
    + Privado_SegReta(rotulo:string, paiRef:Objeto, ptoIni:Ponto4D, ptoFim:Ponto4D)
    + <<override>> ToString() : string
}
ObjetoGeometria <|- - Privado_SegReta
@enduml

PlantUML version 1.2022.5(Sat Apr 30 07:55:52 BRT 2022)
(GPL source distribution)
Java Runtime: OpenJDK Runtime Environment
JVM: OpenJDK 64-Bit Server VM
Default Encoding: UTF-8
Language: en
Country: BR
--></g></svg>