<?xml version="1.0" encoding="UTF-8" standalone="no"?><svg xmlns="http://www.w3.org/2000/svg" xmlns:xlink="http://www.w3.org/1999/xlink" contentStyleType="text/css" height="384px" preserveAspectRatio="none" style="width:743px;height:384px;background:#FFFFFF;" version="1.1" viewBox="0 0 743 384" width="743px" zoomAndPan="magnify"><defs/><g><!--MD5=[ea10f8dc465baf5e542f54928f2443c8]
class BBox--><g id="elem_BBox"><rect codeLine="1" fill="#F1F1F1" height="262.3477" id="BBox" rx="2.5" ry="2.5" style="stroke:#181818;stroke-width:0.5;" width="729" x="7" y="7"/><ellipse cx="350.25" cy="23" fill="#ADD1B2" rx="11" ry="11" style="stroke:#181818;stroke-width:1.0;"/><path d="M352.7231,29.1431 Q352.1421,29.4419 351.5029,29.5913 Q350.8638,29.7407 350.1582,29.7407 Q347.6514,29.7407 346.3315,28.0889 Q345.0117,26.437 345.0117,23.3159 Q345.0117,20.1865 346.3315,18.5347 Q347.6514,16.8828 350.1582,16.8828 Q350.8638,16.8828 351.5112,17.0322 Q352.1587,17.1816 352.7231,17.4805 L352.7231,20.2031 Q352.0923,19.6221 351.4988,19.3523 Q350.9053,19.0825 350.2744,19.0825 Q348.9297,19.0825 348.2449,20.1492 Q347.5601,21.2158 347.5601,23.3159 Q347.5601,25.4077 348.2449,26.4744 Q348.9297,27.541 350.2744,27.541 Q350.9053,27.541 351.4988,27.2712 Q352.0923,27.0015 352.7231,26.4204 Z " fill="#000000"/><text fill="#000000" font-family="sans-serif" font-size="14" lengthAdjust="spacing" textLength="34" x="370.75" y="28.291">BBox</text><line style="stroke:#181818;stroke-width:0.5;" x1="8" x2="735" y1="39" y2="39"/><ellipse cx="18" cy="50" fill="none" rx="3" ry="3" style="stroke:#038048;stroke-width:1.0;"/><text fill="#000000" font-family="sans-serif" font-size="14" lengthAdjust="spacing" textLength="190" x="27" y="56.5352">obterMenorX : double «get»</text><ellipse cx="18" cy="66.4883" fill="none" rx="3" ry="3" style="stroke:#038048;stroke-width:1.0;"/><text fill="#000000" font-family="sans-serif" font-size="14" lengthAdjust="spacing" textLength="190" x="27" y="73.0234">obterMenorY : double «get»</text><ellipse cx="18" cy="82.9766" fill="none" rx="3" ry="3" style="stroke:#038048;stroke-width:1.0;"/><text fill="#000000" font-family="sans-serif" font-size="14" lengthAdjust="spacing" textLength="189" x="27" y="89.5117">obterMenorZ : double «get»</text><ellipse cx="18" cy="99.4648" fill="none" rx="3" ry="3" style="stroke:#038048;stroke-width:1.0;"/><text fill="#000000" font-family="sans-serif" font-size="14" lengthAdjust="spacing" textLength="185" x="27" y="106">obterMaiorX : double «get»</text><ellipse cx="18" cy="115.9531" fill="none" rx="3" ry="3" style="stroke:#038048;stroke-width:1.0;"/><text fill="#000000" font-family="sans-serif" font-size="14" lengthAdjust="spacing" textLength="185" x="27" y="122.4883">obterMaiorY : double «get»</text><ellipse cx="18" cy="132.4414" fill="none" rx="3" ry="3" style="stroke:#038048;stroke-width:1.0;"/><text fill="#000000" font-family="sans-serif" font-size="14" lengthAdjust="spacing" textLength="184" x="27" y="138.9766">obterMaiorZ : double «get»</text><line style="stroke:#181818;stroke-width:0.5;" x1="8" x2="735" y1="145.9297" y2="145.9297"/><ellipse cx="18" cy="156.9297" fill="#84BE84" rx="3" ry="3" style="stroke:#038048;stroke-width:1.0;"/><text fill="#000000" font-family="sans-serif" font-size="14" lengthAdjust="spacing" textLength="703" x="27" y="163.4648">BBox(menorX:double, menorY:double, menorZ:double, maiorX:double, maiorY:double, maiorZ:double)</text><ellipse cx="18" cy="173.418" fill="#84BE84" rx="3" ry="3" style="stroke:#038048;stroke-width:1.0;"/><text fill="#000000" font-family="sans-serif" font-size="14" lengthAdjust="spacing" textLength="190" x="27" y="179.9531">Atribuir(pto:Ponto4D) : void</text><ellipse cx="18" cy="189.9063" fill="#84BE84" rx="3" ry="3" style="stroke:#038048;stroke-width:1.0;"/><text fill="#000000" font-family="sans-serif" font-size="14" lengthAdjust="spacing" textLength="199" x="27" y="196.4414">Atualizar(pto:Ponto4D) : void</text><ellipse cx="18" cy="206.3945" fill="#84BE84" rx="3" ry="3" style="stroke:#038048;stroke-width:1.0;"/><text fill="#000000" font-family="sans-serif" font-size="14" lengthAdjust="spacing" textLength="309" x="27" y="212.9297">Atualizar(x:double, y:double, z:double) : void</text><ellipse cx="18" cy="222.8828" fill="#84BE84" rx="3" ry="3" style="stroke:#038048;stroke-width:1.0;"/><text fill="#000000" font-family="sans-serif" font-size="14" lengthAdjust="spacing" textLength="164" x="27" y="229.418">ProcessarCentro() : void</text><ellipse cx="18" cy="239.3711" fill="#84BE84" rx="3" ry="3" style="stroke:#038048;stroke-width:1.0;"/><text fill="#000000" font-family="sans-serif" font-size="14" lengthAdjust="spacing" textLength="116" x="27" y="245.9063">Desenhar() : void</text><ellipse cx="18" cy="255.8594" fill="#84BE84" rx="3" ry="3" style="stroke:#038048;stroke-width:1.0;"/><text fill="#000000" font-family="sans-serif" font-size="14" lengthAdjust="spacing" textLength="196" x="27" y="262.3945">«override» ToString() : string</text></g><!--MD5=[ef5ff341dffd6737742a54781c8b5648]
class Ponto4D--><g id="elem_Ponto4D"><rect fill="#F1F1F1" height="48" id="Ponto4D" rx="2.5" ry="2.5" style="stroke:#181818;stroke-width:0.5;" width="91" x="326" y="329"/><ellipse cx="341" cy="345" fill="#ADD1B2" rx="11" ry="11" style="stroke:#181818;stroke-width:1.0;"/><path d="M343.4731,351.1431 Q342.8921,351.4419 342.2529,351.5913 Q341.6138,351.7407 340.9082,351.7407 Q338.4014,351.7407 337.0815,350.0889 Q335.7617,348.437 335.7617,345.3159 Q335.7617,342.1865 337.0815,340.5347 Q338.4014,338.8828 340.9082,338.8828 Q341.6138,338.8828 342.2612,339.0322 Q342.9087,339.1816 343.4731,339.4805 L343.4731,342.2031 Q342.8423,341.6221 342.2488,341.3523 Q341.6553,341.0825 341.0244,341.0825 Q339.6797,341.0825 338.9949,342.1492 Q338.3101,343.2158 338.3101,345.3159 Q338.3101,347.4077 338.9949,348.4744 Q339.6797,349.541 341.0244,349.541 Q341.6553,349.541 342.2488,349.2712 Q342.8423,349.0015 343.4731,348.4204 Z " fill="#000000"/><text fill="#000000" font-family="sans-serif" font-size="14" lengthAdjust="spacing" textLength="59" x="355" y="350.291">Ponto4D</text><line style="stroke:#181818;stroke-width:0.5;" x1="327" x2="416" y1="361" y2="361"/><line style="stroke:#181818;stroke-width:0.5;" x1="327" x2="416" y1="369" y2="369"/></g><!--MD5=[21d10fafb72c8ad2b9cea5ee0b564837]
link BBox to Ponto4D--><g id="link_BBox_Ponto4D"><path codeLine="16" d="M371.5,269.2598 C371.5,289.6605 371.5,308.8594 371.5,323.7147 " fill="none" id="BBox-to-Ponto4D" style="stroke:#181818;stroke-width:1.0;"/><polygon fill="#181818" points="371.5,328.9853,375.5,319.9853,371.5,323.9853,367.5,319.9853,371.5,328.9853" style="stroke:#181818;stroke-width:1.0;"/><text fill="#000000" font-family="sans-serif" font-size="13" lengthAdjust="spacing" textLength="75" x="286.4219" y="318.1258">obterCentro</text></g><!--MD5=[12e1e734deb9c4b0c4166b267afc2111]
@startuml BBox
class BBox {
    + BBox(menorX:double, menorY:double, menorZ:double, maiorX:double, maiorY:double, maiorZ:double)
    + Atribuir(pto:Ponto4D) : void
    + Atualizar(pto:Ponto4D) : void
    + Atualizar(x:double, y:double, z:double) : void
    + ProcessarCentro() : void
    + Desenhar() : void
    + obterMenorX : double <<get>>
    + obterMenorY : double <<get>>
    + obterMenorZ : double <<get>>
    + obterMaiorX : double <<get>>
    + obterMaiorY : double <<get>>
    + obterMaiorZ : double <<get>>
    + <<override>> ToString() : string
}
BBox - -> "obterCentro" Ponto4D
@enduml

PlantUML version 1.2022.5(Sat Apr 30 07:55:52 BRT 2022)
(GPL source distribution)
Java Runtime: OpenJDK Runtime Environment
JVM: OpenJDK 64-Bit Server VM
Default Encoding: UTF-8
Language: en
Country: BR
--></g></svg>