<?xml version="1.0" encoding="UTF-8" standalone="no"?><svg xmlns="http://www.w3.org/2000/svg" xmlns:xlink="http://www.w3.org/1999/xlink" contentStyleType="text/css" height="299px" preserveAspectRatio="none" style="width:712px;height:299px;background:#FFFFFF;" version="1.1" viewBox="0 0 712 299" width="712px" zoomAndPan="magnify"><defs/><g><!--MD5=[a7a8f22eafb289696c295eb36d2b4bda]
class CameraOrtho--><g id="elem_CameraOrtho"><rect codeLine="1" fill="#F1F1F1" height="278.8359" id="CameraOrtho" rx="2.5" ry="2.5" style="stroke:#181818;stroke-width:0.5;" width="691" x="7" y="7"/><ellipse cx="301.75" cy="23" fill="#ADD1B2" rx="11" ry="11" style="stroke:#181818;stroke-width:1.0;"/><path d="M304.2231,29.1431 Q303.6421,29.4419 303.0029,29.5913 Q302.3638,29.7407 301.6582,29.7407 Q299.1514,29.7407 297.8315,28.0889 Q296.5117,26.437 296.5117,23.3159 Q296.5117,20.1865 297.8315,18.5347 Q299.1514,16.8828 301.6582,16.8828 Q302.3638,16.8828 303.0112,17.0322 Q303.6587,17.1816 304.2231,17.4805 L304.2231,20.2031 Q303.5923,19.6221 302.9988,19.3523 Q302.4053,19.0825 301.7744,19.0825 Q300.4297,19.0825 299.7449,20.1492 Q299.0601,21.2158 299.0601,23.3159 Q299.0601,25.4077 299.7449,26.4744 Q300.4297,27.541 301.7744,27.541 Q302.4053,27.541 302.9988,27.2712 Q303.5923,27.0015 304.2231,26.4204 Z " fill="#000000"/><text fill="#000000" font-family="sans-serif" font-size="14" lengthAdjust="spacing" textLength="93" x="322.25" y="28.291">CameraOrtho</text><line style="stroke:#181818;stroke-width:0.5;" x1="8" x2="697" y1="39" y2="39"/><ellipse cx="18" cy="50" fill="none" rx="3" ry="3" style="stroke:#038048;stroke-width:1.0;"/><text fill="#000000" font-family="sans-serif" font-size="14" lengthAdjust="spacing" textLength="173" x="27" y="56.5352">xmin : double «get» «set»</text><ellipse cx="18" cy="66.4883" fill="none" rx="3" ry="3" style="stroke:#038048;stroke-width:1.0;"/><text fill="#000000" font-family="sans-serif" font-size="14" lengthAdjust="spacing" textLength="177" x="27" y="73.0234">xmax : double «get» «set»</text><ellipse cx="18" cy="82.9766" fill="none" rx="3" ry="3" style="stroke:#038048;stroke-width:1.0;"/><text fill="#000000" font-family="sans-serif" font-size="14" lengthAdjust="spacing" textLength="171" x="27" y="89.5117">ymin : double «get» «set»</text><ellipse cx="18" cy="99.4648" fill="none" rx="3" ry="3" style="stroke:#038048;stroke-width:1.0;"/><text fill="#000000" font-family="sans-serif" font-size="14" lengthAdjust="spacing" textLength="175" x="27" y="106">ymax : double «get» «set»</text><ellipse cx="18" cy="115.9531" fill="none" rx="3" ry="3" style="stroke:#038048;stroke-width:1.0;"/><text fill="#000000" font-family="sans-serif" font-size="14" lengthAdjust="spacing" textLength="172" x="27" y="122.4883">zmin : double «get» «set»</text><ellipse cx="18" cy="132.4414" fill="none" rx="3" ry="3" style="stroke:#038048;stroke-width:1.0;"/><text fill="#000000" font-family="sans-serif" font-size="14" lengthAdjust="spacing" textLength="176" x="27" y="138.9766">zmax : double «get» «set»</text><line style="stroke:#181818;stroke-width:0.5;" x1="8" x2="697" y1="145.9297" y2="145.9297"/><ellipse cx="18" cy="156.9297" fill="#84BE84" rx="3" ry="3" style="stroke:#038048;stroke-width:1.0;"/><text fill="#000000" font-family="sans-serif" font-size="14" lengthAdjust="spacing" textLength="665" x="27" y="163.4648">CameraOrtho(xMin:double, xMax:double, yMin:double, yMax:double, zMin:double, zMax:double)</text><ellipse cx="18" cy="173.418" fill="#84BE84" rx="3" ry="3" style="stroke:#038048;stroke-width:1.0;"/><text fill="#000000" font-family="sans-serif" font-size="14" lengthAdjust="spacing" textLength="140" x="27" y="179.9531">PanEsquerda() : void</text><ellipse cx="18" cy="189.9063" fill="#84BE84" rx="3" ry="3" style="stroke:#038048;stroke-width:1.0;"/><text fill="#000000" font-family="sans-serif" font-size="14" lengthAdjust="spacing" textLength="121" x="27" y="196.4414">PanDireita() : void</text><ellipse cx="18" cy="206.3945" fill="#84BE84" rx="3" ry="3" style="stroke:#038048;stroke-width:1.0;"/><text fill="#000000" font-family="sans-serif" font-size="14" lengthAdjust="spacing" textLength="111" x="27" y="212.9297">PanCima() : void</text><ellipse cx="18" cy="222.8828" fill="#84BE84" rx="3" ry="3" style="stroke:#038048;stroke-width:1.0;"/><text fill="#000000" font-family="sans-serif" font-size="14" lengthAdjust="spacing" textLength="114" x="27" y="229.418">PanBaixo() : void</text><ellipse cx="18" cy="239.3711" fill="#84BE84" rx="3" ry="3" style="stroke:#038048;stroke-width:1.0;"/><text fill="#000000" font-family="sans-serif" font-size="14" lengthAdjust="spacing" textLength="103" x="27" y="245.9063">ZoomIn() : void</text><ellipse cx="18" cy="255.8594" fill="#84BE84" rx="3" ry="3" style="stroke:#038048;stroke-width:1.0;"/><text fill="#000000" font-family="sans-serif" font-size="14" lengthAdjust="spacing" textLength="115" x="27" y="262.3945">ZoomOut() : void</text><ellipse cx="18" cy="272.3477" fill="#84BE84" rx="3" ry="3" style="stroke:#038048;stroke-width:1.0;"/><text fill="#000000" font-family="sans-serif" font-size="14" lengthAdjust="spacing" textLength="196" x="27" y="278.8828">«override» ToString() : string</text></g><!--MD5=[20366e08c66a336ac42fd86aa5999c44]
@startuml CameraOrtho
class CameraOrtho {
    + CameraOrtho(xMin:double, xMax:double, yMin:double, yMax:double, zMin:double, zMax:double)
    + xmin : double <<get>> <<set>>
    + xmax : double <<get>> <<set>>
    + ymin : double <<get>> <<set>>
    + ymax : double <<get>> <<set>>
    + zmin : double <<get>> <<set>>
    + zmax : double <<get>> <<set>>
    + PanEsquerda() : void
    + PanDireita() : void
    + PanCima() : void
    + PanBaixo() : void
    + ZoomIn() : void
    + ZoomOut() : void
    + <<override>> ToString() : string
}
@enduml

PlantUML version 1.2022.5(Sat Apr 30 07:55:52 BRT 2022)
(GPL source distribution)
Java Runtime: OpenJDK Runtime Environment
JVM: OpenJDK 64-Bit Server VM
Default Encoding: UTF-8
Language: en
Country: BR
--></g></svg>