<?xml version="1.0" encoding="UTF-8" standalone="no"?><svg xmlns="http://www.w3.org/2000/svg" xmlns:xlink="http://www.w3.org/1999/xlink" contentStyleType="text/css" height="269px" preserveAspectRatio="none" style="width:466px;height:269px;background:#FFFFFF;" version="1.1" viewBox="0 0 466 269" width="466px" zoomAndPan="magnify"><defs/><g><!--MD5=[c3851e40b8ed2f68ee08d490e0f0cd81]
class CameraPerspective--><g id="elem_CameraPerspective"><rect codeLine="1" fill="#F1F1F1" height="146.9297" id="CameraPerspective" rx="2.5" ry="2.5" style="stroke:#181818;stroke-width:0.5;" width="452" x="7" y="7"/><ellipse cx="163.75" cy="23" fill="#ADD1B2" rx="11" ry="11" style="stroke:#181818;stroke-width:1.0;"/><path d="M166.2231,29.1431 Q165.6421,29.4419 165.0029,29.5913 Q164.3638,29.7407 163.6582,29.7407 Q161.1514,29.7407 159.8315,28.0889 Q158.5117,26.437 158.5117,23.3159 Q158.5117,20.1865 159.8315,18.5347 Q161.1514,16.8828 163.6582,16.8828 Q164.3638,16.8828 165.0112,17.0322 Q165.6587,17.1816 166.2231,17.4805 L166.2231,20.2031 Q165.5923,19.6221 164.9988,19.3523 Q164.4053,19.0825 163.7744,19.0825 Q162.4297,19.0825 161.7449,20.1492 Q161.0601,21.2158 161.0601,23.3159 Q161.0601,25.4077 161.7449,26.4744 Q162.4297,27.541 163.7744,27.541 Q164.4053,27.541 164.9988,27.2712 Q165.5923,27.0015 166.2231,26.4204 Z " fill="#000000"/><text fill="#000000" font-family="sans-serif" font-size="14" lengthAdjust="spacing" textLength="130" x="184.25" y="28.291">CameraPerspective</text><line style="stroke:#181818;stroke-width:0.5;" x1="8" x2="458" y1="39" y2="39"/><ellipse cx="18" cy="50" fill="none" rx="3" ry="3" style="stroke:#038048;stroke-width:1.0;"/><text fill="#000000" font-family="sans-serif" font-size="14" lengthAdjust="spacing" textLength="152" x="27" y="56.5352">Fovy : float «get» «set»</text><ellipse cx="18" cy="66.4883" fill="none" rx="3" ry="3" style="stroke:#038048;stroke-width:1.0;"/><text fill="#000000" font-family="sans-serif" font-size="14" lengthAdjust="spacing" textLength="167" x="27" y="73.0234">Aspect : float «get» «set»</text><ellipse cx="18" cy="82.9766" fill="none" rx="3" ry="3" style="stroke:#038048;stroke-width:1.0;"/><text fill="#000000" font-family="sans-serif" font-size="14" lengthAdjust="spacing" textLength="153" x="27" y="89.5117">Near : float «get» «set»</text><ellipse cx="18" cy="99.4648" fill="none" rx="3" ry="3" style="stroke:#038048;stroke-width:1.0;"/><text fill="#000000" font-family="sans-serif" font-size="14" lengthAdjust="spacing" textLength="143" x="27" y="106">Far : float «get» «set»</text><line style="stroke:#181818;stroke-width:0.5;" x1="8" x2="458" y1="112.9531" y2="112.9531"/><ellipse cx="18" cy="123.9531" fill="#84BE84" rx="3" ry="3" style="stroke:#038048;stroke-width:1.0;"/><text fill="#000000" font-family="sans-serif" font-size="14" lengthAdjust="spacing" textLength="426" x="27" y="130.4883">CameraPerspective(fovy:float, aspect:float, near:float, far:float)</text><ellipse cx="18" cy="140.4414" fill="#84BE84" rx="3" ry="3" style="stroke:#038048;stroke-width:1.0;"/><text fill="#000000" font-family="sans-serif" font-size="14" lengthAdjust="spacing" textLength="196" x="27" y="146.9766">«override» ToString() : string</text></g><!--MD5=[65d619c042c23702cef2ca07d67b1cf6]
class Vector3--><g id="elem_Vector3"><rect fill="#F1F1F1" height="48" id="Vector3" rx="2.5" ry="2.5" style="stroke:#181818;stroke-width:0.5;" width="85" x="190.5" y="214"/><ellipse cx="205.5" cy="230" fill="#ADD1B2" rx="11" ry="11" style="stroke:#181818;stroke-width:1.0;"/><path d="M207.9731,236.1431 Q207.3921,236.4419 206.7529,236.5913 Q206.1138,236.7407 205.4082,236.7407 Q202.9014,236.7407 201.5815,235.0889 Q200.2617,233.437 200.2617,230.3159 Q200.2617,227.1865 201.5815,225.5347 Q202.9014,223.8828 205.4082,223.8828 Q206.1138,223.8828 206.7612,224.0322 Q207.4087,224.1816 207.9731,224.4805 L207.9731,227.2031 Q207.3423,226.6221 206.7488,226.3523 Q206.1553,226.0825 205.5244,226.0825 Q204.1797,226.0825 203.4949,227.1492 Q202.8101,228.2158 202.8101,230.3159 Q202.8101,232.4077 203.4949,233.4744 Q204.1797,234.541 205.5244,234.541 Q206.1553,234.541 206.7488,234.2712 Q207.3423,234.0015 207.9731,233.4204 Z " fill="#000000"/><text fill="#000000" font-family="sans-serif" font-size="14" lengthAdjust="spacing" textLength="53" x="219.5" y="235.291">Vector3</text><line style="stroke:#181818;stroke-width:0.5;" x1="191.5" x2="274.5" y1="246" y2="246"/><line style="stroke:#181818;stroke-width:0.5;" x1="191.5" x2="274.5" y1="254" y2="254"/></g><!--MD5=[f94cdd04709e36a9b2c27ce98e350cf2]
link CameraPerspective to Vector3--><g id="link_CameraPerspective_Vector3"><path codeLine="9" d="M206.7985,154.1774 C206.4296,173.4546 208.1658,193.1387 212.0071,208.5837 " fill="none" id="CameraPerspective-to-Vector3" style="stroke:#181818;stroke-width:1.0;"/><polygon fill="#181818" points="213.3904,213.6524,214.8794,203.9168,212.0738,208.8288,207.1617,206.0233,213.3904,213.6524" style="stroke:#181818;stroke-width:1.0;"/><text fill="#000000" font-family="sans-serif" font-size="13" lengthAdjust="spacing" textLength="21" x="184.6748" y="203.0996">Eye</text></g><!--MD5=[f94cdd04709e36a9b2c27ce98e350cf2]
link CameraPerspective to Vector3--><g id="link_CameraPerspective_Vector3"><path codeLine="10" d="M233,154.1774 C233,173.4546 233,193.1387 233,208.5837 " fill="none" id="CameraPerspective-to-Vector3-1" style="stroke:#181818;stroke-width:1.0;"/><polygon fill="#181818" points="233,213.6524,237,204.6524,233,208.6524,229,204.6524,233,213.6524" style="stroke:#181818;stroke-width:1.0;"/><text fill="#000000" font-family="sans-serif" font-size="13" lengthAdjust="spacing" textLength="14" x="217.2063" y="203.0996">At</text></g><!--MD5=[f94cdd04709e36a9b2c27ce98e350cf2]
link CameraPerspective to Vector3--><g id="link_CameraPerspective_Vector3"><path codeLine="11" d="M259.2015,154.1774 C259.5704,173.4546 257.8342,193.1387 253.9929,208.5837 " fill="none" id="CameraPerspective-to-Vector3-2" style="stroke:#181818;stroke-width:1.0;"/><polygon fill="#181818" points="252.6096,213.6524,258.8383,206.0233,253.9262,208.8288,251.1206,203.9168,252.6096,213.6524" style="stroke:#181818;stroke-width:1.0;"/><text fill="#000000" font-family="sans-serif" font-size="13" lengthAdjust="spacing" textLength="17" x="238.4564" y="203.0996">Up</text></g><!--MD5=[b5421f7a1c5fec20878344d56b6745c7]
@startuml CameraPerspective
class CameraPerspective {
    + CameraPerspective(fovy:float, aspect:float, near:float, far:float)
    + Fovy : float <<get>> <<set>>
    + Aspect : float <<get>> <<set>>
    + Near : float <<get>> <<set>>
    + Far : float <<get>> <<set>>
    + <<override>> ToString() : string
}
CameraPerspective - -> "Eye" Vector3
CameraPerspective - -> "At" Vector3
CameraPerspective - -> "Up" Vector3
@enduml

PlantUML version 1.2022.5(Sat Apr 30 07:55:52 BRT 2022)
(GPL source distribution)
Java Runtime: OpenJDK Runtime Environment
JVM: OpenJDK 64-Bit Server VM
Default Encoding: UTF-8
Language: en
Country: BR
--></g></svg>