<?xml version="1.0" encoding="UTF-8" standalone="no"?><svg xmlns="http://www.w3.org/2000/svg" xmlns:xlink="http://www.w3.org/1999/xlink" contentStyleType="text/css" height="167px" preserveAspectRatio="none" style="width:363px;height:167px;background:#FFFFFF;" version="1.1" viewBox="0 0 363 167" width="363px" zoomAndPan="magnify"><defs/><g><!--MD5=[9ac43fafcd0ede942dc8e681a30a1b52]
class Cor--><g id="elem_Cor"><rect codeLine="1" fill="#F1F1F1" height="146.9297" id="Cor" rx="2.5" ry="2.5" style="stroke:#181818;stroke-width:0.5;" width="342" x="7" y="7"/><ellipse cx="161.25" cy="23" fill="#ADD1B2" rx="11" ry="11" style="stroke:#181818;stroke-width:1.0;"/><path d="M163.7231,29.1431 Q163.1421,29.4419 162.5029,29.5913 Q161.8638,29.7407 161.1582,29.7407 Q158.6514,29.7407 157.3315,28.0889 Q156.0117,26.437 156.0117,23.3159 Q156.0117,20.1865 157.3315,18.5347 Q158.6514,16.8828 161.1582,16.8828 Q161.8638,16.8828 162.5112,17.0322 Q163.1587,17.1816 163.7231,17.4805 L163.7231,20.2031 Q163.0923,19.6221 162.4988,19.3523 Q161.9053,19.0825 161.2744,19.0825 Q159.9297,19.0825 159.2449,20.1492 Q158.5601,21.2158 158.5601,23.3159 Q158.5601,25.4077 159.2449,26.4744 Q159.9297,27.541 161.2744,27.541 Q161.9053,27.541 162.4988,27.2712 Q163.0923,27.0015 163.7231,26.4204 Z " fill="#000000"/><text fill="#000000" font-family="sans-serif" font-size="14" lengthAdjust="spacing" textLength="25" x="181.75" y="28.291">Cor</text><line style="stroke:#181818;stroke-width:0.5;" x1="8" x2="348" y1="39" y2="39"/><ellipse cx="18" cy="50" fill="none" rx="3" ry="3" style="stroke:#038048;stroke-width:1.0;"/><text fill="#000000" font-family="sans-serif" font-size="14" lengthAdjust="spacing" textLength="153" x="27" y="56.5352">CorR : byte «get» «set»</text><ellipse cx="18" cy="66.4883" fill="none" rx="3" ry="3" style="stroke:#038048;stroke-width:1.0;"/><text fill="#000000" font-family="sans-serif" font-size="14" lengthAdjust="spacing" textLength="154" x="27" y="73.0234">CorG : byte «get» «set»</text><ellipse cx="18" cy="82.9766" fill="none" rx="3" ry="3" style="stroke:#038048;stroke-width:1.0;"/><text fill="#000000" font-family="sans-serif" font-size="14" lengthAdjust="spacing" textLength="152" x="27" y="89.5117">CorB : byte «get» «set»</text><ellipse cx="18" cy="99.4648" fill="none" rx="3" ry="3" style="stroke:#038048;stroke-width:1.0;"/><text fill="#000000" font-family="sans-serif" font-size="14" lengthAdjust="spacing" textLength="154" x="27" y="106">CorA : byte «get» «set»</text><line style="stroke:#181818;stroke-width:0.5;" x1="8" x2="348" y1="112.9531" y2="112.9531"/><ellipse cx="18" cy="123.9531" fill="#84BE84" rx="3" ry="3" style="stroke:#038048;stroke-width:1.0;"/><text fill="#000000" font-family="sans-serif" font-size="14" lengthAdjust="spacing" textLength="316" x="27" y="130.4883">Cor(corR:byte, corG:byte, corB:byte, corA:byte)</text><ellipse cx="18" cy="140.4414" fill="#84BE84" rx="3" ry="3" style="stroke:#038048;stroke-width:1.0;"/><text fill="#000000" font-family="sans-serif" font-size="14" lengthAdjust="spacing" textLength="196" x="27" y="146.9766">«override» ToString() : string</text></g><!--MD5=[084a5376b2a340d4187f256e33e2907d]
@startuml Cor
class Cor {
    + Cor(corR:byte, corG:byte, corB:byte, corA:byte)
    + <<override>> ToString() : string
    + CorR : byte <<get>> <<set>>
    + CorG : byte <<get>> <<set>>
    + CorB : byte <<get>> <<set>>
    + CorA : byte <<get>> <<set>>
}
@enduml

PlantUML version 1.2022.5(Sat Apr 30 07:55:52 BRT 2022)
(GPL source distribution)
Java Runtime: OpenJDK Runtime Environment
JVM: OpenJDK 64-Bit Server VM
Default Encoding: UTF-8
Language: en
Country: BR
--></g></svg>